solid ascii
 facet normal -0.100405 0.71672 0.690095
  outer loop
   vertex -15.9215 3 -15
   vertex -18 3 -15.3024
   vertex -18 2.70883 -15
  endloop
 endfacet
 facet normal 0.299414 0.687313 0.661779
  outer loop
   vertex -18 2.70883 -15
   vertex -18 3 -15.3024
   vertex -18.6684 3 -15
  endloop
 endfacet
 facet normal 0.372202 0.854399 0.362584
  outer loop
   vertex -18 2.70883 -15
   vertex -18.6684 3 -15
   vertex -18 1.43571 -12
  endloop
 endfacet
 facet normal 0.739234 0.650457 0.174469
  outer loop
   vertex -18 1.43571 -12
   vertex -18.6684 3 -15
   vertex -19.3764 3 -12
  endloop
 endfacet
 facet normal 0.709659 0.624434 0.326293
  outer loop
   vertex -18 1.43571 -12
   vertex -19.3764 3 -12
   vertex -18 0 -9.25246
  endloop
 endfacet
 facet normal 0.6255 0.663278 0.410868
  outer loop
   vertex -18 0 -9.25246
   vertex -19.3764 3 -12
   vertex -18.1658 0 -9
  endloop
 endfacet
 facet normal 0.77996 0.359422 0.512327
  outer loop
   vertex -18 0 -9.25246
   vertex -18.1658 0 -9
   vertex -18 -0.359863 -9
  endloop
 endfacet
 facet normal 0.745976 0.343761 -0.570392
  outer loop
   vertex -18 -0.359863 -9
   vertex -18.1658 0 -9
   vertex -18 0 -8.78312
  endloop
 endfacet
 facet normal -0.130694 0.511752 -0.849134
  outer loop
   vertex -18 -0.359863 -9
   vertex -18 0 -8.78312
   vertex -16.5909 0 -9
  endloop
 endfacet
 facet normal -0.101918 0.742386 -0.662174
  outer loop
   vertex -16.5909 0 -9
   vertex -18 0 -8.78312
   vertex -15 0.218407 -9
  endloop
 endfacet
 facet normal -0.119775 0.872455 0.473788
  outer loop
   vertex -16.5909 0 -9
   vertex -15 0.218407 -9
   vertex -18 1.43571 -12
  endloop
 endfacet
 facet normal -0.0375609 0.912321 0.40775
  outer loop
   vertex -18 1.43571 -12
   vertex -15 0.218407 -9
   vertex -15 1.55922 -12
  endloop
 endfacet
 facet normal -0.0378721 0.919878 0.390372
  outer loop
   vertex -18 1.43571 -12
   vertex -15 1.55922 -12
   vertex -18 2.70883 -15
  endloop
 endfacet
 facet normal -0.125373 0.878055 0.461846
  outer loop
   vertex -18 2.70883 -15
   vertex -15 1.55922 -12
   vertex -15 3 -14.7392
  endloop
 endfacet
 facet normal -0.124573 0.889236 0.44016
  outer loop
   vertex -18 2.70883 -15
   vertex -15 3 -14.7392
   vertex -15.9215 3 -15
  endloop
 endfacet
 facet normal -0.177606 0.758052 0.627546
  outer loop
   vertex -15.9215 3 -15
   vertex -15 3 -14.7392
   vertex -15 3.21591 -15
  endloop
 endfacet
 facet normal -0.0972902 0.41525 0.90449
  outer loop
   vertex -15.9215 3 -15
   vertex -15 3.21591 -15
   vertex -15 6 -16.2782
  endloop
 endfacet
 facet normal -0.385058 0.385058 0.838726
  outer loop
   vertex -15 6 -16.2782
   vertex -15 3.21591 -15
   vertex -12.2159 6 -15
  endloop
 endfacet
 facet normal -0.408237 0.206505 0.889212
  outer loop
   vertex -15 6 -16.2782
   vertex -12.2159 6 -15
   vertex -12 9 -15.5976
  endloop
 endfacet
 facet normal -0.473713 0.204712 0.856557
  outer loop
   vertex -12 9 -15.5976
   vertex -12.2159 6 -15
   vertex -12 6.49962 -15
  endloop
 endfacet
 facet normal -0.697221 0.166632 0.697221
  outer loop
   vertex -12 9 -15.5976
   vertex -12 6.49962 -15
   vertex -11.4024 9 -15
  endloop
 endfacet
 facet normal -0.945027 0.225856 0.236458
  outer loop
   vertex -11.4024 9 -15
   vertex -12 6.49962 -15
   vertex -11.3688 6 -12
  endloop
 endfacet
 facet normal -0.870539 0.343049 0.352815
  outer loop
   vertex -11.4024 9 -15
   vertex -11.3688 6 -12
   vertex -10.1866 9 -12
  endloop
 endfacet
 facet normal -0.926726 0.36519 -0.0884054
  outer loop
   vertex -10.1866 9 -12
   vertex -11.3688 6 -12
   vertex -11.655 6 -9
  endloop
 endfacet
 facet normal -0.706105 0.642748 0.297138
  outer loop
   vertex -10.1866 9 -12
   vertex -11.655 6 -9
   vertex -9 9 -9.18028
  endloop
 endfacet
 facet normal -0.675531 0.62166 0.39648
  outer loop
   vertex -9 9 -9.18028
   vertex -11.655 6 -9
   vertex -9 8.88502 -9
  endloop
 endfacet
 facet normal -0.723877 0.581694 0.370991
  outer loop
   vertex -9 9 -9.18028
   vertex -9 8.88502 -9
   vertex -8.90761 9 -9
  endloop
 endfacet
 facet normal -0.706077 0.567391 0.423701
  outer loop
   vertex -8.90761 9 -9
   vertex -9 8.88502 -9
   vertex -7.10738 9 -6
  endloop
 endfacet
 facet normal -0.835516 0.224805 0.501374
  outer loop
   vertex -8.90761 9 -9
   vertex -7.10738 9 -6
   vertex -8.10042 12 -9
  endloop
 endfacet
 facet normal -0.883943 0.150211 0.44281
  outer loop
   vertex -8.10042 12 -9
   vertex -7.10738 9 -6
   vertex -6.59758 12 -6
  endloop
 endfacet
 facet normal -0.89392 -0.0193858 0.447807
  outer loop
   vertex -8.10042 12 -9
   vertex -6.59758 12 -6
   vertex -8.16548 15 -9
  endloop
 endfacet
 facet normal -0.886259 0 0.46319
  outer loop
   vertex -8.16548 15 -9
   vertex -6.59758 12 -6
   vertex -6.59758 15 -6
  endloop
 endfacet
 facet normal -0.885306 -0.0463703 0.462691
  outer loop
   vertex -8.16548 15 -9
   vertex -6.59758 15 -6
   vertex -8.32261 18 -9
  endloop
 endfacet
 facet normal -0.876566 -0.0233203 0.480716
  outer loop
   vertex -8.32261 18 -9
   vertex -6.59758 15 -6
   vertex -6.67739 18 -6
  endloop
 endfacet
 facet normal -0.865239 -0.161889 0.474504
  outer loop
   vertex -8.32261 18 -9
   vertex -6.67739 18 -6
   vertex -8.88392 21 -9
  endloop
 endfacet
 facet normal -0.856094 -0.129275 0.500391
  outer loop
   vertex -8.88392 21 -9
   vertex -6.67739 18 -6
   vertex -7.1304 21 -6
  endloop
 endfacet
 facet normal -0.806959 -0.355448 0.471672
  outer loop
   vertex -8.88392 21 -9
   vertex -7.1304 21 -6
   vertex -8.45184 24 -6
  endloop
 endfacet
 facet normal -0.88727 -0.390824 0.244968
  outer loop
   vertex -8.45184 24 -6
   vertex -7.1304 21 -6
   vertex -7.62357 24 -3
  endloop
 endfacet
 facet normal -0.745324 -0.634151 0.205778
  outer loop
   vertex -8.45184 24 -6
   vertex -7.62357 24 -3
   vertex -9 25.6177 -3
  endloop
 endfacet
 facet normal -0.759692 -0.646375 0.0711855
  outer loop
   vertex -9 25.6177 -3
   vertex -7.62357 24 -3
   vertex -9 25.9481 0
  endloop
 endfacet
 facet normal -0.66804 -0.739653 0.0814582
  outer loop
   vertex -9 25.6177 -3
   vertex -9 25.9481 0
   vertex -10.5304 27 -3
  endloop
 endfacet
 facet normal -0.682222 -0.725104 0.0937944
  outer loop
   vertex -10.5304 27 -3
   vertex -9 25.9481 0
   vertex -10.118 27 0
  endloop
 endfacet
 facet normal -0.584769 -0.807206 0.0803961
  outer loop
   vertex -10.5304 27 -3
   vertex -10.118 27 0
   vertex -12 28.3634 0
  endloop
 endfacet
 facet normal -0.574002 -0.792343 -0.206674
  outer loop
   vertex -12 28.3634 0
   vertex -10.118 27 0
   vertex -12 27.5809 3
  endloop
 endfacet
 facet normal -0.637451 -0.745546 -0.194467
  outer loop
   vertex -12 28.3634 0
   vertex -12 27.5809 3
   vertex -13.9141 30 0
  endloop
 endfacet
 facet normal -0.70215 -0.702151 -0.118194
  outer loop
   vertex -13.9141 30 0
   vertex -12 27.5809 3
   vertex -14.4191 30 3
  endloop
 endfacet
 facet normal -0.58784 -0.802903 -0.0989519
  outer loop
   vertex -13.9141 30 0
   vertex -14.4191 30 3
   vertex -15 30.4253 3
  endloop
 endfacet
 facet normal -0.570004 -0.778542 -0.262618
  outer loop
   vertex -15 30.4253 3
   vertex -14.4191 30 3
   vertex -15 30 4.26078
  endloop
 endfacet
 facet normal -0.19622 -0.929124 -0.313412
  outer loop
   vertex -15 30.4253 3
   vertex -15 30 4.26078
   vertex -18 30.0469 6
  endloop
 endfacet
 facet normal -0.204892 -0.92199 -0.328563
  outer loop
   vertex -18 30.0469 6
   vertex -15 30 4.26078
   vertex -17.789 30 6
  endloop
 endfacet
 facet normal -0.194562 -0.875505 -0.442309
  outer loop
   vertex -18 30.0469 6
   vertex -17.789 30 6
   vertex -18 30 6.09281
  endloop
 endfacet
 facet normal -0.321946 -0.600563 -0.731898
  outer loop
   vertex -18 30 6.09281
   vertex -17.789 30 6
   vertex -15 27 7.23485
  endloop
 endfacet
 facet normal -0.356229 -0.621756 -0.69751
  outer loop
   vertex -18 30 6.09281
   vertex -15 27 7.23485
   vertex -18 27 8.76699
  endloop
 endfacet
 facet normal -0.263163 0.815616 -0.515283
  outer loop
   vertex -18 27 8.76699
   vertex -15 27 7.23485
   vertex -15 26.2199 6
  endloop
 endfacet
 facet normal -0.132262 0.907273 -0.399202
  outer loop
   vertex -18 27 8.76699
   vertex -15 26.2199 6
   vertex -18 25.7825 6
  endloop
 endfacet
 facet normal -0.140006 0.960396 -0.240912
  outer loop
   vertex -18 25.7825 6
   vertex -15 26.2199 6
   vertex -15 25.4673 3
  endloop
 endfacet
 facet normal 0.0889447 0.995913 -0.0156928
  outer loop
   vertex -18 25.7825 6
   vertex -15 25.4673 3
   vertex -18 25.7352 3
  endloop
 endfacet
 facet normal 0.08892 0.995636 0.0283132
  outer loop
   vertex -18 25.7352 3
   vertex -15 25.4673 3
   vertex -15 25.5526 0
  endloop
 endfacet
 facet normal 0.260656 0.943804 0.203205
  outer loop
   vertex -18 25.7352 3
   vertex -15 25.5526 0
   vertex -18 26.3812 0
  endloop
 endfacet
 facet normal 0.266045 0.963315 -0.0352728
  outer loop
   vertex -18 26.3812 0
   vertex -15 25.5526 0
   vertex -15 25.4428 -3
  endloop
 endfacet
 facet normal 0.690914 0.479679 0.540874
  outer loop
   vertex -18 26.3812 0
   vertex -15 25.4428 -3
   vertex -16.0811 27 -3
  endloop
 endfacet
 facet normal 0.740894 0.514378 -0.431846
  outer loop
   vertex -16.0811 27 -3
   vertex -15 25.4428 -3
   vertex -15.7469 24 -6
  endloop
 endfacet
 facet normal 0.969311 -0.111249 0.219226
  outer loop
   vertex -16.0811 27 -3
   vertex -15.7469 24 -6
   vertex -15.4026 27 -6
  endloop
 endfacet
 facet normal 0.991837 -0.113834 -0.0574508
  outer loop
   vertex -15.4026 27 -6
   vertex -15.7469 24 -6
   vertex -15.9207 24 -9
  endloop
 endfacet
 facet normal 0.742491 -0.533413 0.405189
  outer loop
   vertex -15.4026 27 -6
   vertex -15.9207 24 -9
   vertex -15 25.2816 -9
  endloop
 endfacet
 facet normal 0.619167 -0.444816 0.647126
  outer loop
   vertex -15 25.2816 -9
   vertex -15.9207 24 -9
   vertex -15 24 -9.88093
  endloop
 endfacet
 facet normal -0.0621742 -0.565361 0.822497
  outer loop
   vertex -15 25.2816 -9
   vertex -15 24 -9.88093
   vertex -12 24.9517 -9
  endloop
 endfacet
 facet normal -0.0578673 -0.573801 0.816948
  outer loop
   vertex -12 24.9517 -9
   vertex -15 24 -9.88093
   vertex -12 24 -9.66843
  endloop
 endfacet
 facet normal -0.498318 -0.498318 0.709478
  outer loop
   vertex -12 24.9517 -9
   vertex -12 24 -9.66843
   vertex -11.0483 24 -9
  endloop
 endfacet
 facet normal -0.529603 -0.388554 0.75402
  outer loop
   vertex -11.0483 24 -9
   vertex -12 24 -9.66843
   vertex -9 21.2081 -9
  endloop
 endfacet
 facet normal -0.642264 -0.47121 0.604531
  outer loop
   vertex -11.0483 24 -9
   vertex -9 21.2081 -9
   vertex -9 24 -6.82383
  endloop
 endfacet
 facet normal -0.740608 -0.413086 0.529962
  outer loop
   vertex -9 24 -6.82383
   vertex -9 21.2081 -9
   vertex -8.88392 21 -9
  endloop
 endfacet
 facet normal -0.763706 -0.398161 0.508155
  outer loop
   vertex -9 24 -6.82383
   vertex -8.88392 21 -9
   vertex -8.45184 24 -6
  endloop
 endfacet
 facet normal -0.130512 0.422274 0.897023
  outer loop
   vertex -15.9215 3 -15
   vertex -15 6 -16.2782
   vertex -18 3 -15.3024
  endloop
 endfacet
 facet normal 0.0248675 0.286635 0.957717
  outer loop
   vertex -18 3 -15.3024
   vertex -15 6 -16.2782
   vertex -18 6 -16.2003
  endloop
 endfacet
 facet normal 0.26354 0.276588 0.924146
  outer loop
   vertex -18 3 -15.3024
   vertex -18 6 -16.2003
   vertex -21 6 -15.3448
  endloop
 endfacet
 facet normal 0.273938 -0.0467241 0.960612
  outer loop
   vertex -21 6 -15.3448
   vertex -18 6 -16.2003
   vertex -21 9 -15.1988
  endloop
 endfacet
 facet normal 0.536792 -0.0409898 0.842719
  outer loop
   vertex -21 6 -15.3448
   vertex -21 9 -15.1988
   vertex -21.3122 9 -15
  endloop
 endfacet
 facet normal 0.536425 -0.0551791 0.842142
  outer loop
   vertex -21.3122 9 -15
   vertex -21 9 -15.1988
   vertex -21.0036 12 -15
  endloop
 endfacet
 facet normal 0.894963 -0.09206 -0.436539
  outer loop
   vertex -21.3122 9 -15
   vertex -21.0036 12 -15
   vertex -21 12 -14.9927
  endloop
 endfacet
 facet normal 0.890193 -0.137898 -0.434212
  outer loop
   vertex -21 12 -14.9927
   vertex -21.0036 12 -15
   vertex -21 12.0231 -15
  endloop
 endfacet
 facet normal 0.893654 -0.135831 -0.427706
  outer loop
   vertex -21 12 -14.9927
   vertex -21 12.0231 -15
   vertex -19.5677 12 -12
  endloop
 endfacet
 facet normal 0.875488 -0.239302 -0.419829
  outer loop
   vertex -19.5677 12 -12
   vertex -21 12.0231 -15
   vertex -20.1863 15 -15
  endloop
 endfacet
 facet normal 0.904428 0.380144 0.193649
  outer loop
   vertex -19.5677 12 -12
   vertex -20.1863 15 -15
   vertex -20.8286 15 -12
  endloop
 endfacet
 facet normal 0.977815 -0.0067421 0.209362
  outer loop
   vertex -20.8286 15 -12
   vertex -20.1863 15 -15
   vertex -20.808 18 -12
  endloop
 endfacet
 facet normal 0.834324 -0.00575272 -0.551244
  outer loop
   vertex -20.8286 15 -12
   vertex -20.808 18 -12
   vertex -18.8258 18 -9
  endloop
 endfacet
 facet normal 0.722111 -0.500928 -0.477103
  outer loop
   vertex -18.8258 18 -9
   vertex -20.808 18 -12
   vertex -18.7269 21 -12
  endloop
 endfacet
 facet normal 0.973644 -0.176531 -0.144408
  outer loop
   vertex -18.8258 18 -9
   vertex -18.7269 21 -12
   vertex -18.2819 21 -9
  endloop
 endfacet
 facet normal 0.514782 -0.853914 -0.0763508
  outer loop
   vertex -18.2819 21 -9
   vertex -18.7269 21 -12
   vertex -18 21.4382 -12
  endloop
 endfacet
 facet normal 0.778479 -0.627399 -0.0184861
  outer loop
   vertex -18.2819 21 -9
   vertex -18 21.4382 -12
   vertex -18 21.3498 -9
  endloop
 endfacet
 facet normal -0.0357714 -0.998926 -0.0294331
  outer loop
   vertex -18 21.3498 -9
   vertex -18 21.4382 -12
   vertex -15 21.3308 -12
  endloop
 endfacet
 facet normal 0.61715 -0.484201 0.620222
  outer loop
   vertex -18 21.3498 -9
   vertex -15 21.3308 -12
   vertex -15.9207 24 -9
  endloop
 endfacet
 facet normal 0.599673 -0.497568 0.626752
  outer loop
   vertex -15.9207 24 -9
   vertex -15 21.3308 -12
   vertex -15 24 -9.88093
  endloop
 endfacet
 facet normal 0.381103 0.381103 0.842331
  outer loop
   vertex -18 3 -15.3024
   vertex -21 5.33161 -15
   vertex -18.6684 3 -15
  endloop
 endfacet
 facet normal 0.563127 0.563127 -0.604794
  outer loop
   vertex -18.6684 3 -15
   vertex -21 5.33161 -15
   vertex -21 6 -14.3777
  endloop
 endfacet
 facet normal 0.70766 0.620209 -0.338463
  outer loop
   vertex -18.6684 3 -15
   vertex -21 6 -14.3777
   vertex -19.8628 6 -12
  endloop
 endfacet
 facet normal 0.900935 -0.0513527 -0.430904
  outer loop
   vertex -19.8628 6 -12
   vertex -21 6 -14.3777
   vertex -21 9 -14.7352
  endloop
 endfacet
 facet normal 0.761649 -0.254573 -0.595889
  outer loop
   vertex -19.8628 6 -12
   vertex -21 9 -14.7352
   vertex -18.8601 9 -12
  endloop
 endfacet
 facet normal 0.786498 -0.0528135 -0.61533
  outer loop
   vertex -18.8601 9 -12
   vertex -21 9 -14.7352
   vertex -21 12 -14.9927
  endloop
 endfacet
 facet normal 0.882266 0.208102 -0.422256
  outer loop
   vertex -18.8601 9 -12
   vertex -21 12 -14.9927
   vertex -19.5677 12 -12
  endloop
 endfacet
 facet normal 0.407227 0.418688 0.811706
  outer loop
   vertex -18 3 -15.3024
   vertex -21 6 -15.3448
   vertex -21 5.33161 -15
  endloop
 endfacet
 facet normal 0.503597 0.396047 0.767813
  outer loop
   vertex -21 5.33161 -15
   vertex -21 6 -15.3448
   vertex -21.5256 6 -15
  endloop
 endfacet
 facet normal 0.654858 0.515004 -0.553111
  outer loop
   vertex -21 5.33161 -15
   vertex -21.5256 6 -15
   vertex -21 6 -14.3777
  endloop
 endfacet
 facet normal 0.761712 -0.0766724 -0.643363
  outer loop
   vertex -21 6 -14.3777
   vertex -21.5256 6 -15
   vertex -21 9 -14.7352
  endloop
 endfacet
 facet normal -0.260901 0.0421009 0.964447
  outer loop
   vertex -15 6 -16.2782
   vertex -12 9 -15.5976
   vertex -15 9 -16.4091
  endloop
 endfacet
 facet normal -0.261039 -0.0267629 0.964957
  outer loop
   vertex -15 9 -16.4091
   vertex -12 9 -15.5976
   vertex -15 12 -16.3259
  endloop
 endfacet
 facet normal 0.0236176 -0.0277164 0.999337
  outer loop
   vertex -15 9 -16.4091
   vertex -15 12 -16.3259
   vertex -18 12 -16.255
  endloop
 endfacet
 facet normal 0.0233981 -0.138774 0.990048
  outer loop
   vertex -18 12 -16.255
   vertex -15 12 -16.3259
   vertex -18 15 -15.8345
  endloop
 endfacet
 facet normal 0.381839 -0.128294 0.915281
  outer loop
   vertex -18 12 -16.255
   vertex -18 15 -15.8345
   vertex -21 12 -15.0035
  endloop
 endfacet
 facet normal 0.354915 -0.0973435 0.929817
  outer loop
   vertex -21 12 -15.0035
   vertex -18 15 -15.8345
   vertex -20.1863 15 -15
  endloop
 endfacet
 facet normal 0.478949 -0.130914 0.868026
  outer loop
   vertex -21 12 -15.0035
   vertex -20.1863 15 -15
   vertex -21 12.0231 -15
  endloop
 endfacet
 facet normal 0.0259203 -0.0528929 0.998264
  outer loop
   vertex -18 6 -16.2003
   vertex -15 6 -16.2782
   vertex -18 9 -16.0413
  endloop
 endfacet
 facet normal 0.121578 0.0432878 0.991638
  outer loop
   vertex -18 9 -16.0413
   vertex -15 6 -16.2782
   vertex -15 9 -16.4091
  endloop
 endfacet
 facet normal 0.121389 0.0705295 0.990096
  outer loop
   vertex -18 9 -16.0413
   vertex -15 9 -16.4091
   vertex -18 12 -16.255
  endloop
 endfacet
 facet normal 0.270016 -0.0509453 0.961507
  outer loop
   vertex -18 6 -16.2003
   vertex -18 9 -16.0413
   vertex -21 9 -15.1988
  endloop
 endfacet
 facet normal 0.269837 -0.0625729 0.960871
  outer loop
   vertex -21 9 -15.1988
   vertex -18 9 -16.0413
   vertex -21 12 -15.0035
  endloop
 endfacet
 facet normal 0.696828 -0.0466086 0.715723
  outer loop
   vertex -21 9 -15.1988
   vertex -21 12 -15.0035
   vertex -21.0036 12 -15
  endloop
 endfacet
 facet normal 0.693548 -0.107436 0.712354
  outer loop
   vertex -21.0036 12 -15
   vertex -21 12 -15.0035
   vertex -21 12.0231 -15
  endloop
 endfacet
 facet normal 0.548026 -0.0389972 0.835552
  outer loop
   vertex -21 6 -15.3448
   vertex -21.3122 9 -15
   vertex -21.5256 6 -15
  endloop
 endfacet
 facet normal 0.64622 -0.0459846 -0.761764
  outer loop
   vertex -21.5256 6 -15
   vertex -21.3122 9 -15
   vertex -21 9 -14.7352
  endloop
 endfacet
 facet normal -0.702597 -0.112766 0.702597
  outer loop
   vertex -11.4024 9 -15
   vertex -12 12 -15.1161
   vertex -12 9 -15.5976
  endloop
 endfacet
 facet normal -0.369938 -0.147228 0.917317
  outer loop
   vertex -12 9 -15.5976
   vertex -12 12 -15.1161
   vertex -15 12 -16.3259
  endloop
 endfacet
 facet normal -0.702597 -0.112766 0.702597
  outer loop
   vertex -11.4024 9 -15
   vertex -11.8839 12 -15
   vertex -12 12 -15.1161
  endloop
 endfacet
 facet normal -0.657795 -0.366896 0.657795
  outer loop
   vertex -12 12 -15.1161
   vertex -11.8839 12 -15
   vertex -12 12.2081 -15
  endloop
 endfacet
 facet normal -0.499858 -0.421896 0.756403
  outer loop
   vertex -12 12 -15.1161
   vertex -12 12.2081 -15
   vertex -15 15 -15.4253
  endloop
 endfacet
 facet normal -0.476325 -0.391936 0.787084
  outer loop
   vertex -15 15 -15.4253
   vertex -12 12.2081 -15
   vertex -14.2973 15 -15
  endloop
 endfacet
 facet normal -0.451074 -0.490892 0.745358
  outer loop
   vertex -15 15 -15.4253
   vertex -14.2973 15 -15
   vertex -15 15.6457 -15
  endloop
 endfacet
 facet normal -0.498844 -0.542878 0.675602
  outer loop
   vertex -15 15.6457 -15
   vertex -14.2973 15 -15
   vertex -12 15 -13.3038
  endloop
 endfacet
 facet normal -0.51132 -0.446226 0.734462
  outer loop
   vertex -15 15.6457 -15
   vertex -12 15 -13.3038
   vertex -12 17.1459 -12
  endloop
 endfacet
 facet normal -0.673176 -0.383965 0.631984
  outer loop
   vertex -12 17.1459 -12
   vertex -12 15 -13.3038
   vertex -10.776 15 -12
  endloop
 endfacet
 facet normal -0.649421 -0.370416 0.664111
  outer loop
   vertex -12 17.1459 -12
   vertex -10.776 15 -12
   vertex -12 18 -11.5236
  endloop
 endfacet
 facet normal -0.675613 -0.376318 0.633981
  outer loop
   vertex -12 18 -11.5236
   vertex -10.776 15 -12
   vertex -9 15 -10.1074
  endloop
 endfacet
 facet normal -0.510117 -0.10724 0.853394
  outer loop
   vertex -12 18 -11.5236
   vertex -9 15 -10.1074
   vertex -9 18 -9.73039
  endloop
 endfacet
 facet normal -0.796343 -0.0754135 0.600126
  outer loop
   vertex -9 18 -9.73039
   vertex -9 15 -10.1074
   vertex -8.16548 15 -9
  endloop
 endfacet
 facet normal -0.732668 -0.0383755 0.679504
  outer loop
   vertex -9 18 -9.73039
   vertex -8.16548 15 -9
   vertex -8.32261 18 -9
  endloop
 endfacet
 facet normal 0.384191 0.0656018 0.92092
  outer loop
   vertex -21 12 -15.0035
   vertex -18 9 -16.0413
   vertex -18 12 -16.255
  endloop
 endfacet
 facet normal -0.360309 -0.268223 0.893439
  outer loop
   vertex -12 12 -15.1161
   vertex -15 15 -15.4253
   vertex -15 12 -16.3259
  endloop
 endfacet
 facet normal -0.12955 -0.285113 0.949699
  outer loop
   vertex -15 12 -16.3259
   vertex -15 15 -15.4253
   vertex -18 15 -15.8345
  endloop
 endfacet
 facet normal -0.113192 -0.546492 0.82978
  outer loop
   vertex -15 15 -15.4253
   vertex -15 15.6457 -15
   vertex -18 15 -15.8345
  endloop
 endfacet
 facet normal -0.129748 -0.502154 0.854989
  outer loop
   vertex -18 15 -15.8345
   vertex -15 15.6457 -15
   vertex -18 16.4209 -15
  endloop
 endfacet
 facet normal 0.312636 -0.481049 0.819054
  outer loop
   vertex -18 15 -15.8345
   vertex -18 16.4209 -15
   vertex -20.1863 15 -15
  endloop
 endfacet
 facet normal 0.3948 -0.607473 0.689282
  outer loop
   vertex -20.1863 15 -15
   vertex -18 16.4209 -15
   vertex -20.808 18 -12
  endloop
 endfacet
 facet normal -0.693039 0.638024 0.335592
  outer loop
   vertex -15 3 -14.7392
   vertex -15 1.55922 -12
   vertex -13.6736 3 -12
  endloop
 endfacet
 facet normal -0.735569 0.677177 0.0192144
  outer loop
   vertex -13.6736 3 -12
   vertex -15 1.55922 -12
   vertex -13.5952 3 -9
  endloop
 endfacet
 facet normal -0.786971 0.616647 0.0205571
  outer loop
   vertex -13.6736 3 -12
   vertex -13.5952 3 -9
   vertex -12 5.13586 -12
  endloop
 endfacet
 facet normal -0.847791 0.524673 -0.0772646
  outer loop
   vertex -12 5.13586 -12
   vertex -13.5952 3 -9
   vertex -12 5.57764 -9
  endloop
 endfacet
 facet normal -0.771084 0.62994 -0.0927666
  outer loop
   vertex -12 5.13586 -12
   vertex -12 5.57764 -9
   vertex -11.655 6 -9
  endloop
 endfacet
 facet normal -0.732594 0.598495 0.324207
  outer loop
   vertex -11.655 6 -9
   vertex -12 5.57764 -9
   vertex -10.3273 6 -6
  endloop
 endfacet
 facet normal -0.699674 0.643879 0.309638
  outer loop
   vertex -11.655 6 -9
   vertex -10.3273 6 -6
   vertex -9 8.88502 -9
  endloop
 endfacet
 facet normal -0.563855 0.705636 0.429121
  outer loop
   vertex -9 8.88502 -9
   vertex -10.3273 6 -6
   vertex -9 7.06062 -6
  endloop
 endfacet
 facet normal -0.658725 0.642846 0.390935
  outer loop
   vertex -9 8.88502 -9
   vertex -9 7.06062 -6
   vertex -7.10738 9 -6
  endloop
 endfacet
 facet normal -0.551624 0.538326 0.637116
  outer loop
   vertex -7.10738 9 -6
   vertex -9 7.06062 -6
   vertex -6 9 -5.04122
  endloop
 endfacet
 facet normal -0.653153 0.0655947 0.75438
  outer loop
   vertex -7.10738 9 -6
   vertex -6 9 -5.04122
   vertex -6 12 -5.30207
  endloop
 endfacet
 facet normal -0.432295 0.0781126 0.898342
  outer loop
   vertex -6 12 -5.30207
   vertex -6 9 -5.04122
   vertex -3 9 -3.59758
  endloop
 endfacet
 facet normal -0.493999 0 0.869462
  outer loop
   vertex -6 12 -5.30207
   vertex -3 9 -3.59758
   vertex -3 12 -3.59758
  endloop
 endfacet
 facet normal -0.707107 0 0.707107
  outer loop
   vertex -3 12 -3.59758
   vertex -3 9 -3.59758
   vertex -2.40242 9 -3
  endloop
 endfacet
 facet normal -0.707107 0 0.707107
  outer loop
   vertex -3 12 -3.59758
   vertex -2.40242 9 -3
   vertex -2.40242 12 -3
  endloop
 endfacet
 facet normal -0.988388 0 0.151948
  outer loop
   vertex -2.40242 12 -3
   vertex -2.40242 9 -3
   vertex -1.94123 9 0
  endloop
 endfacet
 facet normal -0.993587 -0.0527246 0.100023
  outer loop
   vertex -2.40242 12 -3
   vertex -1.94123 9 0
   vertex -2.10042 12 0
  endloop
 endfacet
 facet normal -0.891965 -0.047332 -0.44962
  outer loop
   vertex -2.10042 12 0
   vertex -1.94123 9 0
   vertex -3 9 2.10042
  endloop
 endfacet
 facet normal -0.853091 -0.102395 -0.511616
  outer loop
   vertex -2.10042 12 0
   vertex -3 9 2.10042
   vertex -3 12 1.5
  endloop
 endfacet
 facet normal -0.612581 -0.155116 -0.775038
  outer loop
   vertex -3 12 1.5
   vertex -3 9 2.10042
   vertex -4.8978 12 3
  endloop
 endfacet
 facet normal -0.620086 0 -0.784534
  outer loop
   vertex -3 12 1.5
   vertex -4.8978 12 3
   vertex -4.8978 15 3
  endloop
 endfacet
 facet normal -0.764027 0 -0.645184
  outer loop
   vertex -4.8978 15 3
   vertex -4.8978 12 3
   vertex -6 12 4.30523
  endloop
 endfacet
 facet normal -0.764027 0 -0.645184
  outer loop
   vertex -4.8978 15 3
   vertex -6 12 4.30523
   vertex -6 15 4.30523
  endloop
 endfacet
 facet normal 0.873594 0 -0.486656
  outer loop
   vertex -6 15 4.30523
   vertex -6 12 4.30523
   vertex -6.72711 12 3
  endloop
 endfacet
 facet normal 0.881814 -0.00857754 -0.47152
  outer loop
   vertex -6 15 4.30523
   vertex -6.72711 12 3
   vertex -6.69793 15 3
  endloop
 endfacet
 facet normal 0.881814 -0.00857754 -0.47152
  outer loop
   vertex -6.69793 15 3
   vertex -6.72711 12 3
   vertex -8.30207 15 0
  endloop
 endfacet
 facet normal 0.869463 0.166995 -0.464916
  outer loop
   vertex -6.69793 15 3
   vertex -8.30207 15 0
   vertex -7.27413 18 3
  endloop
 endfacet
 facet normal 0.822108 0.236288 -0.517983
  outer loop
   vertex -7.27413 18 3
   vertex -8.30207 15 0
   vertex -9 18 0.260809
  endloop
 endfacet
 facet normal 0.707698 0.548033 -0.445897
  outer loop
   vertex -7.27413 18 3
   vertex -9 18 0.260809
   vertex -9 20.2287 3
  endloop
 endfacet
 facet normal 0.709898 0.546318 -0.444502
  outer loop
   vertex -9 20.2287 3
   vertex -9 18 0.260809
   vertex -9.16331 18 0
  endloop
 endfacet
 facet normal 0.732118 0.52712 -0.431449
  outer loop
   vertex -9 20.2287 3
   vertex -9.16331 18 0
   vertex -9.55534 21 3
  endloop
 endfacet
 facet normal 0.854182 0.419228 -0.307605
  outer loop
   vertex -9.55534 21 3
   vertex -9.16331 18 0
   vertex -10.6357 21 0
  endloop
 endfacet
 facet normal 0.702163 0.665604 -0.252861
  outer loop
   vertex -9.55534 21 3
   vertex -10.6357 21 0
   vertex -12 23.5789 3
  endloop
 endfacet
 facet normal 0.849082 0.524299 -0.0645747
  outer loop
   vertex -12 23.5789 3
   vertex -10.6357 21 0
   vertex -12 23.2094 0
  endloop
 endfacet
 facet normal 0.779277 0.62198 -0.0766054
  outer loop
   vertex -12 23.5789 3
   vertex -12 23.2094 0
   vertex -12.631 24 0
  endloop
 endfacet
 facet normal 0.637207 0.508587 -0.579057
  outer loop
   vertex -12.631 24 0
   vertex -12 23.2094 0
   vertex -12.9628 21 -3
  endloop
 endfacet
 facet normal 0.863513 0.305653 -0.401151
  outer loop
   vertex -12.631 24 0
   vertex -12.9628 21 -3
   vertex -14.0246 24 -3
  endloop
 endfacet
 facet normal 0.819643 0.290124 -0.493977
  outer loop
   vertex -14.0246 24 -3
   vertex -12.9628 21 -3
   vertex -14.7708 21 -6
  endloop
 endfacet
 facet normal 0.794546 0.31903 -0.51664
  outer loop
   vertex -14.0246 24 -3
   vertex -14.7708 21 -6
   vertex -15 24 -4.5
  endloop
 endfacet
 facet normal 0.834108 0.296349 -0.465233
  outer loop
   vertex -15 24 -4.5
   vertex -14.7708 21 -6
   vertex -15 21.6452 -6
  endloop
 endfacet
 facet normal 0.861117 0.273143 -0.428801
  outer loop
   vertex -15 24 -4.5
   vertex -15 21.6452 -6
   vertex -15.7469 24 -6
  endloop
 endfacet
 facet normal 0.825799 0.26194 -0.499443
  outer loop
   vertex -15.7469 24 -6
   vertex -15 21.6452 -6
   vertex -15 21 -6.33837
  endloop
 endfacet
 facet normal 0.65933 0.244358 -0.711037
  outer loop
   vertex -15.7469 24 -6
   vertex -15 21 -6.33837
   vertex -18 21.3498 -9
  endloop
 endfacet
 facet normal 0.554126 -0.470876 -0.686455
  outer loop
   vertex -18 21.3498 -9
   vertex -15 21 -6.33837
   vertex -18 21 -8.76006
  endloop
 endfacet
 facet normal 0.574493 -0.463001 -0.674973
  outer loop
   vertex -18 21.3498 -9
   vertex -18 21 -8.76006
   vertex -18.2819 21 -9
  endloop
 endfacet
 facet normal 0.64372 -0.116712 -0.756309
  outer loop
   vertex -18.2819 21 -9
   vertex -18 21 -8.76006
   vertex -18.8258 18 -9
  endloop
 endfacet
 facet normal -0.791581 0.578226 0.197622
  outer loop
   vertex -11.3688 6 -12
   vertex -12 6 -14.5284
   vertex -12 5.13586 -12
  endloop
 endfacet
 facet normal -0.770211 0.603514 0.206265
  outer loop
   vertex -12 5.13586 -12
   vertex -12 6 -14.5284
   vertex -13.6736 3 -12
  endloop
 endfacet
 facet normal -0.679221 0.656112 0.328901
  outer loop
   vertex -13.6736 3 -12
   vertex -12 6 -14.5284
   vertex -15 3 -14.7392
  endloop
 endfacet
 facet normal -0.68258 0.660623 0.312508
  outer loop
   vertex -15 3 -14.7392
   vertex -12 6 -14.5284
   vertex -12.2159 6 -15
  endloop
 endfacet
 facet normal -0.610242 0.610242 0.505183
  outer loop
   vertex -15 3 -14.7392
   vertex -12.2159 6 -15
   vertex -15 3.21591 -15
  endloop
 endfacet
 facet normal 0.961367 0.15586 0.226895
  outer loop
   vertex -18.6684 3 -15
   vertex -19.8628 6 -12
   vertex -19.3764 3 -12
  endloop
 endfacet
 facet normal 0.983867 0.159508 -0.0810137
  outer loop
   vertex -19.3764 3 -12
   vertex -19.8628 6 -12
   vertex -19.1294 3 -9
  endloop
 endfacet
 facet normal 0.949182 0.304869 -0.0781577
  outer loop
   vertex -19.3764 3 -12
   vertex -19.1294 3 -9
   vertex -18.1658 0 -9
  endloop
 endfacet
 facet normal 0.943401 0.303012 -0.134824
  outer loop
   vertex -18.1658 0 -9
   vertex -19.1294 3 -9
   vertex -18.7007 3 -6
  endloop
 endfacet
 facet normal 0.760669 0.521781 -0.38617
  outer loop
   vertex -18.1658 0 -9
   vertex -18.7007 3 -6
   vertex -18 1.97855 -6
  endloop
 endfacet
 facet normal 0.799305 0.548283 -0.245963
  outer loop
   vertex -18 1.97855 -6
   vertex -18.7007 3 -6
   vertex -18 3 -3.72305
  endloop
 endfacet
 facet normal -0.0140205 0.912307 -0.409266
  outer loop
   vertex -18 1.97855 -6
   vertex -18 3 -3.72305
   vertex -15 2.02465 -6
  endloop
 endfacet
 facet normal -0.139793 0.830122 -0.539773
  outer loop
   vertex -15 2.02465 -6
   vertex -18 3 -3.72305
   vertex -15 3 -4.5
  endloop
 endfacet
 facet normal -0.661475 0.628739 -0.408827
  outer loop
   vertex -15 2.02465 -6
   vertex -15 3 -4.5
   vertex -14.0729 3 -6
  endloop
 endfacet
 facet normal -0.612466 0.69397 -0.378537
  outer loop
   vertex -14.0729 3 -6
   vertex -15 3 -4.5
   vertex -12 4.82946 -6
  endloop
 endfacet
 facet normal -0.650433 0.73699 0.1838
  outer loop
   vertex -14.0729 3 -6
   vertex -12 4.82946 -6
   vertex -12 5.57764 -9
  endloop
 endfacet
 facet normal -0.561743 0.802725 0.200194
  outer loop
   vertex -12 5.57764 -9
   vertex -12 4.82946 -6
   vertex -10.3273 6 -6
  endloop
 endfacet
 facet normal -0.945816 0.222879 0.236128
  outer loop
   vertex -11.3688 6 -12
   vertex -12 6.49962 -15
   vertex -12 6 -14.5284
  endloop
 endfacet
 facet normal -0.846255 0.365704 0.387444
  outer loop
   vertex -12 6 -14.5284
   vertex -12 6.49962 -15
   vertex -12.2159 6 -15
  endloop
 endfacet
 facet normal -0.916693 -0.147128 0.37152
  outer loop
   vertex -11.4024 9 -15
   vertex -10.1866 9 -12
   vertex -11.8839 12 -15
  endloop
 endfacet
 facet normal -0.849318 0.0453968 0.525926
  outer loop
   vertex -11.8839 12 -15
   vertex -10.1866 9 -12
   vertex -10.0262 12 -12
  endloop
 endfacet
 facet normal -0.831628 -0.207846 0.514971
  outer loop
   vertex -11.8839 12 -15
   vertex -10.0262 12 -12
   vertex -10.776 15 -12
  endloop
 endfacet
 facet normal -0.7174 -0.179297 0.673194
  outer loop
   vertex -10.776 15 -12
   vertex -10.0262 12 -12
   vertex -9 15 -10.1074
  endloop
 endfacet
 facet normal 0.645523 -0.0653113 -0.760943
  outer loop
   vertex -21 9 -14.7352
   vertex -21.3122 9 -15
   vertex -21 12 -14.9927
  endloop
 endfacet
 facet normal -0.681373 -0.380047 0.625536
  outer loop
   vertex -11.8839 12 -15
   vertex -12 15 -13.3038
   vertex -12 12.2081 -15
  endloop
 endfacet
 facet normal -0.533663 -0.439116 0.722759
  outer loop
   vertex -12 12.2081 -15
   vertex -12 15 -13.3038
   vertex -14.2973 15 -15
  endloop
 endfacet
 facet normal -0.673329 -0.383463 0.632127
  outer loop
   vertex -12 15 -13.3038
   vertex -11.8839 12 -15
   vertex -10.776 15 -12
  endloop
 endfacet
 facet normal -0.488209 -0.38902 0.781227
  outer loop
   vertex -12.6805 18 -12
   vertex -15 18 -13.4495
   vertex -12 17.1459 -12
  endloop
 endfacet
 facet normal -0.488668 -0.479881 0.728641
  outer loop
   vertex -12 17.1459 -12
   vertex -15 18 -13.4495
   vertex -15 15.6457 -15
  endloop
 endfacet
 facet normal -0.147183 -0.569634 0.808612
  outer loop
   vertex -18 16.4209 -15
   vertex -15 15.6457 -15
   vertex -18 18 -13.8876
  endloop
 endfacet
 facet normal -0.121059 -0.545981 0.829005
  outer loop
   vertex -18 18 -13.8876
   vertex -15 15.6457 -15
   vertex -15 18 -13.4495
  endloop
 endfacet
 facet normal -0.129768 -0.439864 0.88864
  outer loop
   vertex -18 18 -13.8876
   vertex -15 18 -13.4495
   vertex -18 21 -12.4026
  endloop
 endfacet
 facet normal -0.0582958 -0.380379 0.922992
  outer loop
   vertex -18 21 -12.4026
   vertex -15 18 -13.4495
   vertex -15 21 -12.2131
  endloop
 endfacet
 facet normal -0.053016 -0.540926 0.839398
  outer loop
   vertex -18 21 -12.4026
   vertex -15 21 -12.2131
   vertex -15 21.3308 -12
  endloop
 endfacet
 facet normal -0.408707 -0.49438 0.767168
  outer loop
   vertex -15 21.3308 -12
   vertex -15 21 -12.2131
   vertex -14.5999 21 -12
  endloop
 endfacet
 facet normal -0.457162 -0.552992 0.696565
  outer loop
   vertex -15 21.3308 -12
   vertex -14.5999 21 -12
   vertex -15 24 -9.88093
  endloop
 endfacet
 facet normal -0.370716 -0.568309 0.734571
  outer loop
   vertex -15 24 -9.88093
   vertex -14.5999 21 -12
   vertex -12 21 -10.6879
  endloop
 endfacet
 facet normal -0.0669165 -0.321033 0.944701
  outer loop
   vertex -15 24 -9.88093
   vertex -12 21 -10.6879
   vertex -12 24 -9.66843
  endloop
 endfacet
 facet normal -0.444402 -0.288236 0.84819
  outer loop
   vertex -12 24 -9.66843
   vertex -12 21 -10.6879
   vertex -9 21 -9.11608
  endloop
 endfacet
 facet normal -0.543757 -0.40881 0.732941
  outer loop
   vertex -12 24 -9.66843
   vertex -9 21 -9.11608
   vertex -9 21.2081 -9
  endloop
 endfacet
 facet normal -0.657795 -0.366896 0.657795
  outer loop
   vertex -9 21.2081 -9
   vertex -9 21 -9.11608
   vertex -8.88392 21 -9
  endloop
 endfacet
 facet normal 0.48162 -0.504713 0.716455
  outer loop
   vertex -18 16.4209 -15
   vertex -18 18 -13.8876
   vertex -20.808 18 -12
  endloop
 endfacet
 facet normal 0.520286 -0.360922 0.773975
  outer loop
   vertex -20.808 18 -12
   vertex -18 18 -13.8876
   vertex -18.7269 21 -12
  endloop
 endfacet
 facet normal -0.500282 -0.329917 0.800545
  outer loop
   vertex -15 18 -13.4495
   vertex -12.6805 18 -12
   vertex -15 21 -12.2131
  endloop
 endfacet
 facet normal -0.450255 -0.288069 0.845155
  outer loop
   vertex -15 21 -12.2131
   vertex -12.6805 18 -12
   vertex -14.5999 21 -12
  endloop
 endfacet
 facet normal 0.44466 -0.397345 0.802742
  outer loop
   vertex -18 18 -13.8876
   vertex -18 21 -12.4026
   vertex -18.7269 21 -12
  endloop
 endfacet
 facet normal 0.377677 -0.626486 0.681818
  outer loop
   vertex -18.7269 21 -12
   vertex -18 21 -12.4026
   vertex -18 21.4382 -12
  endloop
 endfacet
 facet normal -0.0242217 -0.676398 0.736138
  outer loop
   vertex -18 21.4382 -12
   vertex -18 21 -12.4026
   vertex -15 21.3308 -12
  endloop
 endfacet
 facet normal -0.393286 0.709993 0.584154
  outer loop
   vertex -22.8337 -6 -9
   vertex -24 -6 -9.78524
   vertex -24 -6.64607 -9
  endloop
 endfacet
 facet normal -0.259493 0.745769 0.613589
  outer loop
   vertex -24 -6.64607 -9
   vertex -24 -6 -9.78524
   vertex -27 -7.68993 -9
  endloop
 endfacet
 facet normal -0.321695 0.924535 0.204322
  outer loop
   vertex -24 -6.64607 -9
   vertex -27 -7.68993 -9
   vertex -27 -8.35293 -6
  endloop
 endfacet
 facet normal 0.318684 0.925529 0.204541
  outer loop
   vertex -27 -8.35293 -6
   vertex -27 -7.68993 -9
   vertex -30 -6.65695 -9
  endloop
 endfacet
 facet normal 0.745216 0.453575 -0.488798
  outer loop
   vertex -27 -8.35293 -6
   vertex -30 -6.65695 -9
   vertex -30 -6 -8.39039
  endloop
 endfacet
 facet normal 0.754914 0.446092 -0.480735
  outer loop
   vertex -30 -6 -8.39039
   vertex -30 -6.65695 -9
   vertex -30.3882 -6 -9
  endloop
 endfacet
 facet normal 0.841122 -0.0749143 -0.535633
  outer loop
   vertex -30 -6 -8.39039
   vertex -30.3882 -6 -9
   vertex -30 -3 -8.80997
  endloop
 endfacet
 facet normal 0.75095 -0.0554934 -0.658024
  outer loop
   vertex -30 -3 -8.80997
   vertex -30.3882 -6 -9
   vertex -30.1665 -3 -9
  endloop
 endfacet
 facet normal 0.704926 -0.348614 -0.617695
  outer loop
   vertex -30 -3 -8.80997
   vertex -30.1665 -3 -9
   vertex -30 -2.6633 -9
  endloop
 endfacet
 facet normal 0.889462 -0.439874 0.123971
  outer loop
   vertex -30 -2.6633 -9
   vertex -30.1665 -3 -9
   vertex -30 -3 -10.1947
  endloop
 endfacet
 facet normal 0.252521 -0.931311 0.262475
  outer loop
   vertex -30 -2.6633 -9
   vertex -30 -3 -10.1947
   vertex -27 -1.84986 -9
  endloop
 endfacet
 facet normal 0.208113 -0.911456 0.354875
  outer loop
   vertex -27 -1.84986 -9
   vertex -30 -3 -10.1947
   vertex -27 -3 -11.954
  endloop
 endfacet
 facet normal -0.23031 -0.906809 0.353065
  outer loop
   vertex -27 -1.84986 -9
   vertex -27 -3 -11.954
   vertex -24 -2.6118 -9
  endloop
 endfacet
 facet normal -0.423482 -0.7369 0.526917
  outer loop
   vertex -24 -2.6118 -9
   vertex -27 -3 -11.954
   vertex -24 -3 -9.54291
  endloop
 endfacet
 facet normal -0.225805 -0.792432 0.566624
  outer loop
   vertex -24 -2.6118 -9
   vertex -24 -3 -9.54291
   vertex -22.6377 -3 -9
  endloop
 endfacet
 facet normal -0.370089 0.0241797 0.928682
  outer loop
   vertex -22.6377 -3 -9
   vertex -24 -3 -9.54291
   vertex -22.8337 -6 -9
  endloop
 endfacet
 facet normal -0.997681 0.0651834 -0.0196084
  outer loop
   vertex -22.6377 -3 -9
   vertex -22.8337 -6 -9
   vertex -22.8926 -6 -6
  endloop
 endfacet
 facet normal -0.484533 0.874721 -0.009523
  outer loop
   vertex -22.8926 -6 -6
   vertex -22.8337 -6 -9
   vertex -24 -6.64607 -9
  endloop
 endfacet
 facet normal -0.716863 0.687399 0.116577
  outer loop
   vertex -22.8926 -6 -6
   vertex -24 -6.64607 -9
   vertex -24 -7.15484 -6
  endloop
 endfacet
 facet normal -0.366364 0.917373 0.155578
  outer loop
   vertex -24 -7.15484 -6
   vertex -24 -6.64607 -9
   vertex -27 -8.35293 -6
  endloop
 endfacet
 facet normal -0.351989 0.881379 -0.315079
  outer loop
   vertex -24 -7.15484 -6
   vertex -27 -8.35293 -6
   vertex -24 -6.08239 -3
  endloop
 endfacet
 facet normal 0.141165 0.716339 -0.683323
  outer loop
   vertex -24 -6.08239 -3
   vertex -27 -8.35293 -6
   vertex -27 -6 -3.53339
  endloop
 endfacet
 facet normal 0.12978 0.782414 -0.609086
  outer loop
   vertex -24 -6.08239 -3
   vertex -27 -6 -3.53339
   vertex -24.4967 -6 -3
  endloop
 endfacet
 facet normal 0.159989 -0.640789 -0.750862
  outer loop
   vertex -24.4967 -6 -3
   vertex -27 -6 -3.53339
   vertex -24 -3 -5.45438
  endloop
 endfacet
 facet normal 0.173669 -0.640655 -0.74793
  outer loop
   vertex -24.4967 -6 -3
   vertex -24 -3 -5.45438
   vertex -24 -5.86535 -3
  endloop
 endfacet
 facet normal -0.719406 -0.451859 -0.527521
  outer loop
   vertex -24 -5.86535 -3
   vertex -24 -3 -5.45438
   vertex -23.5999 -3 -6
  endloop
 endfacet
 facet normal -0.844947 -0.325978 -0.424032
  outer loop
   vertex -24 -5.86535 -3
   vertex -23.5999 -3 -6
   vertex -23.9481 -6 -3
  endloop
 endfacet
 facet normal -0.920827 -0.217096 -0.323956
  outer loop
   vertex -23.9481 -6 -3
   vertex -23.5999 -3 -6
   vertex -22.8926 -6 -6
  endloop
 endfacet
 facet normal -0.699582 0.670828 -0.24612
  outer loop
   vertex -23.9481 -6 -3
   vertex -22.8926 -6 -6
   vertex -24 -7.15484 -6
  endloop
 endfacet
 facet normal -0.338759 0.817662 0.465479
  outer loop
   vertex -27 -7.68993 -9
   vertex -24 -6 -9.78524
   vertex -27 -6 -11.9685
  endloop
 endfacet
 facet normal -0.588428 -0.00391839 0.80854
  outer loop
   vertex -27 -6 -11.9685
   vertex -24 -6 -9.78524
   vertex -27 -3 -11.954
  endloop
 endfacet
 facet normal 0.505866 -0.00418039 0.862602
  outer loop
   vertex -27 -6 -11.9685
   vertex -27 -3 -11.954
   vertex -30 -3 -10.1947
  endloop
 endfacet
 facet normal 0.119177 0.937185 0.327844
  outer loop
   vertex -30 -6.65695 -9
   vertex -27 -6 -11.9685
   vertex -30 -6 -10.878
  endloop
 endfacet
 facet normal 0.334077 -0.209322 0.919009
  outer loop
   vertex -30 -6 -10.878
   vertex -27 -6 -11.9685
   vertex -30 -3 -10.1947
  endloop
 endfacet
 facet normal 0.989937 -0.0314265 0.137975
  outer loop
   vertex -30 -6 -10.878
   vertex -30 -3 -10.1947
   vertex -30.1665 -3 -9
  endloop
 endfacet
 facet normal 0.286676 0.832571 0.473965
  outer loop
   vertex -27 -7.68993 -9
   vertex -27 -6 -11.9685
   vertex -30 -6.65695 -9
  endloop
 endfacet
 facet normal 0.847605 0.500865 0.175211
  outer loop
   vertex -30 -6.65695 -9
   vertex -30 -6 -10.878
   vertex -30.3882 -6 -9
  endloop
 endfacet
 facet normal 0.976742 -0.0721789 0.201906
  outer loop
   vertex -30.3882 -6 -9
   vertex -30 -6 -10.878
   vertex -30.1665 -3 -9
  endloop
 endfacet
 facet normal -0.557229 -0.0668581 0.827663
  outer loop
   vertex -22.8337 -6 -9
   vertex -24 -3 -9.54291
   vertex -24 -6 -9.78524
  endloop
 endfacet
 facet normal -0.625213 -0.0628399 0.77792
  outer loop
   vertex -24 -6 -9.78524
   vertex -24 -3 -9.54291
   vertex -27 -3 -11.954
  endloop
 endfacet
 facet normal -0.145119 0.568233 0.80997
  outer loop
   vertex -18 -0.359863 -9
   vertex -16.5909 0 -9
   vertex -18 0 -9.25246
  endloop
 endfacet
 facet normal -0.0826919 0.883257 0.46154
  outer loop
   vertex -18 0 -9.25246
   vertex -16.5909 0 -9
   vertex -18 1.43571 -12
  endloop
 endfacet
 facet normal -0.875042 0.441917 0.19751
  outer loop
   vertex -15 1.55922 -12
   vertex -15 0.218407 -9
   vertex -13.5952 3 -9
  endloop
 endfacet
 facet normal -0.883744 0.446312 -0.140719
  outer loop
   vertex -13.5952 3 -9
   vertex -15 0.218407 -9
   vertex -14.0729 3 -6
  endloop
 endfacet
 facet normal -0.842644 0.521487 -0.134175
  outer loop
   vertex -13.5952 3 -9
   vertex -14.0729 3 -6
   vertex -12 5.57764 -9
  endloop
 endfacet
 facet normal -0.805121 0.588117 -0.0768048
  outer loop
   vertex -11.3688 6 -12
   vertex -12 5.13586 -12
   vertex -11.655 6 -9
  endloop
 endfacet
 facet normal 0.949604 -0.0727479 -0.304893
  outer loop
   vertex -19.1294 3 -9
   vertex -19.8628 6 -12
   vertex -18.8996 6 -9
  endloop
 endfacet
 facet normal 0.907291 -0.303252 -0.291308
  outer loop
   vertex -18.8996 6 -9
   vertex -19.8628 6 -12
   vertex -18.8601 9 -12
  endloop
 endfacet
 facet normal 0.725736 -0.491224 -0.48167
  outer loop
   vertex -18.8996 6 -9
   vertex -18.8601 9 -12
   vertex -18 9 -10.7041
  endloop
 endfacet
 facet normal 0.832433 0.04261 -0.552485
  outer loop
   vertex -18 9 -10.7041
   vertex -18.8601 9 -12
   vertex -18 12 -10.4727
  endloop
 endfacet
 facet normal 0.908435 0.0321444 -0.416787
  outer loop
   vertex -18 9 -10.7041
   vertex -18 12 -10.4727
   vertex -17.2182 9 -9
  endloop
 endfacet
 facet normal 0.825602 -0.0602516 -0.561027
  outer loop
   vertex -17.2182 9 -9
   vertex -18 12 -10.4727
   vertex -16.9992 12 -9
  endloop
 endfacet
 facet normal 0.996181 -0.0727003 -0.0483503
  outer loop
   vertex -17.2182 9 -9
   vertex -16.9992 12 -9
   vertex -17.0726 9 -6
  endloop
 endfacet
 facet normal 0.95411 -0.223087 -0.199765
  outer loop
   vertex -17.0726 9 -6
   vertex -16.9992 12 -9
   vertex -16.3711 12 -6
  endloop
 endfacet
 facet normal 0.969909 -0.226781 -0.0885783
  outer loop
   vertex -17.0726 9 -6
   vertex -16.3711 12 -6
   vertex -16.7986 9 -3
  endloop
 endfacet
 facet normal 0.876601 -0.396946 -0.272038
  outer loop
   vertex -16.7986 9 -3
   vertex -16.3711 12 -6
   vertex -15.4401 12 -3
  endloop
 endfacet
 facet normal 0.738595 -0.334453 -0.585337
  outer loop
   vertex -16.7986 9 -3
   vertex -15.4401 12 -3
   vertex -15 12 -2.44466
  endloop
 endfacet
 facet normal 0.71968 -0.395936 -0.570347
  outer loop
   vertex -15 12 -2.44466
   vertex -15.4401 12 -3
   vertex -15 12.8 -3
  endloop
 endfacet
 facet normal 0.569168 -0.468881 -0.675425
  outer loop
   vertex -15 12 -2.44466
   vertex -15 12.8 -3
   vertex -12 15 -1.99923
  endloop
 endfacet
 facet normal 0.523603 -0.363487 -0.77053
  outer loop
   vertex -12 15 -1.99923
   vertex -15 12.8 -3
   vertex -13.4727 15 -3
  endloop
 endfacet
 facet normal 0.561482 -0.0448732 -0.826272
  outer loop
   vertex -12 15 -1.99923
   vertex -13.4727 15 -3
   vertex -12 18 -2.16215
  endloop
 endfacet
 facet normal 0.71049 -0.157221 -0.685919
  outer loop
   vertex -12 18 -2.16215
   vertex -13.4727 15 -3
   vertex -12.8089 18 -3
  endloop
 endfacet
 facet normal 0.712805 0.135473 -0.688154
  outer loop
   vertex -12 18 -2.16215
   vertex -12.8089 18 -3
   vertex -12 21 -1.57156
  endloop
 endfacet
 facet normal 0.828487 0.0424964 -0.558393
  outer loop
   vertex -12 21 -1.57156
   vertex -12.8089 18 -3
   vertex -12.9628 21 -3
  endloop
 endfacet
 facet normal 0.770579 0.369418 -0.519364
  outer loop
   vertex -12 21 -1.57156
   vertex -12.9628 21 -3
   vertex -12 23.2094 0
  endloop
 endfacet
 facet normal 0.799716 -0.475219 -0.366907
  outer loop
   vertex -18 9 -10.7041
   vertex -17.2182 9 -9
   vertex -18 7.6843 -9
  endloop
 endfacet
 facet normal 0.858924 -0.510403 -0.0416885
  outer loop
   vertex -18 7.6843 -9
   vertex -17.2182 9 -9
   vertex -17.0726 9 -6
  endloop
 endfacet
 facet normal 0.861427 -0.505935 -0.0444213
  outer loop
   vertex -18 7.6843 -9
   vertex -17.0726 9 -6
   vertex -18 7.42089 -6
  endloop
 endfacet
 facet normal 0.859617 -0.504872 -0.0785057
  outer loop
   vertex -18 7.42089 -6
   vertex -17.0726 9 -6
   vertex -16.7986 9 -3
  endloop
 endfacet
 facet normal 0.870581 -0.482869 -0.0944786
  outer loop
   vertex -18 7.42089 -6
   vertex -16.7986 9 -3
   vertex -18 6.83391 -3
  endloop
 endfacet
 facet normal 0.849511 -0.471183 -0.237313
  outer loop
   vertex -18 6.83391 -3
   vertex -16.7986 9 -3
   vertex -18 6 -1.34427
  endloop
 endfacet
 facet normal 0.832491 -0.494822 -0.249219
  outer loop
   vertex -18 6.83391 -3
   vertex -18 6 -1.34427
   vertex -18.4957 6 -3
  endloop
 endfacet
 facet normal 0.933137 0.226317 -0.279348
  outer loop
   vertex -18.4957 6 -3
   vertex -18 6 -1.34427
   vertex -18 3.9563 -3
  endloop
 endfacet
 facet normal 0.930299 0.225629 -0.289199
  outer loop
   vertex -18.4957 6 -3
   vertex -18 3.9563 -3
   vertex -18.7007 3 -6
  endloop
 endfacet
 facet normal 0.932981 0.217072 -0.287098
  outer loop
   vertex -18.7007 3 -6
   vertex -18 3.9563 -3
   vertex -18 3 -3.72305
  endloop
 endfacet
 facet normal 0.828939 -0.442735 -0.341827
  outer loop
   vertex -18 9 -10.7041
   vertex -18 7.6843 -9
   vertex -18.8996 6 -9
  endloop
 endfacet
 facet normal 0.881911 -0.471028 -0.0191251
  outer loop
   vertex -18.8996 6 -9
   vertex -18 7.6843 -9
   vertex -18.8345 6 -6
  endloop
 endfacet
 facet normal 0.998772 0.0445638 -0.0216593
  outer loop
   vertex -18.8996 6 -9
   vertex -18.8345 6 -6
   vertex -18.7007 3 -6
  endloop
 endfacet
 facet normal 0.992706 0.0442932 -0.112128
  outer loop
   vertex -18.7007 3 -6
   vertex -18.8345 6 -6
   vertex -18.4957 6 -3
  endloop
 endfacet
 facet normal -0.874329 0.186433 0.448098
  outer loop
   vertex -8.90761 9 -9
   vertex -9 12 -10.4284
   vertex -9 9 -9.18028
  endloop
 endfacet
 facet normal -0.909942 0.159313 0.382915
  outer loop
   vertex -9 9 -9.18028
   vertex -9 12 -10.4284
   vertex -10.1866 9 -12
  endloop
 endfacet
 facet normal -0.825068 0.221994 0.519598
  outer loop
   vertex -8.90761 9 -9
   vertex -8.10042 12 -9
   vertex -9 12 -10.4284
  endloop
 endfacet
 facet normal -0.844809 -0.0569389 0.53203
  outer loop
   vertex -9 12 -10.4284
   vertex -8.10042 12 -9
   vertex -9 15 -10.1074
  endloop
 endfacet
 facet normal -0.835866 -0.0584144 0.545817
  outer loop
   vertex -9 12 -10.4284
   vertex -9 15 -10.1074
   vertex -10.0262 12 -12
  endloop
 endfacet
 facet normal -0.836458 0.0447095 0.546204
  outer loop
   vertex -10.1866 9 -12
   vertex -9 12 -10.4284
   vertex -10.0262 12 -12
  endloop
 endfacet
 facet normal 0.688546 0.162408 -0.706773
  outer loop
   vertex -18.8601 9 -12
   vertex -19.5677 12 -12
   vertex -18 12 -10.4727
  endloop
 endfacet
 facet normal 0.676373 0.245965 -0.694278
  outer loop
   vertex -18 12 -10.4727
   vertex -19.5677 12 -12
   vertex -18 15 -9.40991
  endloop
 endfacet
 facet normal 0.81118 0.195286 -0.551226
  outer loop
   vertex -18 12 -10.4727
   vertex -18 15 -9.40991
   vertex -16.9992 12 -9
  endloop
 endfacet
 facet normal 0.743245 0.159153 -0.649813
  outer loop
   vertex -16.9992 12 -9
   vertex -18 15 -9.40991
   vertex -17.6416 15 -9
  endloop
 endfacet
 facet normal 0.957963 0.205131 -0.200572
  outer loop
   vertex -16.9992 12 -9
   vertex -17.6416 15 -9
   vertex -16.3711 12 -6
  endloop
 endfacet
 facet normal 0.844469 -0.155037 -0.512675
  outer loop
   vertex -16.3711 12 -6
   vertex -17.6416 15 -9
   vertex -15.8203 15 -6
  endloop
 endfacet
 facet normal 0.940716 -0.172707 -0.291935
  outer loop
   vertex -16.3711 12 -6
   vertex -15.8203 15 -6
   vertex -15.4401 12 -3
  endloop
 endfacet
 facet normal 0.767476 -0.402058 -0.49933
  outer loop
   vertex -15.4401 12 -3
   vertex -15.8203 15 -6
   vertex -15 15 -4.73914
  endloop
 endfacet
 facet normal 0.748057 -0.411548 -0.520614
  outer loop
   vertex -15.4401 12 -3
   vertex -15 15 -4.73914
   vertex -15 12.8 -3
  endloop
 endfacet
 facet normal 0.666207 -0.462482 -0.585046
  outer loop
   vertex -15 12.8 -3
   vertex -15 15 -4.73914
   vertex -13.4727 15 -3
  endloop
 endfacet
 facet normal -0.798497 -0.0173164 0.60175
  outer loop
   vertex -8.16548 15 -9
   vertex -9 15 -10.1074
   vertex -8.10042 12 -9
  endloop
 endfacet
 facet normal 0.649659 0.273061 -0.709493
  outer loop
   vertex -19.5677 12 -12
   vertex -20.8286 15 -12
   vertex -18 15 -9.40991
  endloop
 endfacet
 facet normal 0.64548 0.293992 -0.704929
  outer loop
   vertex -18 15 -9.40991
   vertex -20.8286 15 -12
   vertex -18 15.9829 -9
  endloop
 endfacet
 facet normal 0.725985 0.264713 -0.634722
  outer loop
   vertex -18 15 -9.40991
   vertex -18 15.9829 -9
   vertex -17.6416 15 -9
  endloop
 endfacet
 facet normal 0.816084 0.297565 -0.495442
  outer loop
   vertex -17.6416 15 -9
   vertex -18 15.9829 -9
   vertex -15.8203 15 -6
  endloop
 endfacet
 facet normal -0.521577 -0.415608 0.745136
  outer loop
   vertex -12 17.1459 -12
   vertex -12 18 -11.5236
   vertex -12.6805 18 -12
  endloop
 endfacet
 facet normal -0.559074 -0.222502 0.798705
  outer loop
   vertex -12.6805 18 -12
   vertex -12 18 -11.5236
   vertex -12 21 -10.6879
  endloop
 endfacet
 facet normal -0.432918 -0.276977 0.857826
  outer loop
   vertex -12.6805 18 -12
   vertex -12 21 -10.6879
   vertex -14.5999 21 -12
  endloop
 endfacet
 facet normal 0.655463 0.268353 -0.705942
  outer loop
   vertex -20.8286 15 -12
   vertex -18.8258 18 -9
   vertex -18 15.9829 -9
  endloop
 endfacet
 facet normal 0.589332 0.241279 -0.77102
  outer loop
   vertex -18 15.9829 -9
   vertex -18.8258 18 -9
   vertex -18 18 -8.36877
  endloop
 endfacet
 facet normal 0.554459 0.248542 -0.79423
  outer loop
   vertex -18 15.9829 -9
   vertex -18 18 -8.36877
   vertex -15 18 -6.27444
  endloop
 endfacet
 facet normal 0.569176 -0.106341 -0.81531
  outer loop
   vertex -15 18 -6.27444
   vertex -18 18 -8.36877
   vertex -18 21 -8.76006
  endloop
 endfacet
 facet normal 0.628032 -0.0165799 -0.778011
  outer loop
   vertex -15 18 -6.27444
   vertex -18 21 -8.76006
   vertex -15 21 -6.33837
  endloop
 endfacet
 facet normal -0.726202 -0.137913 0.673507
  outer loop
   vertex -8.32261 18 -9
   vertex -9 21 -9.11608
   vertex -9 18 -9.73039
  endloop
 endfacet
 facet normal -0.456648 -0.178469 0.871563
  outer loop
   vertex -9 18 -9.73039
   vertex -9 21 -9.11608
   vertex -12 21 -10.6879
  endloop
 endfacet
 facet normal -0.499008 -0.23256 0.834809
  outer loop
   vertex -9 18 -9.73039
   vertex -12 21 -10.6879
   vertex -12 18 -11.5236
  endloop
 endfacet
 facet normal -0.700998 -0.131159 0.700998
  outer loop
   vertex -8.88392 21 -9
   vertex -9 21 -9.11608
   vertex -8.32261 18 -9
  endloop
 endfacet
 facet normal 0.741284 0.39068 -0.545772
  outer loop
   vertex -27 -8.35293 -6
   vertex -30 -6 -8.39039
   vertex -28.2401 -6 -6
  endloop
 endfacet
 facet normal 0.710412 -0.470894 -0.523043
  outer loop
   vertex -28.2401 -6 -6
   vertex -30 -6 -8.39039
   vertex -27 -3 -7.0166
  endloop
 endfacet
 facet normal 0.745093 -0.468762 -0.474446
  outer loop
   vertex -28.2401 -6 -6
   vertex -27 -3 -7.0166
   vertex -27 -4.02892 -6
  endloop
 endfacet
 facet normal 0.317467 -0.666475 -0.674556
  outer loop
   vertex -27 -4.02892 -6
   vertex -27 -3 -7.0166
   vertex -24.8399 -3 -6
  endloop
 endfacet
 facet normal 0.348756 -0.732161 -0.585072
  outer loop
   vertex -27 -4.02892 -6
   vertex -24.8399 -3 -6
   vertex -27 -6 -3.53339
  endloop
 endfacet
 facet normal 0.369791 -0.734304 -0.569256
  outer loop
   vertex -27 -6 -3.53339
   vertex -24.8399 -3 -6
   vertex -24 -3 -5.45438
  endloop
 endfacet
 facet normal -0.929092 -0.219045 -0.298007
  outer loop
   vertex -22.8926 -6 -6
   vertex -23.5999 -3 -6
   vertex -22.6377 -3 -9
  endloop
 endfacet
 facet normal -0.477631 -0.8651 -0.153201
  outer loop
   vertex -22.6377 -3 -9
   vertex -23.5999 -3 -6
   vertex -24 -2.77911 -6
  endloop
 endfacet
 facet normal -0.27365 -0.960337 -0.0535576
  outer loop
   vertex -22.6377 -3 -9
   vertex -24 -2.77911 -6
   vertex -24 -2.6118 -9
  endloop
 endfacet
 facet normal -0.245805 -0.967816 -0.0539747
  outer loop
   vertex -24 -2.6118 -9
   vertex -24 -2.77911 -6
   vertex -27 -1.84986 -9
  endloop
 endfacet
 facet normal 0.509444 -0.119191 -0.852209
  outer loop
   vertex -30 -6 -8.39039
   vertex -30 -3 -8.80997
   vertex -27 -3 -7.0166
  endloop
 endfacet
 facet normal 0.461774 -0.435962 -0.772465
  outer loop
   vertex -27 -3 -7.0166
   vertex -30 -3 -8.80997
   vertex -30 -2.6633 -9
  endloop
 endfacet
 facet normal 0.228364 -0.842217 -0.488386
  outer loop
   vertex -27 -3 -7.0166
   vertex -30 -2.6633 -9
   vertex -27 -1.84986 -9
  endloop
 endfacet
 facet normal 0.229772 -0.84193 -0.48822
  outer loop
   vertex -27 -3 -7.0166
   vertex -27 -1.84986 -9
   vertex -24.8399 -3 -6
  endloop
 endfacet
 facet normal 0.222491 -0.846002 -0.484539
  outer loop
   vertex -24.8399 -3 -6
   vertex -27 -1.84986 -9
   vertex -24 -2.77911 -6
  endloop
 endfacet
 facet normal 0.236836 -0.900548 -0.364585
  outer loop
   vertex -24.8399 -3 -6
   vertex -24 -2.77911 -6
   vertex -24 -3 -5.45438
  endloop
 endfacet
 facet normal -0.455571 -0.825143 -0.334057
  outer loop
   vertex -24 -3 -5.45438
   vertex -24 -2.77911 -6
   vertex -23.5999 -3 -6
  endloop
 endfacet
 facet normal -0.669502 0.636369 -0.383146
  outer loop
   vertex -14.0729 3 -6
   vertex -15 0.218407 -9
   vertex -15 2.02465 -6
  endloop
 endfacet
 facet normal -0.0131648 0.856631 -0.515762
  outer loop
   vertex -15 2.02465 -6
   vertex -15 0.218407 -9
   vertex -18 1.97855 -6
  endloop
 endfacet
 facet normal -0.10071 0.810889 -0.576469
  outer loop
   vertex -15 0.218407 -9
   vertex -18 0 -8.78312
   vertex -18 1.97855 -6
  endloop
 endfacet
 facet normal 0.603959 0.649594 -0.461802
  outer loop
   vertex -18 1.97855 -6
   vertex -18 0 -8.78312
   vertex -18.1658 0 -9
  endloop
 endfacet
 facet normal 0.987107 -0.075621 -0.141071
  outer loop
   vertex -19.1294 3 -9
   vertex -18.8996 6 -9
   vertex -18.7007 3 -6
  endloop
 endfacet
 facet normal 0.861427 -0.505935 -0.0444213
  outer loop
   vertex -18 7.6843 -9
   vertex -18 7.42089 -6
   vertex -18.8345 6 -6
  endloop
 endfacet
 facet normal 0.858217 -0.50405 -0.0969373
  outer loop
   vertex -18.8345 6 -6
   vertex -18 7.42089 -6
   vertex -18.4957 6 -3
  endloop
 endfacet
 facet normal 0.747169 -0.282968 -0.601388
  outer loop
   vertex -15 17.4167 -6
   vertex -15 18 -6.27444
   vertex -14.7791 18 -6
  endloop
 endfacet
 facet normal 0.778938 -0.0133609 -0.626959
  outer loop
   vertex -14.7791 18 -6
   vertex -15 18 -6.27444
   vertex -15 21 -6.33837
  endloop
 endfacet
 facet normal 0.827911 -0.00229893 -0.560854
  outer loop
   vertex -14.7791 18 -6
   vertex -15 21 -6.33837
   vertex -14.7708 21 -6
  endloop
 endfacet
 facet normal 0.794265 0.282193 -0.538061
  outer loop
   vertex -14.7708 21 -6
   vertex -15 21 -6.33837
   vertex -15 21.6452 -6
  endloop
 endfacet
 facet normal 0.739085 -0.258984 -0.621836
  outer loop
   vertex -18 15.9829 -9
   vertex -15 18 -6.27444
   vertex -15.8203 15 -6
  endloop
 endfacet
 facet normal 0.781908 -0.26541 -0.564072
  outer loop
   vertex -15.8203 15 -6
   vertex -15 18 -6.27444
   vertex -15 17.4167 -6
  endloop
 endfacet
 facet normal 0.806212 -0.273659 -0.524532
  outer loop
   vertex -15.8203 15 -6
   vertex -15 17.4167 -6
   vertex -15 15 -4.73914
  endloop
 endfacet
 facet normal 0.710471 -0.325511 -0.623918
  outer loop
   vertex -15 15 -4.73914
   vertex -15 17.4167 -6
   vertex -13.4727 15 -3
  endloop
 endfacet
 facet normal 0.604039 -0.103074 -0.790261
  outer loop
   vertex -18 18 -8.36877
   vertex -18.8258 18 -9
   vertex -18 21 -8.76006
  endloop
 endfacet
 facet normal 0.785937 -0.616628 -0.0455243
  outer loop
   vertex -18 21.3498 -9
   vertex -15.9207 24 -9
   vertex -15.7469 24 -6
  endloop
 endfacet
 facet normal -0.684208 -0.569736 0.455258
  outer loop
   vertex -9 24 -6.82383
   vertex -8.45184 24 -6
   vertex -9 24.6583 -6
  endloop
 endfacet
 facet normal -0.752859 -0.626902 0.200492
  outer loop
   vertex -9 24.6583 -6
   vertex -8.45184 24 -6
   vertex -9 25.6177 -3
  endloop
 endfacet
 facet normal -0.673995 -0.703628 0.22503
  outer loop
   vertex -9 24.6583 -6
   vertex -9 25.6177 -3
   vertex -11.4447 27 -6
  endloop
 endfacet
 facet normal -0.656708 -0.727106 0.200126
  outer loop
   vertex -11.4447 27 -6
   vertex -9 25.6177 -3
   vertex -10.5304 27 -3
  endloop
 endfacet
 facet normal -0.615646 -0.765364 0.187613
  outer loop
   vertex -11.4447 27 -6
   vertex -10.5304 27 -3
   vertex -12 28.1821 -3
  endloop
 endfacet
 facet normal -0.626082 -0.778337 0.0470388
  outer loop
   vertex -12 28.1821 -3
   vertex -10.5304 27 -3
   vertex -12 28.3634 0
  endloop
 endfacet
 facet normal -0.218359 -0.974091 0.0588692
  outer loop
   vertex -12 28.1821 -3
   vertex -12 28.3634 0
   vertex -15 28.8546 -3
  endloop
 endfacet
 facet normal -0.621606 -0.579853 0.526665
  outer loop
   vertex -15 28.8546 -3
   vertex -12 28.3634 0
   vertex -15 30 -1.73892
  endloop
 endfacet
 facet normal 0.682858 -0.540784 0.49118
  outer loop
   vertex -15 28.8546 -3
   vertex -15 30 -1.73892
   vertex -18 27 -0.871166
  endloop
 endfacet
 facet normal 0.423851 -0.166323 0.89033
  outer loop
   vertex -18 27 -0.871166
   vertex -15 30 -1.73892
   vertex -18 30 -0.310734
  endloop
 endfacet
 facet normal 0.734858 -0.124544 0.666688
  outer loop
   vertex -18 27 -0.871166
   vertex -18 30 -0.310734
   vertex -18.2819 30 0
  endloop
 endfacet
 facet normal 0.538242 -0.686912 0.488311
  outer loop
   vertex -18.2819 30 0
   vertex -18 30 -0.310734
   vertex -18 30.2209 0
  endloop
 endfacet
 facet normal 0.608934 -0.777131 0.158957
  outer loop
   vertex -18.2819 30 0
   vertex -18 30.2209 0
   vertex -19.065 30 3
  endloop
 endfacet
 facet normal 0.559218 -0.817396 0.138343
  outer loop
   vertex -19.065 30 3
   vertex -18 30.2209 0
   vertex -18 30.7286 3
  endloop
 endfacet
 facet normal 0.555159 -0.811463 -0.182558
  outer loop
   vertex -19.065 30 3
   vertex -18 30.7286 3
   vertex -18.0785 30 6
  endloop
 endfacet
 facet normal 0.503252 -0.842656 -0.191493
  outer loop
   vertex -18.0785 30 6
   vertex -18 30.7286 3
   vertex -18 30.0469 6
  endloop
 endfacet
 facet normal 0.470398 -0.787645 -0.397922
  outer loop
   vertex -18.0785 30 6
   vertex -18 30.0469 6
   vertex -18 30 6.09281
  endloop
 endfacet
 facet normal -0.606971 -0.633657 0.479651
  outer loop
   vertex -11.4447 27 -6
   vertex -12 27 -6.70275
   vertex -9 24.6583 -6
  endloop
 endfacet
 facet normal -0.594064 -0.600408 0.535348
  outer loop
   vertex -9 24.6583 -6
   vertex -12 27 -6.70275
   vertex -12 24.9517 -9
  endloop
 endfacet
 facet normal -0.573819 -0.639808 0.51125
  outer loop
   vertex -9 24.6583 -6
   vertex -12 24.9517 -9
   vertex -9 24 -6.82383
  endloop
 endfacet
 facet normal -0.588648 -0.588648 0.554065
  outer loop
   vertex -9 24 -6.82383
   vertex -12 24.9517 -9
   vertex -11.0483 24 -9
  endloop
 endfacet
 facet normal -0.0855651 -0.778058 0.622337
  outer loop
   vertex -15 25.2816 -9
   vertex -12 24.9517 -9
   vertex -15 27 -6.85161
  endloop
 endfacet
 facet normal -0.0330061 -0.745982 0.665148
  outer loop
   vertex -15 27 -6.85161
   vertex -12 24.9517 -9
   vertex -12 27 -6.70275
  endloop
 endfacet
 facet normal -0.0271274 -0.836903 0.546678
  outer loop
   vertex -15 27 -6.85161
   vertex -12 27 -6.70275
   vertex -12 27.459 -6
  endloop
 endfacet
 facet normal -0.569064 -0.688433 0.449696
  outer loop
   vertex -12 27.459 -6
   vertex -12 27 -6.70275
   vertex -11.4447 27 -6
  endloop
 endfacet
 facet normal -0.626403 -0.7578 0.182641
  outer loop
   vertex -12 27.459 -6
   vertex -11.4447 27 -6
   vertex -12 28.1821 -3
  endloop
 endfacet
 facet normal 0.797352 -0.471298 0.376972
  outer loop
   vertex -15 25.2816 -9
   vertex -15 27 -6.85161
   vertex -15.4026 27 -6
  endloop
 endfacet
 facet normal 0.713744 -0.61376 0.337444
  outer loop
   vertex -15.4026 27 -6
   vertex -15 27 -6.85161
   vertex -15 27.4682 -6
  endloop
 endfacet
 facet normal 0.747309 -0.642622 0.169017
  outer loop
   vertex -15.4026 27 -6
   vertex -15 27.4682 -6
   vertex -16.0811 27 -3
  endloop
 endfacet
 facet normal 0.841436 -0.490512 0.226678
  outer loop
   vertex -16.0811 27 -3
   vertex -15 27.4682 -6
   vertex -15 28.8546 -3
  endloop
 endfacet
 facet normal 0.68163 -0.397354 0.614403
  outer loop
   vertex -16.0811 27 -3
   vertex -15 28.8546 -3
   vertex -18 27 -0.871166
  endloop
 endfacet
 facet normal -0.00267867 -0.876287 0.481782
  outer loop
   vertex -15 27 -6.85161
   vertex -12 27.459 -6
   vertex -15 27.4682 -6
  endloop
 endfacet
 facet normal -0.00277486 -0.907753 0.419496
  outer loop
   vertex -15 27.4682 -6
   vertex -12 27.459 -6
   vertex -15 28.8546 -3
  endloop
 endfacet
 facet normal -0.830933 0.523902 -0.187287
  outer loop
   vertex -24 -7.15484 -6
   vertex -24 -6.08239 -3
   vertex -23.9481 -6 -3
  endloop
 endfacet
 facet normal -0.736725 0.464504 -0.491398
  outer loop
   vertex -23.9481 -6 -3
   vertex -24 -6.08239 -3
   vertex -24 -6 -2.92212
  endloop
 endfacet
 facet normal -0.792122 -0.305599 -0.528348
  outer loop
   vertex -23.9481 -6 -3
   vertex -24 -6 -2.92212
   vertex -24 -5.86535 -3
  endloop
 endfacet
 facet normal 0.134492 -0.496135 -0.857765
  outer loop
   vertex -24 -5.86535 -3
   vertex -24 -6 -2.92212
   vertex -24.4967 -6 -3
  endloop
 endfacet
 facet normal 0.808317 0.426009 -0.406374
  outer loop
   vertex -27 -8.35293 -6
   vertex -28.2401 -6 -6
   vertex -27 -6 -3.53339
  endloop
 endfacet
 facet normal 0.77884 -0.489993 -0.391555
  outer loop
   vertex -27 -6 -3.53339
   vertex -28.2401 -6 -6
   vertex -27 -4.02892 -6
  endloop
 endfacet
 facet normal -0.251805 0.722719 0.64364
  outer loop
   vertex -4.28487 6 -3
   vertex -6 6 -3.671
   vertex -6 5.40242 -3
  endloop
 endfacet
 facet normal -0.065481 0.745179 0.663642
  outer loop
   vertex -6 5.40242 -3
   vertex -6 6 -3.671
   vertex -9 5.13881 -3
  endloop
 endfacet
 facet normal -0.0874727 0.995447 0.0378783
  outer loop
   vertex -6 5.40242 -3
   vertex -9 5.13881 -3
   vertex -9 5.02465 0
  endloop
 endfacet
 facet normal 0.0714635 0.996722 0.0379269
  outer loop
   vertex -9 5.02465 0
   vertex -9 5.13881 -3
   vertex -12 5.23975 0
  endloop
 endfacet
 facet normal 0.0554494 0.773369 -0.631527
  outer loop
   vertex -9 5.02465 0
   vertex -12 5.23975 0
   vertex -12 6 0.931008
  endloop
 endfacet
 facet normal -0.0869035 0.77163 -0.630107
  outer loop
   vertex -12 6 0.931008
   vertex -12 5.23975 0
   vertex -15 6 1.34476
  endloop
 endfacet
 facet normal -0.134767 -0.164384 -0.977147
  outer loop
   vertex -12 6 0.931008
   vertex -15 6 1.34476
   vertex -12 9 0.426322
  endloop
 endfacet
 facet normal 0.175768 -0.444653 -0.878288
  outer loop
   vertex -12 9 0.426322
   vertex -15 6 1.34476
   vertex -15 8.6562 0
  endloop
 endfacet
 facet normal 0.157543 -0.168035 -0.973111
  outer loop
   vertex -12 9 0.426322
   vertex -15 8.6562 0
   vertex -14.6333 9 0
  endloop
 endfacet
 facet normal 0.233121 -0.248646 -0.940122
  outer loop
   vertex -14.6333 9 0
   vertex -15 8.6562 0
   vertex -15 9 -0.0909281
  endloop
 endfacet
 facet normal 0.206821 -0.511434 -0.834063
  outer loop
   vertex -14.6333 9 0
   vertex -15 9 -0.0909281
   vertex -12 12 -1.18657
  endloop
 endfacet
 facet normal 0.313322 -0.586187 -0.747137
  outer loop
   vertex -12 12 -1.18657
   vertex -15 9 -0.0909281
   vertex -15 12 -2.44466
  endloop
 endfacet
 facet normal 0.375203 -0.242359 -0.894698
  outer loop
   vertex -12 12 -1.18657
   vertex -15 12 -2.44466
   vertex -12 15 -1.99923
  endloop
 endfacet
 facet normal -0.140942 0.865495 0.48068
  outer loop
   vertex -9 5.13881 -3
   vertex -6 6 -3.671
   vertex -9 6 -4.55064
  endloop
 endfacet
 facet normal -0.257702 0.401425 0.87889
  outer loop
   vertex -9 6 -4.55064
   vertex -6 6 -3.671
   vertex -6 9 -5.04122
  endloop
 endfacet
 facet normal -0.579154 0.657881 0.481428
  outer loop
   vertex -9 6 -4.55064
   vertex -6 9 -5.04122
   vertex -9 7.06062 -6
  endloop
 endfacet
 facet normal -0.507628 0.725395 0.464882
  outer loop
   vertex -12 4.82946 -6
   vertex -9 6 -4.55064
   vertex -10.3273 6 -6
  endloop
 endfacet
 facet normal -0.541944 0.678215 0.496308
  outer loop
   vertex -10.3273 6 -6
   vertex -9 6 -4.55064
   vertex -9 7.06062 -6
  endloop
 endfacet
 facet normal -0.498908 0.757649 0.420784
  outer loop
   vertex -9 6 -4.55064
   vertex -12 4.82946 -6
   vertex -9 5.13881 -3
  endloop
 endfacet
 facet normal -0.148979 0.987716 0.0471319
  outer loop
   vertex -9 5.13881 -3
   vertex -12 4.82946 -6
   vertex -12 4.68631 -3
  endloop
 endfacet
 facet normal -0.146724 0.972763 -0.179454
  outer loop
   vertex -9 5.13881 -3
   vertex -12 4.68631 -3
   vertex -12 5.23975 0
  endloop
 endfacet
 facet normal -0.0522069 0.982065 -0.18117
  outer loop
   vertex -12 5.23975 0
   vertex -12 4.68631 -3
   vertex -15 5.08027 0
  endloop
 endfacet
 facet normal -0.043837 0.824619 -0.563988
  outer loop
   vertex -12 5.23975 0
   vertex -15 5.08027 0
   vertex -15 6 1.34476
  endloop
 endfacet
 facet normal 0.426723 0.746488 -0.510552
  outer loop
   vertex -15 6 1.34476
   vertex -15 5.08027 0
   vertex -16.6089 6 0
  endloop
 endfacet
 facet normal 0.597786 -0.362096 -0.715219
  outer loop
   vertex -15 6 1.34476
   vertex -16.6089 6 0
   vertex -15 8.6562 0
  endloop
 endfacet
 facet normal 0.388893 -0.235564 -0.890658
  outer loop
   vertex -15 8.6562 0
   vertex -16.6089 6 0
   vertex -15 9 -0.0909281
  endloop
 endfacet
 facet normal -0.615821 0.67021 -0.414225
  outer loop
   vertex -12 4.82946 -6
   vertex -15 3 -4.5
   vertex -15 3.92708 -3
  endloop
 endfacet
 facet normal -0.134914 0.842867 -0.520936
  outer loop
   vertex -15 3.92708 -3
   vertex -15 3 -4.5
   vertex -18 3 -3.72305
  endloop
 endfacet
 facet normal 0.00587425 0.603094 -0.797648
  outer loop
   vertex -15 3.92708 -3
   vertex -18 3 -3.72305
   vertex -18 3.9563 -3
  endloop
 endfacet
 facet normal -0.24508 0.968401 0.0462102
  outer loop
   vertex -12 4.82946 -6
   vertex -15 3.92708 -3
   vertex -12 4.68631 -3
  endloop
 endfacet
 facet normal -0.229898 0.908412 -0.34919
  outer loop
   vertex -12 4.68631 -3
   vertex -15 3.92708 -3
   vertex -15 5.08027 0
  endloop
 endfacet
 facet normal -0.686577 0.239213 0.686577
  outer loop
   vertex -2.40242 9 -3
   vertex -3 9 -3.59758
   vertex -3 7.28487 -3
  endloop
 endfacet
 facet normal -0.312533 0.312534 0.89702
  outer loop
   vertex -3 7.28487 -3
   vertex -3 9 -3.59758
   vertex -4.28487 6 -3
  endloop
 endfacet
 facet normal -0.618326 0.618327 0.485124
  outer loop
   vertex -3 7.28487 -3
   vertex -4.28487 6 -3
   vertex -3 6 -1.36234
  endloop
 endfacet
 facet normal -0.318573 0.914352 0.249945
  outer loop
   vertex -3 6 -1.36234
   vertex -4.28487 6 -3
   vertex -6 5.40242 -3
  endloop
 endfacet
 facet normal -0.326761 0.906353 0.267863
  outer loop
   vertex -3 6 -1.36234
   vertex -6 5.40242 -3
   vertex -3 5.59737 0
  endloop
 endfacet
 facet normal -0.280146 0.934545 0.219417
  outer loop
   vertex -3 5.59737 0
   vertex -6 5.40242 -3
   vertex -6 4.69807 0
  endloop
 endfacet
 facet normal -0.28051 0.935758 -0.213706
  outer loop
   vertex -3 5.59737 0
   vertex -6 4.69807 0
   vertex -6 5.3832 3
  endloop
 endfacet
 facet normal 0.105535 0.969455 -0.221401
  outer loop
   vertex -6 5.3832 3
   vertex -6 4.69807 0
   vertex -9 5.02465 0
  endloop
 endfacet
 facet normal 0.426903 0.742847 -0.515686
  outer loop
   vertex -6 5.3832 3
   vertex -9 5.02465 0
   vertex -9 6 1.40499
  endloop
 endfacet
 facet normal 0.0897353 0.818149 -0.56796
  outer loop
   vertex -9 6 1.40499
   vertex -9 5.02465 0
   vertex -12 6 0.931008
  endloop
 endfacet
 facet normal 0.153949 -0.16392 -0.974387
  outer loop
   vertex -9 6 1.40499
   vertex -12 6 0.931008
   vertex -12 9 0.426322
  endloop
 endfacet
 facet normal -0.344777 0.323209 0.881286
  outer loop
   vertex -4.28487 6 -3
   vertex -3 9 -3.59758
   vertex -6 6 -3.671
  endloop
 endfacet
 facet normal -0.400987 0.380594 0.833281
  outer loop
   vertex -6 6 -3.671
   vertex -3 9 -3.59758
   vertex -6 9 -5.04122
  endloop
 endfacet
 facet normal 0.855351 -0.508409 -0.0994758
  outer loop
   vertex -18 6.83391 -3
   vertex -18.4957 6 -3
   vertex -18 7.42089 -6
  endloop
 endfacet
 facet normal -0.753354 0.12802 0.645034
  outer loop
   vertex -7.10738 9 -6
   vertex -6 12 -5.30207
   vertex -6.59758 12 -6
  endloop
 endfacet
 facet normal -0.759604 0 0.650386
  outer loop
   vertex -6.59758 12 -6
   vertex -6 12 -5.30207
   vertex -6 15 -5.30207
  endloop
 endfacet
 facet normal -0.759604 0 0.650386
  outer loop
   vertex -6.59758 12 -6
   vertex -6 15 -5.30207
   vertex -6.59758 15 -6
  endloop
 endfacet
 facet normal -0.759319 -0.0274134 0.650141
  outer loop
   vertex -6.59758 15 -6
   vertex -6 15 -5.30207
   vertex -6 18 -5.17558
  endloop
 endfacet
 facet normal -0.772478 -0.0205511 0.634709
  outer loop
   vertex -6.59758 15 -6
   vertex -6 18 -5.17558
   vertex -6.67739 18 -6
  endloop
 endfacet
 facet normal -0.754535 -0.21522 0.619966
  outer loop
   vertex -6.67739 18 -6
   vertex -6 18 -5.17558
   vertex -6 21 -4.13413
  endloop
 endfacet
 facet normal -0.848239 -0.128089 0.513892
  outer loop
   vertex -6.67739 18 -6
   vertex -6 21 -4.13413
   vertex -7.1304 21 -6
  endloop
 endfacet
 facet normal -0.741124 -0.499136 0.448998
  outer loop
   vertex -7.1304 21 -6
   vertex -6 21 -4.13413
   vertex -6 22.0202 -3
  endloop
 endfacet
 facet normal -0.689666 -0.565574 0.452202
  outer loop
   vertex -7.1304 21 -6
   vertex -6 22.0202 -3
   vertex -7.62357 24 -3
  endloop
 endfacet
 facet normal -0.762875 -0.625612 0.163192
  outer loop
   vertex -7.62357 24 -3
   vertex -6 22.0202 -3
   vertex -6 22.8028 0
  endloop
 endfacet
 facet normal -0.645396 -0.762523 0.0449753
  outer loop
   vertex -7.62357 24 -3
   vertex -6 22.8028 0
   vertex -7.41451 24 0
  endloop
 endfacet
 facet normal -0.633651 -0.748646 -0.194975
  outer loop
   vertex -7.41451 24 0
   vertex -6 22.8028 0
   vertex -6 22.0215 3
  endloop
 endfacet
 facet normal -0.700939 -0.70094 -0.131786
  outer loop
   vertex -7.41451 24 0
   vertex -6 22.0215 3
   vertex -7.97855 24 3
  endloop
 endfacet
 facet normal -0.616013 -0.616013 -0.490974
  outer loop
   vertex -7.97855 24 3
   vertex -6 22.0215 3
   vertex -6 21 4.28159
  endloop
 endfacet
 facet normal -0.630498 -0.617004 -0.470933
  outer loop
   vertex -7.97855 24 3
   vertex -6 21 4.28159
   vertex -9 24 4.36755
  endloop
 endfacet
 facet normal 0.155817 0.183626 -0.970568
  outer loop
   vertex -9 24 4.36755
   vertex -6 21 4.28159
   vertex -9 21 3.79996
  endloop
 endfacet
 facet normal 0.152849 0.183712 -0.971024
  outer loop
   vertex -9 24 4.36755
   vertex -9 21 3.79996
   vertex -12 24 3.89532
  endloop
 endfacet
 facet normal 0.629126 0.643007 -0.43674
  outer loop
   vertex -12 24 3.89532
   vertex -9 21 3.79996
   vertex -9.55534 21 3
  endloop
 endfacet
 facet normal 0.690507 0.654554 -0.30783
  outer loop
   vertex -12 24 3.89532
   vertex -9.55534 21 3
   vertex -12 23.5789 3
  endloop
 endfacet
 facet normal -0.707107 0 0.707107
  outer loop
   vertex -2.40242 12 -3
   vertex -3 15 -3.59758
   vertex -3 12 -3.59758
  endloop
 endfacet
 facet normal -0.493999 0 0.869462
  outer loop
   vertex -3 12 -3.59758
   vertex -3 15 -3.59758
   vertex -6 15 -5.30207
  endloop
 endfacet
 facet normal -0.493999 0 0.869462
  outer loop
   vertex -3 12 -3.59758
   vertex -6 15 -5.30207
   vertex -6 12 -5.30207
  endloop
 endfacet
 facet normal -0.707107 0 0.707107
  outer loop
   vertex -2.40242 12 -3
   vertex -2.40242 15 -3
   vertex -3 15 -3.59758
  endloop
 endfacet
 facet normal -0.702597 -0.112766 0.702597
  outer loop
   vertex -3 15 -3.59758
   vertex -2.40242 15 -3
   vertex -3 18 -3.11608
  endloop
 endfacet
 facet normal -0.561078 -0.131176 0.817303
  outer loop
   vertex -3 15 -3.59758
   vertex -3 18 -3.11608
   vertex -6 18 -5.17558
  endloop
 endfacet
 facet normal -0.544123 -0.275151 0.792605
  outer loop
   vertex -6 18 -5.17558
   vertex -3 18 -3.11608
   vertex -6 21 -4.13413
  endloop
 endfacet
 facet normal -0.702597 -0.112766 0.702597
  outer loop
   vertex -2.40242 15 -3
   vertex -2.88392 18 -3
   vertex -3 18 -3.11608
  endloop
 endfacet
 facet normal -0.65169 -0.388073 0.65169
  outer loop
   vertex -3 18 -3.11608
   vertex -2.88392 18 -3
   vertex -3 18.1949 -3
  endloop
 endfacet
 facet normal -0.626221 -0.3989 0.66987
  outer loop
   vertex -3 18 -3.11608
   vertex -3 18.1949 -3
   vertex -6 21 -4.13413
  endloop
 endfacet
 facet normal -0.661247 -0.47119 0.583723
  outer loop
   vertex -6 21 -4.13413
   vertex -3 18.1949 -3
   vertex -4.99883 21 -3
  endloop
 endfacet
 facet normal -0.60387 -0.5926 0.533073
  outer loop
   vertex -6 21 -4.13413
   vertex -4.99883 21 -3
   vertex -6 22.0202 -3
  endloop
 endfacet
 facet normal -0.702113 -0.68901 0.179729
  outer loop
   vertex -6 22.0202 -3
   vertex -4.99883 21 -3
   vertex -6 22.8028 0
  endloop
 endfacet
 facet normal -0.493668 -0.0366365 0.868879
  outer loop
   vertex -6 15 -5.30207
   vertex -3 15 -3.59758
   vertex -6 18 -5.17558
  endloop
 endfacet
 facet normal 0.744052 -0.281787 -0.605791
  outer loop
   vertex -15 17.4167 -6
   vertex -14.7791 18 -6
   vertex -13.4727 15 -3
  endloop
 endfacet
 facet normal 0.821917 -0.181878 -0.539789
  outer loop
   vertex -13.4727 15 -3
   vertex -14.7791 18 -6
   vertex -12.8089 18 -3
  endloop
 endfacet
 facet normal 0.835856 -0.00232099 -0.548943
  outer loop
   vertex -14.7791 18 -6
   vertex -14.7708 21 -6
   vertex -12.8089 18 -3
  endloop
 endfacet
 facet normal 0.855656 0.04389 -0.51568
  outer loop
   vertex -12.8089 18 -3
   vertex -14.7708 21 -6
   vertex -12.9628 21 -3
  endloop
 endfacet
 facet normal 0.729362 0.493065 -0.474256
  outer loop
   vertex -14.0246 24 -3
   vertex -15 24 -4.5
   vertex -15 25.4428 -3
  endloop
 endfacet
 facet normal 0.81218 0.420472 -0.404433
  outer loop
   vertex -15 25.4428 -3
   vertex -15 24 -4.5
   vertex -15.7469 24 -6
  endloop
 endfacet
 facet normal -0.212929 -0.949869 0.228933
  outer loop
   vertex -12 27.459 -6
   vertex -12 28.1821 -3
   vertex -15 28.8546 -3
  endloop
 endfacet
 facet normal 0.113211 0.682524 -0.722042
  outer loop
   vertex -24 -6.08239 -3
   vertex -24.4967 -6 -3
   vertex -24 -6 -2.92212
  endloop
 endfacet
 facet normal -0.705198 0.679938 0.200948
  outer loop
   vertex -3 6 -1.36234
   vertex -3 5.59737 0
   vertex -2.6118 6 0
  endloop
 endfacet
 facet normal -0.699034 0.673995 -0.238919
  outer loop
   vertex -2.6118 6 0
   vertex -3 5.59737 0
   vertex -3 6 1.13582
  endloop
 endfacet
 facet normal -0.925775 0.206933 -0.316415
  outer loop
   vertex -2.6118 6 0
   vertex -3 6 1.13582
   vertex -1.94123 9 0
  endloop
 endfacet
 facet normal -0.883758 0.143238 -0.445483
  outer loop
   vertex -1.94123 9 0
   vertex -3 6 1.13582
   vertex -3 9 2.10042
  endloop
 endfacet
 facet normal 0.105388 0.968106 0.227296
  outer loop
   vertex -6 5.40242 -3
   vertex -9 5.02465 0
   vertex -6 4.69807 0
  endloop
 endfacet
 facet normal 0.441466 0.772278 -0.456831
  outer loop
   vertex -15 5.08027 0
   vertex -18 6 -1.34427
   vertex -16.6089 6 0
  endloop
 endfacet
 facet normal 0.64643 -0.366963 -0.668929
  outer loop
   vertex -16.6089 6 0
   vertex -18 6 -1.34427
   vertex -15 9 -0.0909281
  endloop
 endfacet
 facet normal 0.475937 0.55363 -0.683358
  outer loop
   vertex -18 6 -1.34427
   vertex -15 5.08027 0
   vertex -18 3.9563 -3
  endloop
 endfacet
 facet normal 0.00909126 0.933376 -0.358786
  outer loop
   vertex -18 3.9563 -3
   vertex -15 5.08027 0
   vertex -15 3.92708 -3
  endloop
 endfacet
 facet normal -0.907926 0.329753 0.258716
  outer loop
   vertex -3 6 -1.36234
   vertex -2.6118 6 0
   vertex -3 7.28487 -3
  endloop
 endfacet
 facet normal -0.913243 0.318186 0.25445
  outer loop
   vertex -3 7.28487 -3
   vertex -2.6118 6 0
   vertex -2.40242 9 -3
  endloop
 endfacet
 facet normal -0.965116 0.215726 0.14837
  outer loop
   vertex -2.40242 9 -3
   vertex -2.6118 6 0
   vertex -1.94123 9 0
  endloop
 endfacet
 facet normal 0.719374 -0.53356 -0.444764
  outer loop
   vertex -18 6 -1.34427
   vertex -16.7986 9 -3
   vertex -15 9 -0.0909281
  endloop
 endfacet
 facet normal 0.786269 -0.381401 -0.486122
  outer loop
   vertex -15 9 -0.0909281
   vertex -16.7986 9 -3
   vertex -15 12 -2.44466
  endloop
 endfacet
 facet normal 0.664296 -0.278824 -0.693518
  outer loop
   vertex -9 10.8642 0
   vertex -9 12 -0.456647
   vertex -8.52326 12 0
  endloop
 endfacet
 facet normal 0.690565 -0.0579826 -0.720943
  outer loop
   vertex -8.52326 12 0
   vertex -9 12 -0.456647
   vertex -9 15 -0.697925
  endloop
 endfacet
 facet normal 0.706148 -0.0520644 -0.706148
  outer loop
   vertex -8.52326 12 0
   vertex -9 15 -0.697925
   vertex -8.30207 15 0
  endloop
 endfacet
 facet normal 0.693723 0.193638 -0.693724
  outer loop
   vertex -8.30207 15 0
   vertex -9 15 -0.697925
   vertex -9 17.5004 0
  endloop
 endfacet
 facet normal 0.856285 0.239014 -0.457873
  outer loop
   vertex -8.30207 15 0
   vertex -9 17.5004 0
   vertex -9 18 0.260809
  endloop
 endfacet
 facet normal 0.816797 0.266974 -0.511436
  outer loop
   vertex -9 18 0.260809
   vertex -9 17.5004 0
   vertex -9.16331 18 0
  endloop
 endfacet
 facet normal 0.211298 -0.448527 -0.868434
  outer loop
   vertex -12 12 -1.18657
   vertex -9 12 -0.456647
   vertex -12 9.70256 0
  endloop
 endfacet
 facet normal 0.142953 -0.369193 -0.918293
  outer loop
   vertex -12 9.70256 0
   vertex -9 12 -0.456647
   vertex -9 10.8642 0
  endloop
 endfacet
 facet normal 0.166559 -0.430156 -0.887256
  outer loop
   vertex -12 9.70256 0
   vertex -9 10.8642 0
   vertex -9 9 0.903786
  endloop
 endfacet
 facet normal 0.72062 -0.302466 -0.623876
  outer loop
   vertex -9 9 0.903786
   vertex -9 10.8642 0
   vertex -7.1852 9 3
  endloop
 endfacet
 facet normal 0.755819 0.0237601 -0.65435
  outer loop
   vertex -9 9 0.903786
   vertex -7.1852 9 3
   vertex -7.09089 6 3
  endloop
 endfacet
 facet normal 0.825811 0.0259604 -0.563349
  outer loop
   vertex -7.09089 6 3
   vertex -7.1852 9 3
   vertex -6 9 4.73738
  endloop
 endfacet
 facet normal 0.619434 0.212436 -0.75576
  outer loop
   vertex -7.09089 6 3
   vertex -6 9 4.73738
   vertex -6 6 3.89412
  endloop
 endfacet
 facet normal -0.661034 0.203048 -0.722361
  outer loop
   vertex -6 6 3.89412
   vertex -6 9 4.73738
   vertex -4.10143 9 3
  endloop
 endfacet
 facet normal -0.551652 0.102411 -0.827764
  outer loop
   vertex -6 6 3.89412
   vertex -4.10143 9 3
   vertex -4.65836 6 3
  endloop
 endfacet
 facet normal -0.740063 0.137389 -0.658354
  outer loop
   vertex -4.65836 6 3
   vertex -4.10143 9 3
   vertex -3 6 1.13582
  endloop
 endfacet
 facet normal -0.351598 0.882354 -0.312778
  outer loop
   vertex -4.65836 6 3
   vertex -3 6 1.13582
   vertex -3 5.59737 0
  endloop
 endfacet
 facet normal 0.121523 -0.455486 -0.881909
  outer loop
   vertex -12 12 -1.18657
   vertex -12 9.70256 0
   vertex -14.6333 9 0
  endloop
 endfacet
 facet normal 0.1371 -0.513871 -0.846841
  outer loop
   vertex -14.6333 9 0
   vertex -12 9.70256 0
   vertex -12 9 0.426322
  endloop
 endfacet
 facet normal -0.994971 0 0.100162
  outer loop
   vertex -2.40242 12 -3
   vertex -2.10042 12 0
   vertex -2.40242 15 -3
  endloop
 endfacet
 facet normal -0.994971 0 0.100162
  outer loop
   vertex -2.40242 15 -3
   vertex -2.10042 12 0
   vertex -2.10042 15 0
  endloop
 endfacet
 facet normal -0.982522 -0.157694 0.0989087
  outer loop
   vertex -2.40242 15 -3
   vertex -2.10042 15 0
   vertex -2.88392 18 -3
  endloop
 endfacet
 facet normal -0.978261 -0.0557413 0.199748
  outer loop
   vertex -2.88392 18 -3
   vertex -2.10042 15 0
   vertex -2.27136 18 0
  endloop
 endfacet
 facet normal -0.903686 -0.386398 0.184521
  outer loop
   vertex -2.88392 18 -3
   vertex -2.27136 18 0
   vertex -3 19.7041 0
  endloop
 endfacet
 facet normal -0.819364 -0.350344 -0.453765
  outer loop
   vertex -3 19.7041 0
   vertex -2.27136 18 0
   vertex -3 18 1.31571
  endloop
 endfacet
 facet normal -0.677372 -0.44957 -0.582283
  outer loop
   vertex -3 19.7041 0
   vertex -3 18 1.31571
   vertex -3.86008 21 0
  endloop
 endfacet
 facet normal -0.650115 -0.453698 -0.609514
  outer loop
   vertex -3.86008 21 0
   vertex -3 18 1.31571
   vertex -4.57911 18 3
  endloop
 endfacet
 facet normal -0.909651 -0.163726 -0.381746
  outer loop
   vertex -3.86008 21 0
   vertex -4.57911 18 3
   vertex -5.11907 21 3
  endloop
 endfacet
 facet normal -0.766683 -0.137993 -0.62702
  outer loop
   vertex -5.11907 21 3
   vertex -4.57911 18 3
   vertex -6 18 4.73738
  endloop
 endfacet
 facet normal -0.821056 -0.0857455 -0.564371
  outer loop
   vertex -5.11907 21 3
   vertex -6 18 4.73738
   vertex -6 21 4.28159
  endloop
 endfacet
 facet normal 0.156759 -0.14835 -0.976432
  outer loop
   vertex -6 21 4.28159
   vertex -6 18 4.73738
   vertex -9 21 3.79996
  endloop
 endfacet
 facet normal 0.228625 -0.254536 -0.93965
  outer loop
   vertex -12 12 -1.18657
   vertex -12 15 -1.99923
   vertex -9 12 -0.456647
  endloop
 endfacet
 facet normal 0.396863 -0.0735837 -0.914923
  outer loop
   vertex -9 12 -0.456647
   vertex -12 15 -1.99923
   vertex -9 15 -0.697925
  endloop
 endfacet
 facet normal 0.594636 0.19436 -0.780149
  outer loop
   vertex -9.16331 18 0
   vertex -9 17.5004 0
   vertex -12 18 -2.16215
  endloop
 endfacet
 facet normal 0.5943 0.216222 -0.774632
  outer loop
   vertex -12 18 -2.16215
   vertex -9 17.5004 0
   vertex -9 15 -0.697925
  endloop
 endfacet
 facet normal 0.397449 -0.0497611 -0.916274
  outer loop
   vertex -12 18 -2.16215
   vertex -9 15 -0.697925
   vertex -12 15 -1.99923
  endloop
 endfacet
 facet normal -0.832079 -0.495493 0.249261
  outer loop
   vertex -2.88392 18 -3
   vertex -3 19.7041 0
   vertex -3 18.1949 -3
  endloop
 endfacet
 facet normal -0.781759 -0.557064 0.280235
  outer loop
   vertex -3 18.1949 -3
   vertex -3 19.7041 0
   vertex -4.99883 21 -3
  endloop
 endfacet
 facet normal -0.794408 -0.527246 0.301543
  outer loop
   vertex -3 19.7041 0
   vertex -3.86008 21 0
   vertex -4.99883 21 -3
  endloop
 endfacet
 facet normal -0.625844 -0.742889 0.237559
  outer loop
   vertex -4.99883 21 -3
   vertex -3.86008 21 0
   vertex -6 22.8028 0
  endloop
 endfacet
 facet normal 0.598899 0.154684 -0.785743
  outer loop
   vertex -12 18 -2.16215
   vertex -12 21 -1.57156
   vertex -9.16331 18 0
  endloop
 endfacet
 facet normal 0.708077 0.34752 -0.6147
  outer loop
   vertex -9.16331 18 0
   vertex -12 21 -1.57156
   vertex -10.6357 21 0
  endloop
 endfacet
 facet normal 0.684396 0.422607 -0.594142
  outer loop
   vertex -12 21 -1.57156
   vertex -12 23.2094 0
   vertex -10.6357 21 0
  endloop
 endfacet
 facet normal -0.774469 -0.630305 0.0539699
  outer loop
   vertex -7.62357 24 -3
   vertex -7.41451 24 0
   vertex -9 25.9481 0
  endloop
 endfacet
 facet normal -0.762181 -0.620304 -0.185213
  outer loop
   vertex -9 25.9481 0
   vertex -7.41451 24 0
   vertex -9 25.0524 3
  endloop
 endfacet
 facet normal -0.669593 -0.711681 -0.212497
  outer loop
   vertex -9 25.9481 0
   vertex -9 25.0524 3
   vertex -10.118 27 0
  endloop
 endfacet
 facet normal -0.635813 -0.733769 -0.239425
  outer loop
   vertex -10.118 27 0
   vertex -9 25.0524 3
   vertex -11.2477 27 3
  endloop
 endfacet
 facet normal -0.595579 -0.771354 -0.224274
  outer loop
   vertex -10.118 27 0
   vertex -11.2477 27 3
   vertex -12 27.5809 3
  endloop
 endfacet
 facet normal -0.538124 -0.696942 -0.474019
  outer loop
   vertex -12 27.5809 3
   vertex -11.2477 27 3
   vertex -12 27 3.85406
  endloop
 endfacet
 facet normal -0.519153 -0.706713 -0.480664
  outer loop
   vertex -12 27.5809 3
   vertex -12 27 3.85406
   vertex -13.9868 27 6
  endloop
 endfacet
 facet normal -0.53121 0.689871 -0.491827
  outer loop
   vertex -13.9868 27 6
   vertex -12 27 3.85406
   vertex -15 26.2199 6
  endloop
 endfacet
 facet normal -0.545567 0.708515 -0.44762
  outer loop
   vertex -13.9868 27 6
   vertex -15 26.2199 6
   vertex -15 27 7.23485
  endloop
 endfacet
 facet normal 0.5312 0.810512 -0.246773
  outer loop
   vertex -12.631 24 0
   vertex -14.0246 24 -3
   vertex -15 25.5526 0
  endloop
 endfacet
 facet normal 0.828282 0.559937 -0.0205026
  outer loop
   vertex -15 25.5526 0
   vertex -14.0246 24 -3
   vertex -15 25.4428 -3
  endloop
 endfacet
 facet normal 0.540536 0.685882 0.487224
  outer loop
   vertex -16.0811 27 -3
   vertex -18 27 -0.871166
   vertex -18 26.3812 0
  endloop
 endfacet
 facet normal 0.44429 0.730363 0.518822
  outer loop
   vertex -18 26.3812 0
   vertex -18 27 -0.871166
   vertex -19.0173 27 0
  endloop
 endfacet
 facet normal 0.511134 0.840247 0.180909
  outer loop
   vertex -18 26.3812 0
   vertex -19.0173 27 0
   vertex -18 25.7352 3
  endloop
 endfacet
 facet normal 0.452744 0.866161 0.211634
  outer loop
   vertex -18 25.7352 3
   vertex -19.0173 27 0
   vertex -20.4196 27 3
  endloop
 endfacet
 facet normal 0.463191 0.886148 -0.0139633
  outer loop
   vertex -18 25.7352 3
   vertex -20.4196 27 3
   vertex -18 25.7825 6
  endloop
 endfacet
 facet normal 0.433811 0.900867 0.0157065
  outer loop
   vertex -18 25.7825 6
   vertex -20.4196 27 3
   vertex -20.5283 27 6
  endloop
 endfacet
 facet normal 0.403328 0.837563 -0.36853
  outer loop
   vertex -18 25.7825 6
   vertex -20.5283 27 6
   vertex -18 27 8.76699
  endloop
 endfacet
 facet normal 0.632673 -0.515304 -0.578088
  outer loop
   vertex -18 27 8.76699
   vertex -20.5283 27 6
   vertex -18 30 6.09281
  endloop
 endfacet
 facet normal -0.602165 -0.704276 0.376024
  outer loop
   vertex -12 28.3634 0
   vertex -13.9141 30 0
   vertex -15 30 -1.73892
  endloop
 endfacet
 facet normal -0.491877 -0.814686 0.307154
  outer loop
   vertex -15 30 -1.73892
   vertex -13.9141 30 0
   vertex -15 30.6556 0
  endloop
 endfacet
 facet normal 0.165626 -0.922782 0.347909
  outer loop
   vertex -15 30 -1.73892
   vertex -15 30.6556 0
   vertex -18 30 -0.310734
  endloop
 endfacet
 facet normal 0.117289 -0.809419 0.575399
  outer loop
   vertex -18 30 -0.310734
   vertex -15 30.6556 0
   vertex -18 30.2209 0
  endloop
 endfacet
 facet normal 0.642328 -0.157456 0.750082
  outer loop
   vertex -18 27 -0.871166
   vertex -18.2819 30 0
   vertex -19.0173 27 0
  endloop
 endfacet
 facet normal 0.884368 -0.216788 0.413395
  outer loop
   vertex -19.0173 27 0
   vertex -18.2819 30 0
   vertex -20.4196 27 3
  endloop
 endfacet
 facet normal -0.393906 0.85681 -0.332738
  outer loop
   vertex -3 5.59737 0
   vertex -6 5.3832 3
   vertex -4.65836 6 3
  endloop
 endfacet
 facet normal -0.353932 0.76986 -0.531082
  outer loop
   vertex -4.65836 6 3
   vertex -6 5.3832 3
   vertex -6 6 3.89412
  endloop
 endfacet
 facet normal 0.424067 0.750022 -0.507577
  outer loop
   vertex -6 5.3832 3
   vertex -9 6 1.40499
   vertex -7.09089 6 3
  endloop
 endfacet
 facet normal 0.635947 -0.127171 -0.761183
  outer loop
   vertex -7.09089 6 3
   vertex -9 6 1.40499
   vertex -9 9 0.903786
  endloop
 endfacet
 facet normal -0.613821 0.24165 -0.751551
  outer loop
   vertex -3 6 1.13582
   vertex -4.10143 9 3
   vertex -3 9 2.10042
  endloop
 endfacet
 facet normal -0.623834 -0.165601 -0.763811
  outer loop
   vertex -3 9 2.10042
   vertex -4.10143 9 3
   vertex -4.8978 12 3
  endloop
 endfacet
 facet normal 0.15508 -0.162792 -0.974397
  outer loop
   vertex -9 6 1.40499
   vertex -12 9 0.426322
   vertex -9 9 0.903786
  endloop
 endfacet
 facet normal 0.134821 -0.514033 -0.847109
  outer loop
   vertex -9 9 0.903786
   vertex -12 9 0.426322
   vertex -12 9.70256 0
  endloop
 endfacet
 facet normal 0.72062 -0.302465 -0.623876
  outer loop
   vertex -9 10.8642 0
   vertex -8.52326 12 0
   vertex -7.1852 9 3
  endloop
 endfacet
 facet normal 0.850708 -0.129902 -0.509335
  outer loop
   vertex -7.1852 9 3
   vertex -8.52326 12 0
   vertex -6.72711 12 3
  endloop
 endfacet
 facet normal 0.865923 -0.132225 -0.482383
  outer loop
   vertex -7.1852 9 3
   vertex -6.72711 12 3
   vertex -6 12 4.30523
  endloop
 endfacet
 facet normal -0.857599 0 -0.514319
  outer loop
   vertex -2.10042 15 0
   vertex -3 12 1.5
   vertex -3 15 1.5
  endloop
 endfacet
 facet normal -0.620086 0 -0.784534
  outer loop
   vertex -3 15 1.5
   vertex -3 12 1.5
   vertex -4.8978 15 3
  endloop
 endfacet
 facet normal -0.618745 0.0657301 -0.782837
  outer loop
   vertex -3 15 1.5
   vertex -4.8978 15 3
   vertex -4.57911 18 3
  endloop
 endfacet
 facet normal -0.761523 0.0808975 -0.643069
  outer loop
   vertex -4.57911 18 3
   vertex -4.8978 15 3
   vertex -6 15 4.30523
  endloop
 endfacet
 facet normal -0.77089 0.0908198 -0.63046
  outer loop
   vertex -4.57911 18 3
   vertex -6 15 4.30523
   vertex -6 18 4.73738
  endloop
 endfacet
 facet normal 0.879819 0.0677703 -0.470454
  outer loop
   vertex -6 18 4.73738
   vertex -6 15 4.30523
   vertex -6.69793 15 3
  endloop
 endfacet
 facet normal 0.796894 0.153057 -0.584409
  outer loop
   vertex -6 18 4.73738
   vertex -6.69793 15 3
   vertex -7.27413 18 3
  endloop
 endfacet
 facet normal -0.857599 0 -0.514319
  outer loop
   vertex -2.10042 12 0
   vertex -3 12 1.5
   vertex -2.10042 15 0
  endloop
 endfacet
 facet normal 0.856266 -0.0631326 -0.512663
  outer loop
   vertex -8.52326 12 0
   vertex -8.30207 15 0
   vertex -6.72711 12 3
  endloop
 endfacet
 facet normal -0.874421 -0.0297486 -0.484256
  outer loop
   vertex -2.27136 18 0
   vertex -3 15 1.5
   vertex -3 18 1.31571
  endloop
 endfacet
 facet normal -0.728877 -0.0419797 -0.683357
  outer loop
   vertex -3 18 1.31571
   vertex -3 15 1.5
   vertex -4.57911 18 3
  endloop
 endfacet
 facet normal -0.856577 -0.0488077 -0.513706
  outer loop
   vertex -2.10042 15 0
   vertex -3 15 1.5
   vertex -2.27136 18 0
  endloop
 endfacet
 facet normal -0.721707 -0.622421 -0.302873
  outer loop
   vertex -3.86008 21 0
   vertex -5.11907 21 3
   vertex -6 22.0215 3
  endloop
 endfacet
 facet normal -0.671721 -0.579312 -0.461723
  outer loop
   vertex -6 22.0215 3
   vertex -5.11907 21 3
   vertex -6 21 4.28159
  endloop
 endfacet
 facet normal -0.631876 -0.750049 -0.195341
  outer loop
   vertex -6 22.8028 0
   vertex -3.86008 21 0
   vertex -6 22.0215 3
  endloop
 endfacet
 facet normal 0.600449 0.799539 -0.0140725
  outer loop
   vertex -12.631 24 0
   vertex -12.5607 24 3
   vertex -12 23.5789 3
  endloop
 endfacet
 facet normal 0.562079 0.748447 -0.351986
  outer loop
   vertex -12 23.5789 3
   vertex -12.5607 24 3
   vertex -12 24 3.89532
  endloop
 endfacet
 facet normal -0.711128 -0.690233 -0.133701
  outer loop
   vertex -7.41451 24 0
   vertex -7.97855 24 3
   vertex -9 25.0524 3
  endloop
 endfacet
 facet normal -0.632457 -0.613873 -0.472397
  outer loop
   vertex -9 25.0524 3
   vertex -7.97855 24 3
   vertex -9 24 4.36755
  endloop
 endfacet
 facet normal -0.566086 -0.6533 -0.502737
  outer loop
   vertex -9 25.0524 3
   vertex -9 24 4.36755
   vertex -11.2477 27 3
  endloop
 endfacet
 facet normal -0.567942 -0.653573 -0.500284
  outer loop
   vertex -11.2477 27 3
   vertex -9 24 4.36755
   vertex -12 27 3.85406
  endloop
 endfacet
 facet normal 0.515418 0.856854 -0.0120796
  outer loop
   vertex -12.5607 24 3
   vertex -12.631 24 0
   vertex -15 25.4673 3
  endloop
 endfacet
 facet normal 0.547997 0.836142 0.0237776
  outer loop
   vertex -15 25.4673 3
   vertex -12.631 24 0
   vertex -15 25.5526 0
  endloop
 endfacet
 facet normal 0.886648 -0.400356 0.231452
  outer loop
   vertex -18.2819 30 0
   vertex -19.065 30 3
   vertex -20.4196 27 3
  endloop
 endfacet
 facet normal 0.9109 -0.411307 0.03298
  outer loop
   vertex -20.4196 27 3
   vertex -19.065 30 3
   vertex -20.5283 27 6
  endloop
 endfacet
 facet normal -0.51575 -0.854225 -0.0655828
  outer loop
   vertex -13.9141 30 0
   vertex -15 30.4253 3
   vertex -15 30.6556 0
  endloop
 endfacet
 facet normal -0.100312 -0.992037 -0.0761632
  outer loop
   vertex -15 30.6556 0
   vertex -15 30.4253 3
   vertex -18 30.7286 3
  endloop
 endfacet
 facet normal 0.141437 -0.976066 0.165197
  outer loop
   vertex -15 30.6556 0
   vertex -18 30.7286 3
   vertex -18 30.2209 0
  endloop
 endfacet
 facet normal 0.421949 0.746276 -0.514812
  outer loop
   vertex -6 5.3832 3
   vertex -7.09089 6 3
   vertex -6 6 3.89412
  endloop
 endfacet
 facet normal -0.760749 -0.0925419 -0.642415
  outer loop
   vertex -4.8978 12 3
   vertex -6 9 4.73738
   vertex -6 12 4.30523
  endloop
 endfacet
 facet normal 0.823381 -0.0809134 -0.561691
  outer loop
   vertex -6 12 4.30523
   vertex -6 9 4.73738
   vertex -7.1852 9 3
  endloop
 endfacet
 facet normal -0.664511 -0.176399 -0.726161
  outer loop
   vertex -4.10143 9 3
   vertex -6 9 4.73738
   vertex -4.8978 12 3
  endloop
 endfacet
 facet normal 0.680861 0.527251 -0.508364
  outer loop
   vertex -7.27413 18 3
   vertex -9 20.2287 3
   vertex -9 21 3.79996
  endloop
 endfacet
 facet normal 0.707053 0.509073 -0.490837
  outer loop
   vertex -9 21 3.79996
   vertex -9 20.2287 3
   vertex -9.55534 21 3
  endloop
 endfacet
 facet normal 0.684864 0.527924 -0.502251
  outer loop
   vertex -7.27413 18 3
   vertex -9 21 3.79996
   vertex -6 18 4.73738
  endloop
 endfacet
 facet normal 0.155481 -0.013585 -0.987746
  outer loop
   vertex -9 24 4.36755
   vertex -12 24 3.89532
   vertex -12 27 3.85406
  endloop
 endfacet
 facet normal 0.84751 -0.00729938 -0.530729
  outer loop
   vertex -12 27 3.85406
   vertex -12 24 3.89532
   vertex -12.5607 24 3
  endloop
 endfacet
 facet normal -0.604821 0.320568 -0.728991
  outer loop
   vertex -12 27 3.85406
   vertex -12.5607 24 3
   vertex -15 26.2199 6
  endloop
 endfacet
 facet normal 0.503944 0.83778 -0.210154
  outer loop
   vertex -15 26.2199 6
   vertex -12.5607 24 3
   vertex -15 25.4673 3
  endloop
 endfacet
 facet normal -0.822636 -0.423815 -0.379013
  outer loop
   vertex -15 30 4.26078
   vertex -14.4191 30 3
   vertex -15 28.4446 6
  endloop
 endfacet
 facet normal -0.631564 -0.631565 -0.449725
  outer loop
   vertex -15 28.4446 6
   vertex -14.4191 30 3
   vertex -12 27.5809 3
  endloop
 endfacet
 facet normal -0.685385 -0.480676 -0.54699
  outer loop
   vertex -15 28.4446 6
   vertex -12 27.5809 3
   vertex -13.9868 27 6
  endloop
 endfacet
 facet normal -0.383853 -0.688305 -0.615543
  outer loop
   vertex -15 30 4.26078
   vertex -15 28.4446 6
   vertex -17.789 30 6
  endloop
 endfacet
 facet normal -0.34068 -0.610888 -0.71467
  outer loop
   vertex -17.789 30 6
   vertex -15 28.4446 6
   vertex -15 27 7.23485
  endloop
 endfacet
 facet normal 0.750598 -0.612927 -0.246826
  outer loop
   vertex -19.065 30 3
   vertex -18.0785 30 6
   vertex -20.5283 27 6
  endloop
 endfacet
 facet normal 0.647877 -0.529046 -0.548056
  outer loop
   vertex -20.5283 27 6
   vertex -18.0785 30 6
   vertex -18 30 6.09281
  endloop
 endfacet
 facet normal -0.0981276 -0.970432 -0.22053
  outer loop
   vertex -15 30.4253 3
   vertex -18 30.0469 6
   vertex -18 30.7286 3
  endloop
 endfacet
 facet normal -0.679624 -0.476636 -0.55761
  outer loop
   vertex -13.9868 27 6
   vertex -15 27 7.23485
   vertex -15 28.4446 6
  endloop
 endfacet
endsolid
