solid ascii
 facet normal -0.0356581 0.558853 0.8285
  outer loop
   vertex -9.40099 -9 3
   vertex -12 -9 2.88814
   vertex -12 -9.16583 3
  endloop
 endfacet
 facet normal 0.420349 0.507405 0.752228
  outer loop
   vertex -12 -9.16583 3
   vertex -12 -9 2.88814
   vertex -12.2002 -9 3
  endloop
 endfacet
 facet normal 0.415221 0.501215 0.759193
  outer loop
   vertex -12 -9.16583 3
   vertex -12.2002 -9 3
   vertex -12 -12 4.8711
  endloop
 endfacet
 facet normal 0.373984 0.508642 0.775512
  outer loop
   vertex -12 -12 4.8711
   vertex -12.2002 -9 3
   vertex -15 -9 4.35019
  endloop
 endfacet
 facet normal -0.122614 0.0494977 0.991219
  outer loop
   vertex -12 -12 4.8711
   vertex -15 -9 4.35019
   vertex -15 -12 4.5
  endloop
 endfacet
 facet normal 0.213076 0.0487287 0.97582
  outer loop
   vertex -15 -12 4.5
   vertex -15 -9 4.35019
   vertex -18 -9 5.00526
  endloop
 endfacet
 facet normal 0.196153 0.0310886 0.98008
  outer loop
   vertex -15 -12 4.5
   vertex -18 -9 5.00526
   vertex -18 -12 5.10042
  endloop
 endfacet
 facet normal 0.520851 0.0270645 0.853219
  outer loop
   vertex -18 -12 5.10042
   vertex -18 -9 5.00526
   vertex -19.6295 -9 6
  endloop
 endfacet
 facet normal 0.550074 0.0487936 0.833689
  outer loop
   vertex -18 -12 5.10042
   vertex -19.6295 -9 6
   vertex -19.3634 -12 6
  endloop
 endfacet
 facet normal 0.59095 0.0524195 0.805003
  outer loop
   vertex -19.3634 -12 6
   vertex -19.6295 -9 6
   vertex -21 -12 7.20142
  endloop
 endfacet
 facet normal 0.587058 0.125865 0.799701
  outer loop
   vertex -19.3634 -12 6
   vertex -21 -12 7.20142
   vertex -21 -15 7.67359
  endloop
 endfacet
 facet normal 0.618936 0.122117 0.775891
  outer loop
   vertex -21 -15 7.67359
   vertex -21 -12 7.20142
   vertex -23.2547 -12 9
  endloop
 endfacet
 facet normal 0.700712 0.227681 0.676139
  outer loop
   vertex -21 -15 7.67359
   vertex -23.2547 -12 9
   vertex -22.2799 -15 9
  endloop
 endfacet
 facet normal 0.930817 0.302449 0.205194
  outer loop
   vertex -22.2799 -15 9
   vertex -23.2547 -12 9
   vertex -22.9412 -15 12
  endloop
 endfacet
 facet normal 0.975155 0.0534881 0.214968
  outer loop
   vertex -22.2799 -15 9
   vertex -22.9412 -15 12
   vertex -22.7767 -18 12
  endloop
 endfacet
 facet normal 0.971517 0.0532886 -0.230902
  outer loop
   vertex -22.7767 -18 12
   vertex -22.9412 -15 12
   vertex -22.0637 -18 15
  endloop
 endfacet
 facet normal 0.848124 -0.489951 -0.201575
  outer loop
   vertex -22.7767 -18 12
   vertex -22.0637 -18 15
   vertex -23.7967 -21 15
  endloop
 endfacet
 facet normal 0.591397 -0.341643 -0.730431
  outer loop
   vertex -23.7967 -21 15
   vertex -22.0637 -18 15
   vertex -21 -18 15.8612
  endloop
 endfacet
 facet normal 0.454432 -0.172784 -0.873864
  outer loop
   vertex -23.7967 -21 15
   vertex -21 -18 15.8612
   vertex -21 -21 16.4544
  endloop
 endfacet
 facet normal -0.0524849 -0.193701 -0.979656
  outer loop
   vertex -21 -21 16.4544
   vertex -21 -18 15.8612
   vertex -18 -21 16.2936
  endloop
 endfacet
 facet normal -0.0517818 -0.251266 -0.966532
  outer loop
   vertex -21 -21 16.4544
   vertex -18 -21 16.2936
   vertex -21 -24 17.2343
  endloop
 endfacet
 facet normal -0.567054 0.330497 -0.754468
  outer loop
   vertex -21 -24 17.2343
   vertex -18 -21 16.2936
   vertex -18 -23.9532 15
  endloop
 endfacet
 facet normal -0.569849 0.316093 -0.758523
  outer loop
   vertex -21 -24 17.2343
   vertex -18 -23.9532 15
   vertex -18.026 -24 15
  endloop
 endfacet
 facet normal -0.84347 0.467869 0.263926
  outer loop
   vertex -18.026 -24 15
   vertex -18 -23.9532 15
   vertex -18 -22.2609 12
  endloop
 endfacet
 facet normal -0.703315 0.617634 0.35196
  outer loop
   vertex -18.026 -24 15
   vertex -18 -22.2609 12
   vertex -19.5273 -24 12
  endloop
 endfacet
 facet normal -0.591203 0.519179 0.617197
  outer loop
   vertex -19.5273 -24 12
   vertex -18 -22.2609 12
   vertex -18 -21 10.9394
  endloop
 endfacet
 facet normal -0.486495 0.500777 0.715922
  outer loop
   vertex -19.5273 -24 12
   vertex -18 -21 10.9394
   vertex -21 -24 10.9992
  endloop
 endfacet
 facet normal -0.18371 0.202897 0.961813
  outer loop
   vertex -21 -24 10.9992
   vertex -18 -21 10.9394
   vertex -21 -21 10.3664
  endloop
 endfacet
 facet normal 0.130383 0.204648 0.970113
  outer loop
   vertex -21 -24 10.9992
   vertex -21 -21 10.3664
   vertex -24 -24 11.4024
  endloop
 endfacet
 facet normal 0.474134 -0.176221 0.862637
  outer loop
   vertex -24 -24 11.4024
   vertex -21 -21 10.3664
   vertex -23.9722 -21 12
  endloop
 endfacet
 facet normal 0.498777 -0.173759 0.849135
  outer loop
   vertex -24 -24 11.4024
   vertex -23.9722 -21 12
   vertex -24 -21.0797 12
  endloop
 endfacet
 facet normal 0.942899 -0.328479 -0.0551593
  outer loop
   vertex -24 -21.0797 12
   vertex -23.9722 -21 12
   vertex -23.7967 -21 15
  endloop
 endfacet
 facet normal 0.905495 -0.421382 -0.0501555
  outer loop
   vertex -24 -21.0797 12
   vertex -23.7967 -21 15
   vertex -24 -21.4368 15
  endloop
 endfacet
 facet normal 0.451091 -0.20992 -0.867439
  outer loop
   vertex -24 -21.4368 15
   vertex -23.7967 -21 15
   vertex -21 -21 16.4544
  endloop
 endfacet
 facet normal 0.451618 -0.252872 -0.855627
  outer loop
   vertex -24 -21.4368 15
   vertex -21 -21 16.4544
   vertex -24 -24 15.7575
  endloop
 endfacet
 facet normal 0.430097 -0.227143 -0.87374
  outer loop
   vertex -24 -24 15.7575
   vertex -21 -21 16.4544
   vertex -21 -24 17.2343
  endloop
 endfacet
 facet normal 0.414734 0.343712 -0.84253
  outer loop
   vertex -24 -24 15.7575
   vertex -21 -24 17.2343
   vertex -21 -27 16.0104
  endloop
 endfacet
 facet normal -0.571038 0.310087 -0.760106
  outer loop
   vertex -21 -27 16.0104
   vertex -21 -24 17.2343
   vertex -18.026 -24 15
  endloop
 endfacet
 facet normal -0.719334 0.589138 -0.368069
  outer loop
   vertex -21 -27 16.0104
   vertex -18.026 -24 15
   vertex -20.483 -27 15
  endloop
 endfacet
 facet normal -0.721463 0.590881 0.361042
  outer loop
   vertex -20.483 -27 15
   vertex -18.026 -24 15
   vertex -19.5273 -24 12
  endloop
 endfacet
 facet normal -0.814102 0.519295 0.259943
  outer loop
   vertex -20.483 -27 15
   vertex -19.5273 -24 12
   vertex -21 -26.3088 12
  endloop
 endfacet
 facet normal -0.529074 0.337482 0.77858
  outer loop
   vertex -21 -26.3088 12
   vertex -19.5273 -24 12
   vertex -21 -24 10.9992
  endloop
 endfacet
 facet normal 0.0784601 0.396478 0.914685
  outer loop
   vertex -21 -26.3088 12
   vertex -21 -24 10.9992
   vertex -24 -25.7151 12
  endloop
 endfacet
 facet normal 0.125907 0.326397 0.93681
  outer loop
   vertex -24 -25.7151 12
   vertex -21 -24 10.9992
   vertex -24 -24 11.4024
  endloop
 endfacet
 facet normal 0.686577 0.239213 0.686577
  outer loop
   vertex -24 -25.7151 12
   vertex -24 -24 11.4024
   vertex -24.5976 -24 12
  endloop
 endfacet
 facet normal 0.699819 -0.143205 0.699819
  outer loop
   vertex -24.5976 -24 12
   vertex -24 -24 11.4024
   vertex -24 -21.0797 12
  endloop
 endfacet
 facet normal 0.979366 -0.200409 0.0260554
  outer loop
   vertex -24.5976 -24 12
   vertex -24 -21.0797 12
   vertex -24.6774 -24 15
  endloop
 endfacet
 facet normal 0.966361 -0.255387 -0.0303977
  outer loop
   vertex -24.6774 -24 15
   vertex -24 -21.0797 12
   vertex -24 -21.4368 15
  endloop
 endfacet
 facet normal 0.731377 -0.193286 -0.654009
  outer loop
   vertex -24.6774 -24 15
   vertex -24 -21.4368 15
   vertex -24 -24 15.7575
  endloop
 endfacet
 facet normal -0.384112 0.287857 0.877267
  outer loop
   vertex -6.78496 -6 3
   vertex -9 -6 2.03014
   vertex -9 -8.95573 3
  endloop
 endfacet
 facet normal 0.297643 0.297643 0.907093
  outer loop
   vertex -9 -8.95573 3
   vertex -9 -6 2.03014
   vertex -11.9557 -6 3
  endloop
 endfacet
 facet normal 0.494435 0.494436 0.71489
  outer loop
   vertex -9 -8.95573 3
   vertex -11.9557 -6 3
   vertex -9 -9 3.03062
  endloop
 endfacet
 facet normal 0.494439 0.494439 0.714885
  outer loop
   vertex -9 -9 3.03062
   vertex -11.9557 -6 3
   vertex -12 -6 3.03062
  endloop
 endfacet
 facet normal -0.0759213 -0.0759212 0.994219
  outer loop
   vertex -9 -9 3.03062
   vertex -12 -6 3.03062
   vertex -12 -6.40099 3
  endloop
 endfacet
 facet normal 0.457654 -0.0676993 0.886549
  outer loop
   vertex -12 -6.40099 3
   vertex -12 -6 3.03062
   vertex -15 -9 4.35019
  endloop
 endfacet
 facet normal 0.434129 -0.0334368 0.90023
  outer loop
   vertex -12 -6.40099 3
   vertex -15 -9 4.35019
   vertex -12.2002 -9 3
  endloop
 endfacet
 facet normal -0.0429599 -0.0429599 0.998153
  outer loop
   vertex -12 -9 2.88814
   vertex -9.40099 -9 3
   vertex -12 -6.40099 3
  endloop
 endfacet
 facet normal -0.0759218 -0.0759218 0.994219
  outer loop
   vertex -12 -6.40099 3
   vertex -9.40099 -9 3
   vertex -9 -9 3.03062
  endloop
 endfacet
 facet normal 0.487465 -0.0375448 0.872335
  outer loop
   vertex -12.2002 -9 3
   vertex -12 -9 2.88814
   vertex -12 -6.40099 3
  endloop
 endfacet
 facet normal -0.364067 -0.419628 0.831485
  outer loop
   vertex -9 -6 2.03014
   vertex -6.78496 -6 3
   vertex -9 -4.07824 3
  endloop
 endfacet
 facet normal -0.596305 -0.687308 0.414764
  outer loop
   vertex -9 -4.07824 3
   vertex -6.78496 -6 3
   vertex -9 -3 4.78676
  endloop
 endfacet
 facet normal 0.665756 -0.638857 0.385526
  outer loop
   vertex -9 -4.07824 3
   vertex -9 -3 4.78676
   vertex -9.70256 -3 6
  endloop
 endfacet
 facet normal 0.536447 -0.78468 0.310646
  outer loop
   vertex -9.70256 -3 6
   vertex -9 -3 4.78676
   vertex -9 -2.51969 6
  endloop
 endfacet
 facet normal 0.549827 -0.804252 -0.225542
  outer loop
   vertex -9.70256 -3 6
   vertex -9 -2.51969 6
   vertex -9 -3 7.71271
  endloop
 endfacet
 facet normal 0.562714 -0.795945 -0.223213
  outer loop
   vertex -9 -3 7.71271
   vertex -9 -2.51969 6
   vertex -8.48937 -3 9
  endloop
 endfacet
 facet normal 0.560108 -0.79807 -0.222179
  outer loop
   vertex -9 -3 7.71271
   vertex -8.48937 -3 9
   vertex -9 -3.35838 9
  endloop
 endfacet
 facet normal 0.533365 -0.759965 -0.371449
  outer loop
   vertex -9 -3.35838 9
   vertex -8.48937 -3 9
   vertex -6.40009 -3 12
  endloop
 endfacet
 facet normal 0.479465 -0.817993 -0.317806
  outer loop
   vertex -9 -3.35838 9
   vertex -6.40009 -3 12
   vertex -9 -4.52393 12
  endloop
 endfacet
 facet normal 0.386594 -0.659549 -0.644624
  outer loop
   vertex -9 -4.52393 12
   vertex -6.40009 -3 12
   vertex -6 -3 12.2399
  endloop
 endfacet
 facet normal 0.389801 -0.667463 -0.634467
  outer loop
   vertex -9 -4.52393 12
   vertex -6 -3 12.2399
   vertex -9 -6 13.5528
  endloop
 endfacet
 facet normal -0.0745632 -0.336285 -0.938804
  outer loop
   vertex -9 -6 13.5528
   vertex -6 -3 12.2399
   vertex -6 -6 13.3146
  endloop
 endfacet
 facet normal -0.0790118 -0.0640257 -0.994815
  outer loop
   vertex -9 -6 13.5528
   vertex -6 -6 13.3146
   vertex -9 -9 13.7459
  endloop
 endfacet
 facet normal -0.498199 0.386609 -0.7761
  outer loop
   vertex -9 -9 13.7459
   vertex -6 -6 13.3146
   vertex -6 -8.63892 12
  endloop
 endfacet
 facet normal -0.498199 0.386611 -0.776099
  outer loop
   vertex -9 -9 13.7459
   vertex -6 -8.63892 12
   vertex -6.28021 -9 12
  endloop
 endfacet
 facet normal -0.789859 0.612945 -0.0205481
  outer loop
   vertex -6.28021 -9 12
   vertex -6 -8.63892 12
   vertex -6 -8.73949 9
  endloop
 endfacet
 facet normal -0.735515 0.677436 -0.00987198
  outer loop
   vertex -6.28021 -9 12
   vertex -6 -8.73949 9
   vertex -6.23994 -9 9
  endloop
 endfacet
 facet normal -0.719183 0.662393 0.209791
  outer loop
   vertex -6.23994 -9 9
   vertex -6 -8.73949 9
   vertex -6 -7.78934 6
  endloop
 endfacet
 facet normal -0.698092 0.681618 0.219236
  outer loop
   vertex -6.23994 -9 9
   vertex -6 -7.78934 6
   vertex -7.18209 -9 6
  endloop
 endfacet
 facet normal -0.634161 0.619196 0.463071
  outer loop
   vertex -7.18209 -9 6
   vertex -6 -7.78934 6
   vertex -6 -6 3.60739
  endloop
 endfacet
 facet normal -0.681478 0.601267 0.417213
  outer loop
   vertex -7.18209 -9 6
   vertex -6 -6 3.60739
   vertex -9 -9 3.03062
  endloop
 endfacet
 facet normal -0.555986 0.417845 0.71853
  outer loop
   vertex -9 -9 3.03062
   vertex -6 -6 3.60739
   vertex -6.78496 -6 3
  endloop
 endfacet
 facet normal -0.604598 0.453091 0.65511
  outer loop
   vertex -9 -9 3.03062
   vertex -6.78496 -6 3
   vertex -9 -8.95573 3
  endloop
 endfacet
 facet normal 0.281124 -0.432378 0.856749
  outer loop
   vertex -9 -6 2.03014
   vertex -9 -4.07824 3
   vertex -11.9557 -6 3
  endloop
 endfacet
 facet normal 0.500948 -0.770474 0.394235
  outer loop
   vertex -11.9557 -6 3
   vertex -9 -4.07824 3
   vertex -9.70256 -3 6
  endloop
 endfacet
 facet normal 0.467525 -0.775473 0.424336
  outer loop
   vertex -11.9557 -6 3
   vertex -9.70256 -3 6
   vertex -12 -4.3851 6
  endloop
 endfacet
 facet normal 0.50511 -0.837814 -0.207199
  outer loop
   vertex -12 -4.3851 6
   vertex -9.70256 -3 6
   vertex -9 -3 7.71271
  endloop
 endfacet
 facet normal 0.51317 -0.826843 -0.230189
  outer loop
   vertex -12 -4.3851 6
   vertex -9 -3 7.71271
   vertex -9 -3.35838 9
  endloop
 endfacet
 facet normal -0.318505 0.544791 0.77573
  outer loop
   vertex -13.7599 -15 6
   vertex -15 -15 5.49084
   vertex -15 -15.725 6
  endloop
 endfacet
 facet normal 0.0490722 0.574029 0.817363
  outer loop
   vertex -15 -15.725 6
   vertex -15 -15 5.49084
   vertex -18 -15.4685 6
  endloop
 endfacet
 facet normal 0.0540795 0.632602 0.772587
  outer loop
   vertex -15 -15.725 6
   vertex -18 -15.4685 6
   vertex -15 -18 7.8628
  endloop
 endfacet
 facet normal -0.0393106 0.561587 0.826483
  outer loop
   vertex -15 -18 7.8628
   vertex -18 -15.4685 6
   vertex -18 -18 7.72011
  endloop
 endfacet
 facet normal -0.0342074 0.693969 0.719192
  outer loop
   vertex -15 -18 7.8628
   vertex -18 -18 7.72011
   vertex -18 -19.3264 9
  endloop
 endfacet
 facet normal 0.25892 0.670696 0.695073
  outer loop
   vertex -18 -19.3264 9
   vertex -18 -18 7.72011
   vertex -21 -18.1683 9
  endloop
 endfacet
 facet normal 0.280532 0.726678 0.627089
  outer loop
   vertex -18 -19.3264 9
   vertex -21 -18.1683 9
   vertex -18 -21 10.9394
  endloop
 endfacet
 facet normal -0.169534 0.428284 0.887598
  outer loop
   vertex -18 -21 10.9394
   vertex -21 -18.1683 9
   vertex -21 -21 10.3664
  endloop
 endfacet
 facet normal 0.0560844 0.547917 0.834651
  outer loop
   vertex -18 -15.4685 6
   vertex -15 -15 5.49084
   vertex -18 -15 5.69243
  endloop
 endfacet
 facet normal 0.065781 0.193183 0.978955
  outer loop
   vertex -18 -15 5.69243
   vertex -15 -15 5.49084
   vertex -18 -12 5.10042
  endloop
 endfacet
 facet normal 0.543408 0.162523 0.823586
  outer loop
   vertex -18 -15 5.69243
   vertex -18 -12 5.10042
   vertex -19.3634 -12 6
  endloop
 endfacet
 facet normal 0.461675 0.486795 0.741544
  outer loop
   vertex -18 -15.4685 6
   vertex -18 -15 5.69243
   vertex -18.494 -15 6
  endloop
 endfacet
 facet normal 0.522432 0.151397 0.839133
  outer loop
   vertex -18.494 -15 6
   vertex -18 -15 5.69243
   vertex -19.3634 -12 6
  endloop
 endfacet
 facet normal 0.54832 0.158899 0.821034
  outer loop
   vertex -18.494 -15 6
   vertex -19.3634 -12 6
   vertex -21 -15 7.67359
  endloop
 endfacet
 facet normal -0.4943 0.468246 0.732402
  outer loop
   vertex -10.3273 -12 6
   vertex -12 -12 4.8711
   vertex -12 -13.7658 6
  endloop
 endfacet
 facet normal -0.353385 0.503898 0.788166
  outer loop
   vertex -12 -13.7658 6
   vertex -12 -12 4.8711
   vertex -13.7599 -15 6
  endloop
 endfacet
 facet normal -0.325619 0.464305 0.823646
  outer loop
   vertex -12 -13.7658 6
   vertex -13.7599 -15 6
   vertex -12 -15 6.69577
  endloop
 endfacet
 facet normal -0.311227 0.532341 0.787243
  outer loop
   vertex -12 -15 6.69577
   vertex -13.7599 -15 6
   vertex -15 -15.725 6
  endloop
 endfacet
 facet normal -0.315553 0.601161 0.734188
  outer loop
   vertex -12 -15 6.69577
   vertex -15 -15.725 6
   vertex -15 -18 7.8628
  endloop
 endfacet
 facet normal -0.329848 0.495805 0.803354
  outer loop
   vertex -13.7599 -15 6
   vertex -12 -12 4.8711
   vertex -15 -15 5.49084
  endloop
 endfacet
 facet normal -0.116658 0.311477 0.943066
  outer loop
   vertex -15 -15 5.49084
   vertex -12 -12 4.8711
   vertex -15 -12 4.5
  endloop
 endfacet
 facet normal 0.186701 0.308104 0.932853
  outer loop
   vertex -15 -15 5.49084
   vertex -15 -12 4.5
   vertex -18 -12 5.10042
  endloop
 endfacet
 facet normal -0.140316 0.476204 0.868068
  outer loop
   vertex 13.9028 -9 6
   vertex 12 -9 5.69243
   vertex 12 -9.56067 6
  endloop
 endfacet
 facet normal 0.321262 0.455467 0.830265
  outer loop
   vertex 12 -9.56067 6
   vertex 12 -9 5.69243
   vertex 11.2051 -9 6
  endloop
 endfacet
 facet normal 0.294825 0.417985 0.859283
  outer loop
   vertex 12 -9.56067 6
   vertex 11.2051 -9 6
   vertex 12 -12 7.18657
  endloop
 endfacet
 facet normal 0.392089 0.426313 0.815183
  outer loop
   vertex 12 -12 7.18657
   vertex 11.2051 -9 6
   vertex 9 -9 7.06062
  endloop
 endfacet
 facet normal 0.41517 0.448403 0.791561
  outer loop
   vertex 12 -12 7.18657
   vertex 9 -9 7.06062
   vertex 9 -12 8.76006
  endloop
 endfacet
 facet normal 0.665488 0.367897 0.649445
  outer loop
   vertex 9 -12 8.76006
   vertex 9 -9 7.06062
   vertex 7.10738 -9 9
  endloop
 endfacet
 facet normal 0.68072 0.379326 0.626683
  outer loop
   vertex 9 -12 8.76006
   vertex 7.10738 -9 9
   vertex 8.77911 -12 9
  endloop
 endfacet
 facet normal 0.871083 0.485405 0.0748058
  outer loop
   vertex 8.77911 -12 9
   vertex 7.10738 -9 9
   vertex 8.52147 -12 12
  endloop
 endfacet
 facet normal 0.912473 0.401562 0.0783603
  outer loop
   vertex 8.77911 -12 9
   vertex 8.52147 -12 12
   vertex 9 -13.0874 12
  endloop
 endfacet
 facet normal 0.72071 0.317171 -0.616424
  outer loop
   vertex 9 -13.0874 12
   vertex 8.52147 -12 12
   vertex 9 -12 12.5595
  endloop
 endfacet
 facet normal 0.607604 0.363383 -0.706237
  outer loop
   vertex 9 -13.0874 12
   vertex 9 -12 12.5595
   vertex 10.1439 -15 12
  endloop
 endfacet
 facet normal 0.586632 0.359055 -0.725908
  outer loop
   vertex 10.1439 -15 12
   vertex 9 -12 12.5595
   vertex 12 -15 13.5
  endloop
 endfacet
 facet normal 0.523048 0.554541 -0.647229
  outer loop
   vertex 10.1439 -15 12
   vertex 12 -15 13.5
   vertex 12 -16.7507 12
  endloop
 endfacet
 facet normal 0.683201 0.475115 -0.554529
  outer loop
   vertex 12 -16.7507 12
   vertex 12 -15 13.5
   vertex 15 -17.5632 15
  endloop
 endfacet
 facet normal 0.706199 0.36296 -0.607901
  outer loop
   vertex 12 -16.7507 12
   vertex 15 -17.5632 15
   vertex 15 -18 14.7392
  endloop
 endfacet
 facet normal 0.667481 0.38173 -0.639337
  outer loop
   vertex 15 -18 14.7392
   vertex 15 -17.5632 15
   vertex 15.2498 -18 15
  endloop
 endfacet
 facet normal 0.489852 0.734778 -0.469198
  outer loop
   vertex 15 -18 14.7392
   vertex 15.2498 -18 15
   vertex 18 -19.8335 15
  endloop
 endfacet
 facet normal 0.336439 0.504658 -0.795066
  outer loop
   vertex 18 -19.8335 15
   vertex 15.2498 -18 15
   vertex 18 -18 16.1638
  endloop
 endfacet
 facet normal -0.0865656 0.533886 -0.841113
  outer loop
   vertex 18 -19.8335 15
   vertex 18 -18 16.1638
   vertex 21 -19.347 15
  endloop
 endfacet
 facet normal -0.170004 0.39961 -0.900783
  outer loop
   vertex 21 -19.347 15
   vertex 18 -18 16.1638
   vertex 21 -18 15.5976
  endloop
 endfacet
 facet normal -0.588048 0.327989 -0.739339
  outer loop
   vertex 21 -19.347 15
   vertex 21 -18 15.5976
   vertex 21.7513 -18 15
  endloop
 endfacet
 facet normal -0.617127 -0.1309 -0.775899
  outer loop
   vertex 21.7513 -18 15
   vertex 21 -18 15.5976
   vertex 21.115 -15 15
  endloop
 endfacet
 facet normal -0.85375 -0.181091 -0.488178
  outer loop
   vertex 21.7513 -18 15
   vertex 21.115 -15 15
   vertex 22.8304 -15 12
  endloop
 endfacet
 facet normal -0.840209 -0.251459 -0.480435
  outer loop
   vertex 22.8304 -15 12
   vertex 21.115 -15 15
   vertex 21.9325 -12 12
  endloop
 endfacet
 facet normal -0.868871 -0.260038 0.42124
  outer loop
   vertex 22.8304 -15 12
   vertex 21.9325 -12 12
   vertex 21.376 -15 9
  endloop
 endfacet
 facet normal -0.786287 -0.357821 0.503702
  outer loop
   vertex 21.376 -15 9
   vertex 21.9325 -12 12
   vertex 21 -12 10.5443
  endloop
 endfacet
 facet normal -0.812119 -0.344277 0.471102
  outer loop
   vertex 21.376 -15 9
   vertex 21 -12 10.5443
   vertex 21 -14.1132 9
  endloop
 endfacet
 facet normal -0.761396 -0.382508 0.523416
  outer loop
   vertex 21 -14.1132 9
   vertex 21 -12 10.5443
   vertex 19.9384 -12 9
  endloop
 endfacet
 facet normal -0.505008 -0.253705 0.824985
  outer loop
   vertex 21 -14.1132 9
   vertex 19.9384 -12 9
   vertex 18 -12 7.81343
  endloop
 endfacet
 facet normal -0.52209 0.000639994 0.85289
  outer loop
   vertex 18 -12 7.81343
   vertex 19.9384 -12 9
   vertex 18 -9 7.81117
  endloop
 endfacet
 facet normal -0.477313 0.000659386 0.878733
  outer loop
   vertex 18 -12 7.81343
   vertex 18 -9 7.81117
   vertex 15 -9 6.18163
  endloop
 endfacet
 facet normal -0.462238 -0.249336 0.850981
  outer loop
   vertex 15 -9 6.18163
   vertex 18 -9 7.81117
   vertex 15 -6 7.06062
  endloop
 endfacet
 facet normal -0.156891 -0.277695 0.947771
  outer loop
   vertex 15 -9 6.18163
   vertex 15 -6 7.06062
   vertex 13.9028 -9 6
  endloop
 endfacet
 facet normal -0.509621 -0.115068 0.85267
  outer loop
   vertex 13.9028 -9 6
   vertex 15 -6 7.06062
   vertex 13.2254 -6 6
  endloop
 endfacet
 facet normal -0.436179 -0.0984858 0.894454
  outer loop
   vertex 13.9028 -9 6
   vertex 13.2254 -6 6
   vertex 12 -6 5.40242
  endloop
 endfacet
 facet normal -0.392492 -0.445127 0.804867
  outer loop
   vertex 12 -6 5.40242
   vertex 13.2254 -6 6
   vertex 12 -4.91948 6
  endloop
 endfacet
 facet normal -0.432065 -0.436458 0.789192
  outer loop
   vertex 12 -6 5.40242
   vertex 12 -4.91948 6
   vertex 9 -3 5.41912
  endloop
 endfacet
 facet normal -0.472613 -0.524298 0.708342
  outer loop
   vertex 9 -3 5.41912
   vertex 12 -4.91948 6
   vertex 9.87061 -3 6
  endloop
 endfacet
 facet normal -0.426686 -0.639506 0.639508
  outer loop
   vertex 9 -3 5.41912
   vertex 9.87061 -3 6
   vertex 9 -2.41912 6
  endloop
 endfacet
 facet normal -0.539863 -0.809133 -0.232059
  outer loop
   vertex 9 -2.41912 6
   vertex 9.87061 -3 6
   vertex 9 -3 8.02538
  endloop
 endfacet
 facet normal -0.444 -0.861304 -0.247022
  outer loop
   vertex 9 -2.41912 6
   vertex 9 -3 8.02538
   vertex 6 -0.872627 6
  endloop
 endfacet
 facet normal -0.66592 -0.703966 0.246947
  outer loop
   vertex 6 -0.872627 6
   vertex 9 -3 8.02538
   vertex 6.19003 0 9
  endloop
 endfacet
 facet normal -0.790988 -0.572227 0.21655
  outer loop
   vertex 6 -0.872627 6
   vertex 6.19003 0 9
   vertex 6 0 8.3059
  endloop
 endfacet
 facet normal -0.847132 -0.478101 0.23192
  outer loop
   vertex 6 0 8.3059
   vertex 6.19003 0 9
   vertex 6 0.3367 9
  endloop
 endfacet
 facet normal 0.0752661 -0.897178 0.435209
  outer loop
   vertex 6 0 8.3059
   vertex 6 0.3367 9
   vertex 3 0 8.82472
  endloop
 endfacet
 facet normal 0.0473441 -0.759546 0.648729
  outer loop
   vertex 3 0 8.82472
   vertex 6 0.3367 9
   vertex 3 0.149704 9
  endloop
 endfacet
 facet normal 0.54063 -0.639693 0.546362
  outer loop
   vertex 3 0 8.82472
   vertex 3 0.149704 9
   vertex 2.82286 0 9
  endloop
 endfacet
 facet normal 0.62392 -0.738245 -0.256357
  outer loop
   vertex 2.82286 0 9
   vertex 3 0.149704 9
   vertex 3 0 9.43111
  endloop
 endfacet
 facet normal 0.523929 -0.82411 -0.215273
  outer loop
   vertex 2.82286 0 9
   vertex 3 0 9.43111
   vertex 0 -1.79464 9
  endloop
 endfacet
 facet normal 0.517699 -0.782072 -0.346917
  outer loop
   vertex 0 -1.79464 9
   vertex 3 0 9.43111
   vertex 3 -1.13953 12
  endloop
 endfacet
 facet normal 0.377407 -0.908583 -0.178999
  outer loop
   vertex 0 -1.79464 9
   vertex 3 -1.13953 12
   vertex 0 -2.38567 12
  endloop
 endfacet
 facet normal 0.206245 -0.496521 -0.843167
  outer loop
   vertex 0 -2.38567 12
   vertex 3 -1.13953 12
   vertex 3 -3 13.0956
  endloop
 endfacet
 facet normal 0.174882 -0.573398 -0.800394
  outer loop
   vertex 0 -2.38567 12
   vertex 3 -3 13.0956
   vertex 0 -3 12.4401
  endloop
 endfacet
 facet normal 0.206338 0.256136 -0.944362
  outer loop
   vertex 0 -3 12.4401
   vertex 3 -3 13.0956
   vertex 3 -6 12.2819
  endloop
 endfacet
 facet normal 0.278603 0.326236 -0.9033
  outer loop
   vertex 0 -3 12.4401
   vertex 3 -6 12.2819
   vertex 2.08598 -6 12
  endloop
 endfacet
 facet normal 0.191 0.761595 -0.619268
  outer loop
   vertex 2.08598 -6 12
   vertex 3 -6 12.2819
   vertex 3 -6.22923 12
  endloop
 endfacet
 facet normal 0.213952 0.853116 -0.475834
  outer loop
   vertex 2.08598 -6 12
   vertex 3 -6.22923 12
   vertex 0 -6 11.0621
  endloop
 endfacet
 facet normal 0.198119 0.887105 -0.416886
  outer loop
   vertex 0 -6 11.0621
   vertex 3 -6.22923 12
   vertex 0 -6.96905 9
  endloop
 endfacet
 facet normal -0.219786 0.882914 -0.414917
  outer loop
   vertex 0 -6 11.0621
   vertex 0 -6.96905 9
   vertex -1.77065 -6 12
  endloop
 endfacet
 facet normal -0.27933 0.853209 -0.440465
  outer loop
   vertex -1.77065 -6 12
   vertex 0 -6.96905 9
   vertex -3 -6.40247 12
  endloop
 endfacet
 facet normal -0.209281 0.639245 -0.739978
  outer loop
   vertex -1.77065 -6 12
   vertex -3 -6.40247 12
   vertex -3 -6 12.3477
  endloop
 endfacet
 facet normal -0.236944 0.635105 -0.735186
  outer loop
   vertex -3 -6 12.3477
   vertex -3 -6.40247 12
   vertex -6 -6 13.3146
  endloop
 endfacet
 facet normal -0.290343 -0.322697 -0.900871
  outer loop
   vertex -3 -6 12.3477
   vertex -6 -6 13.3146
   vertex -6 -3 12.2399
  endloop
 endfacet
 facet normal -0.666154 0.62443 0.407831
  outer loop
   vertex -7.18209 -9 6
   vertex -9 -9 3.03062
   vertex -9 -10.9394 6
  endloop
 endfacet
 facet normal -0.556054 0.695874 0.454493
  outer loop
   vertex -9 -10.9394 6
   vertex -9 -9 3.03062
   vertex -10.3273 -12 6
  endloop
 endfacet
 facet normal -0.50916 0.637188 0.578573
  outer loop
   vertex -9 -10.9394 6
   vertex -10.3273 -12 6
   vertex -9 -12 7.16807
  endloop
 endfacet
 facet normal -0.560015 0.530497 0.636361
  outer loop
   vertex -9 -12 7.16807
   vertex -10.3273 -12 6
   vertex -12 -13.7658 6
  endloop
 endfacet
 facet normal -0.531954 0.415823 0.737642
  outer loop
   vertex -9 -12 7.16807
   vertex -12 -13.7658 6
   vertex -12 -15 6.69577
  endloop
 endfacet
 facet normal -0.382367 0.729942 0.566551
  outer loop
   vertex -10.3273 -12 6
   vertex -9 -9 3.03062
   vertex -12 -12 4.8711
  endloop
 endfacet
 facet normal -0.0627335 0.566727 0.821514
  outer loop
   vertex -12 -12 4.8711
   vertex -9 -9 3.03062
   vertex -9.40099 -9 3
  endloop
 endfacet
 facet normal -0.0351325 0.550615 0.83402
  outer loop
   vertex -12 -12 4.8711
   vertex -9.40099 -9 3
   vertex -12 -9.16583 3
  endloop
 endfacet
 facet normal -0.158849 0.0949979 0.982722
  outer loop
   vertex 13.9028 -9 6
   vertex 12 -6 5.40242
   vertex 12 -9 5.69243
  endloop
 endfacet
 facet normal -0.108272 0.0956539 0.989509
  outer loop
   vertex 12 -9 5.69243
   vertex 12 -6 5.40242
   vertex 9 -6 5.07417
  endloop
 endfacet
 facet normal 0.318243 0.48599 0.813962
  outer loop
   vertex 12 -9 5.69243
   vertex 9 -6 5.07417
   vertex 9 -7.55064 6
  endloop
 endfacet
 facet normal 0.148644 0.506948 0.849063
  outer loop
   vertex 9 -7.55064 6
   vertex 9 -6 5.07417
   vertex 6 -6.671 6
  endloop
 endfacet
 facet normal 0.261324 0.891244 0.370667
  outer loop
   vertex 9 -7.55064 6
   vertex 6 -6.671 6
   vertex 6 -7.91869 9
  endloop
 endfacet
 facet normal 0.22632 0.899371 0.374047
  outer loop
   vertex 6 -7.91869 9
   vertex 6 -6.671 6
   vertex 3 -7.16376 9
  endloop
 endfacet
 facet normal 0.233608 0.928331 -0.289187
  outer loop
   vertex 6 -7.91869 9
   vertex 3 -7.16376 9
   vertex 3 -6.22923 12
  endloop
 endfacet
 facet normal 0.06185 0.95292 -0.296847
  outer loop
   vertex 3 -6.22923 12
   vertex 3 -7.16376 9
   vertex 0 -6.96905 9
  endloop
 endfacet
 facet normal 0.316326 0.48127 0.817507
  outer loop
   vertex 12 -9 5.69243
   vertex 9 -7.55064 6
   vertex 11.2051 -9 6
  endloop
 endfacet
 facet normal 0.36185 0.550533 0.752315
  outer loop
   vertex 11.2051 -9 6
   vertex 9 -7.55064 6
   vertex 9 -9 7.06062
  endloop
 endfacet
 facet normal 0.0556683 0.714043 0.697885
  outer loop
   vertex 6 -6.671 6
   vertex 9 -6 5.07417
   vertex 6 -6 5.31347
  endloop
 endfacet
 facet normal 0.0772578 0.236551 0.968543
  outer loop
   vertex 6 -6 5.31347
   vertex 9 -6 5.07417
   vertex 6 -3 4.58077
  endloop
 endfacet
 facet normal 0.470181 0.209398 0.857369
  outer loop
   vertex 6 -6 5.31347
   vertex 6 -3 4.58077
   vertex 3.41205 -3 6
  endloop
 endfacet
 facet normal 0.415049 -0.504908 0.756837
  outer loop
   vertex 3.41205 -3 6
   vertex 6 -3 4.58077
   vertex 6 -0.872627 6
  endloop
 endfacet
 facet normal 0.450669 -0.548241 0.704506
  outer loop
   vertex 3.41205 -3 6
   vertex 6 -0.872627 6
   vertex 3 -3 6.26358
  endloop
 endfacet
 facet normal 0.570327 -0.768247 0.29073
  outer loop
   vertex 3 -3 6.26358
   vertex 6 -0.872627 6
   vertex 6 0 8.3059
  endloop
 endfacet
 facet normal 0.130407 -0.643742 0.754049
  outer loop
   vertex 3 -3 6.26358
   vertex 6 0 8.3059
   vertex 3 0 8.82472
  endloop
 endfacet
 facet normal 0.162148 0.705688 0.689719
  outer loop
   vertex 6 -6.671 6
   vertex 6 -6 5.31347
   vertex 3.07974 -6 6
  endloop
 endfacet
 facet normal 0.22878 -0.0253416 0.973148
  outer loop
   vertex 3.07974 -6 6
   vertex 6 -6 5.31347
   vertex 3.41205 -3 6
  endloop
 endfacet
 facet normal 0.418408 -0.0463464 0.907076
  outer loop
   vertex 3.07974 -6 6
   vertex 3.41205 -3 6
   vertex 3 -6 6.03678
  endloop
 endfacet
 facet normal 0.537782 -0.0635562 0.840685
  outer loop
   vertex 3 -6 6.03678
   vertex 3.41205 -3 6
   vertex 3 -3 6.26358
  endloop
 endfacet
 facet normal 0.41495 -0.0685889 0.907255
  outer loop
   vertex 3 -6 6.03678
   vertex 3 -3 6.26358
   vertex 0 -3 7.63569
  endloop
 endfacet
 facet normal 0.32854 -0.613245 0.718326
  outer loop
   vertex 0 -3 7.63569
   vertex 3 -3 6.26358
   vertex 3 0 8.82472
  endloop
 endfacet
 facet normal 0.501075 -0.70178 0.506388
  outer loop
   vertex 0 -3 7.63569
   vertex 3 0 8.82472
   vertex 2.82286 0 9
  endloop
 endfacet
 facet normal -0.132885 0.709705 0.691852
  outer loop
   vertex -2.29545 -6 6
   vertex -3 -6 5.86468
   vertex -3 -6.13192 6
  endloop
 endfacet
 facet normal -0.367862 0.665846 0.649097
  outer loop
   vertex -3 -6.13192 6
   vertex -3 -6 5.86468
   vertex -6 -7.78934 6
  endloop
 endfacet
 facet normal -0.466004 0.843488 0.267147
  outer loop
   vertex -3 -6.13192 6
   vertex -6 -7.78934 6
   vertex -6 -8.73949 9
  endloop
 endfacet
 facet normal -0.410844 0.730114 0.546022
  outer loop
   vertex -6 -7.78934 6
   vertex -3 -6 5.86468
   vertex -6 -6 3.60739
  endloop
 endfacet
 facet normal -0.561319 -0.358318 0.746009
  outer loop
   vertex -6 -6 3.60739
   vertex -3 -6 5.86468
   vertex -6 -3 5.04832
  endloop
 endfacet
 facet normal -0.0783519 -0.431629 0.898642
  outer loop
   vertex -6 -6 3.60739
   vertex -6 -3 5.04832
   vertex -9 -3 4.78676
  endloop
 endfacet
 facet normal -0.0615352 -0.705767 0.705767
  outer loop
   vertex -9 -3 4.78676
   vertex -6 -3 5.04832
   vertex -6 -2.04832 6
  endloop
 endfacet
 facet normal 0.144556 -0.920023 0.364226
  outer loop
   vertex -9 -3 4.78676
   vertex -6 -2.04832 6
   vertex -9 -2.51969 6
  endloop
 endfacet
 facet normal 0.144547 -0.919964 0.364379
  outer loop
   vertex -9 -2.51969 6
   vertex -6 -2.04832 6
   vertex -6 -0.860085 9
  endloop
 endfacet
 facet normal 0.634958 -0.738648 -0.226336
  outer loop
   vertex -9 -2.51969 6
   vertex -6 -0.860085 9
   vertex -8.48937 -3 9
  endloop
 endfacet
 facet normal 0.59357 -0.690502 -0.413378
  outer loop
   vertex -8.48937 -3 9
   vertex -6 -0.860085 9
   vertex -6.40009 -3 12
  endloop
 endfacet
 facet normal 0.610506 -0.285567 0.738738
  outer loop
   vertex -15 -9 4.35019
   vertex -12 -6 3.03062
   vertex -15 -6 5.50987
  endloop
 endfacet
 facet normal 0.367245 -0.817102 0.444382
  outer loop
   vertex -15 -6 5.50987
   vertex -12 -6 3.03062
   vertex -12 -4.3851 6
  endloop
 endfacet
 facet normal 0.175918 -0.570323 0.802362
  outer loop
   vertex -15 -6 5.50987
   vertex -12 -4.3851 6
   vertex -15 -5.31046 6
  endloop
 endfacet
 facet normal 0.249946 -0.810319 0.53001
  outer loop
   vertex -15 -5.31046 6
   vertex -12 -4.3851 6
   vertex -15 -3.34824 9
  endloop
 endfacet
 facet normal -0.0468117 -0.835964 0.546784
  outer loop
   vertex -15 -5.31046 6
   vertex -15 -3.34824 9
   vertex -18 -3.18024 9
  endloop
 endfacet
 facet normal -0.0451959 -0.80711 -0.588669
  outer loop
   vertex -18 -3.18024 9
   vertex -15 -3.34824 9
   vertex -18 -5.36831 12
  endloop
 endfacet
 facet normal 0.514489 -0.692802 -0.505298
  outer loop
   vertex -18 -3.18024 9
   vertex -18 -5.36831 12
   vertex -18.8506 -6 12
  endloop
 endfacet
 facet normal 0.4723 -0.635991 -0.610285
  outer loop
   vertex -18.8506 -6 12
   vertex -18 -5.36831 12
   vertex -18 -6 12.6583
  endloop
 endfacet
 facet normal 0.387601 -0.773902 -0.50084
  outer loop
   vertex -18.8506 -6 12
   vertex -18 -6 12.6583
   vertex -21 -9 14.9722
  endloop
 endfacet
 facet normal 0.208138 -0.719327 -0.662757
  outer loop
   vertex -21 -9 14.9722
   vertex -18 -6 12.6583
   vertex -20.9115 -9 15
  endloop
 endfacet
 facet normal 0.266903 -0.454391 -0.849877
  outer loop
   vertex -21 -9 14.9722
   vertex -20.9115 -9 15
   vertex -21 -9.05196 15
  endloop
 endfacet
 facet normal 0.18207 -0.309967 -0.933151
  outer loop
   vertex -21 -9.05196 15
   vertex -20.9115 -9 15
   vertex -18 -9 15.5681
  endloop
 endfacet
 facet normal 0.183736 -0.267737 -0.945811
  outer loop
   vertex -21 -9.05196 15
   vertex -18 -9 15.5681
   vertex -21 -12 15.8345
  endloop
 endfacet
 facet normal 0.331984 -0.407538 -0.850705
  outer loop
   vertex -21 -12 15.8345
   vertex -18 -9 15.5681
   vertex -18 -12 17.0053
  endloop
 endfacet
 facet normal 0.361791 -0.098071 -0.927086
  outer loop
   vertex -21 -12 15.8345
   vertex -18 -12 17.0053
   vertex -18 -15 17.3226
  endloop
 endfacet
 facet normal 0.434286 -0.094759 -0.895777
  outer loop
   vertex -18 -15 17.3226
   vertex -18 -12 17.0053
   vertex -16.6028 -15 18
  endloop
 endfacet
 facet normal 0.393961 0.429503 -0.812602
  outer loop
   vertex -18 -15 17.3226
   vertex -16.6028 -15 18
   vertex -15 -16.4702 18
  endloop
 endfacet
 facet normal 0.613842 0.669221 -0.418737
  outer loop
   vertex -15 -16.4702 18
   vertex -16.6028 -15 18
   vertex -15 -15 20.3496
  endloop
 endfacet
 facet normal -0.707292 0.599277 -0.374972
  outer loop
   vertex -15 -16.4702 18
   vertex -15 -15 20.3496
   vertex -13.7544 -15 18
  endloop
 endfacet
 facet normal -0.854077 0.255996 -0.45279
  outer loop
   vertex -13.7544 -15 18
   vertex -15 -15 20.3496
   vertex -14.4456 -12 21
  endloop
 endfacet
 facet normal -0.894423 0.195928 -0.402019
  outer loop
   vertex -13.7544 -15 18
   vertex -14.4456 -12 21
   vertex -13.0972 -12 18
  endloop
 endfacet
 facet normal -0.410846 -0.892807 -0.184664
  outer loop
   vertex -13.0972 -12 18
   vertex -14.4456 -12 21
   vertex -15 -11.7449 21
  endloop
 endfacet
 facet normal -0.329759 -0.935122 -0.129635
  outer loop
   vertex -13.0972 -12 18
   vertex -15 -11.7449 21
   vertex -15 -11.329 18
  endloop
 endfacet
 facet normal 0.780714 -0.61897 -0.0858069
  outer loop
   vertex -15 -11.329 18
   vertex -15 -11.7449 21
   vertex -15.2023 -12 21
  endloop
 endfacet
 facet normal 0.513786 -0.84396 -0.154126
  outer loop
   vertex -15 -11.329 18
   vertex -15.2023 -12 21
   vertex -16.1022 -12 18
  endloop
 endfacet
 facet normal 0.945827 -0.157823 -0.283729
  outer loop
   vertex -16.1022 -12 18
   vertex -15.2023 -12 21
   vertex -16.6028 -15 18
  endloop
 endfacet
 facet normal 0.46286 -0.077234 -0.88306
  outer loop
   vertex -16.1022 -12 18
   vertex -16.6028 -15 18
   vertex -18 -12 17.0053
  endloop
 endfacet
 facet normal 0.213273 0.0228853 0.976725
  outer loop
   vertex -18 -9 5.00526
   vertex -15 -9 4.35019
   vertex -18 -6 4.93497
  endloop
 endfacet
 facet normal -0.175957 -0.354934 0.918184
  outer loop
   vertex -18 -6 4.93497
   vertex -15 -9 4.35019
   vertex -15 -6 5.50987
  endloop
 endfacet
 facet normal -0.154326 -0.572417 0.805309
  outer loop
   vertex -18 -6 4.93497
   vertex -15 -6 5.50987
   vertex -15 -5.31046 6
  endloop
 endfacet
 facet normal 0.519807 0.0688035 0.851509
  outer loop
   vertex -18 -9 5.00526
   vertex -20.0266 -6 6
   vertex -19.6295 -9 6
  endloop
 endfacet
 facet normal 0.990769 0.131142 0.0343353
  outer loop
   vertex -19.6295 -9 6
   vertex -20.0266 -6 6
   vertex -20.1306 -6 9
  endloop
 endfacet
 facet normal 0.595997 -0.51584 0.615383
  outer loop
   vertex -19.6295 -9 6
   vertex -20.1306 -6 9
   vertex -21 -9 7.32732
  endloop
 endfacet
 facet normal 0.698569 -0.492089 0.51947
  outer loop
   vertex -21 -9 7.32732
   vertex -20.1306 -6 9
   vertex -21 -7.23425 9
  endloop
 endfacet
 facet normal 0.681561 -0.503243 0.531245
  outer loop
   vertex -21 -9 7.32732
   vertex -21 -7.23425 9
   vertex -22.3038 -9 9
  endloop
 endfacet
 facet normal 0.781134 -0.576765 0.239105
  outer loop
   vertex -22.3038 -9 9
   vertex -21 -7.23425 9
   vertex -23.2221 -9 12
  endloop
 endfacet
 facet normal 0.915099 -0.290055 0.280112
  outer loop
   vertex -22.3038 -9 9
   vertex -23.2221 -9 12
   vertex -23.2547 -12 9
  endloop
 endfacet
 facet normal 0.925581 -0.272655 0.262599
  outer loop
   vertex -23.2547 -12 9
   vertex -23.2221 -9 12
   vertex -24 -12 11.627
  endloop
 endfacet
 facet normal 0.85202 0.464358 0.241728
  outer loop
   vertex -23.2547 -12 9
   vertex -24 -12 11.627
   vertex -24 -12.1941 12
  endloop
 endfacet
 facet normal 0.888094 0.407725 0.212247
  outer loop
   vertex -24 -12.1941 12
   vertex -24 -12 11.627
   vertex -24.0891 -12 12
  endloop
 endfacet
 facet normal 0.795814 0.365359 -0.482901
  outer loop
   vertex -24 -12.1941 12
   vertex -24.0891 -12 12
   vertex -24 -12 12.1469
  endloop
 endfacet
 facet normal 0.837612 -0.200184 -0.508264
  outer loop
   vertex -24 -12 12.1469
   vertex -24.0891 -12 12
   vertex -24 -11.6271 12
  endloop
 endfacet
 facet normal 0.777803 -0.230323 -0.584785
  outer loop
   vertex -24 -12 12.1469
   vertex -24 -11.6271 12
   vertex -23.2221 -9 12
  endloop
 endfacet
 facet normal 0.922385 -0.273136 0.273134
  outer loop
   vertex -23.2221 -9 12
   vertex -24 -11.6271 12
   vertex -24 -12 11.627
  endloop
 endfacet
 facet normal 0.465099 0.0207365 0.885016
  outer loop
   vertex -18 -9 5.00526
   vertex -18 -6 4.93497
   vertex -20.0266 -6 6
  endloop
 endfacet
 facet normal 0.437568 -0.339506 0.832628
  outer loop
   vertex -20.0266 -6 6
   vertex -18 -6 4.93497
   vertex -18 -3.38804 6
  endloop
 endfacet
 facet normal 0.789777 -0.612783 0.0273699
  outer loop
   vertex -20.0266 -6 6
   vertex -18 -3.38804 6
   vertex -20.1306 -6 9
  endloop
 endfacet
 facet normal 0.797161 -0.602324 0.0417198
  outer loop
   vertex -20.1306 -6 9
   vertex -18 -3.38804 6
   vertex -18 -3.18024 9
  endloop
 endfacet
 facet normal 0.755295 -0.57069 -0.322245
  outer loop
   vertex -20.1306 -6 9
   vertex -18 -3.18024 9
   vertex -18.8506 -6 12
  endloop
 endfacet
 facet normal -0.108067 -0.113564 0.987636
  outer loop
   vertex 12 -6 5.40242
   vertex 9 -3 5.41912
   vertex 9 -6 5.07417
  endloop
 endfacet
 facet normal -0.267505 -0.11007 0.957249
  outer loop
   vertex 9 -6 5.07417
   vertex 9 -3 5.41912
   vertex 6 -3 4.58077
  endloop
 endfacet
 facet normal -0.177271 -0.341697 0.92294
  outer loop
   vertex -3 -6 5.86468
   vertex -2.29545 -6 6
   vertex -3 -5.63448 6
  endloop
 endfacet
 facet normal -0.191514 -0.369153 0.909422
  outer loop
   vertex -3 -5.63448 6
   vertex -2.29545 -6 6
   vertex -3 -3 7.06939
  endloop
 endfacet
 facet normal -0.524422 -0.320246 0.788939
  outer loop
   vertex -3 -5.63448 6
   vertex -3 -3 7.06939
   vertex -4.60879 -3 6
  endloop
 endfacet
 facet normal -0.370156 -0.743566 0.556861
  outer loop
   vertex -4.60879 -3 6
   vertex -3 -3 7.06939
   vertex -3 -1.55415 9
  endloop
 endfacet
 facet normal -0.462417 -0.675988 0.573768
  outer loop
   vertex -4.60879 -3 6
   vertex -3 -1.55415 9
   vertex -6 -2.04832 6
  endloop
 endfacet
 facet normal -0.210289 -0.908939 0.360012
  outer loop
   vertex -6 -2.04832 6
   vertex -3 -1.55415 9
   vertex -6 -0.860085 9
  endloop
 endfacet
 facet normal -0.533765 -0.325951 0.780289
  outer loop
   vertex -3 -5.63448 6
   vertex -4.60879 -3 6
   vertex -6 -3 5.04832
  endloop
 endfacet
 facet normal -0.435439 -0.63655 0.63655
  outer loop
   vertex -6 -3 5.04832
   vertex -4.60879 -3 6
   vertex -6 -2.04832 6
  endloop
 endfacet
 facet normal -0.515997 -0.297405 0.803304
  outer loop
   vertex -3 -5.63448 6
   vertex -6 -3 5.04832
   vertex -3 -6 5.86468
  endloop
 endfacet
 facet normal -0.449721 -0.678204 0.581198
  outer loop
   vertex -6.78496 -6 3
   vertex -6 -6 3.60739
   vertex -9 -3 4.78676
  endloop
 endfacet
 facet normal 0.313754 -0.834128 0.453641
  outer loop
   vertex -11.9557 -6 3
   vertex -12 -4.3851 6
   vertex -12 -6 3.03062
  endloop
 endfacet
 facet normal -0.235165 -0.366982 0.900012
  outer loop
   vertex -18 -6 4.93497
   vertex -15 -5.31046 6
   vertex -18 -3.38804 6
  endloop
 endfacet
 facet normal -0.538621 -0.840534 0.0582194
  outer loop
   vertex -18 -3.38804 6
   vertex -15 -5.31046 6
   vertex -18 -3.18024 9
  endloop
 endfacet
 facet normal -0.193854 -0.693692 0.693694
  outer loop
   vertex 9 -3 5.41912
   vertex 9 -2.41912 6
   vertex 6 -3 4.58077
  endloop
 endfacet
 facet normal -0.27505 -0.533562 0.799787
  outer loop
   vertex 6 -3 4.58077
   vertex 9 -2.41912 6
   vertex 6 -0.872627 6
  endloop
 endfacet
 facet normal -0.166631 0.697223 0.697219
  outer loop
   vertex 20.5004 -18 9
   vertex 18 -18 8.40242
   vertex 18 -18.5976 9
  endloop
 endfacet
 facet normal 0.0492882 0.70625 0.706245
  outer loop
   vertex 18 -18.5976 9
   vertex 18 -18 8.40242
   vertex 15 -18.3882 9
  endloop
 endfacet
 facet normal 0.0675912 0.968514 0.239609
  outer loop
   vertex 18 -18.5976 9
   vertex 15 -18.3882 9
   vertex 15 -19.1304 12
  endloop
 endfacet
 facet normal 0.377556 0.898886 0.222383
  outer loop
   vertex 15 -19.1304 12
   vertex 15 -18.3882 9
   vertex 14.0758 -18 9
  endloop
 endfacet
 facet normal 0.549805 0.823332 0.140848
  outer loop
   vertex 15 -19.1304 12
   vertex 14.0758 -18 9
   vertex 13.3072 -18 12
  endloop
 endfacet
 facet normal 0.680329 0.711883 0.174285
  outer loop
   vertex 13.3072 -18 12
   vertex 14.0758 -18 9
   vertex 12 -16.7507 12
  endloop
 endfacet
 facet normal 0.635409 0.664879 -0.392672
  outer loop
   vertex 13.3072 -18 12
   vertex 12 -16.7507 12
   vertex 15 -18 14.7392
  endloop
 endfacet
 facet normal 0.045059 0.719149 0.693393
  outer loop
   vertex 15 -18.3882 9
   vertex 18 -18 8.40242
   vertex 15 -18 8.59737
  endloop
 endfacet
 facet normal 0.061175 0.331714 0.941394
  outer loop
   vertex 15 -18 8.59737
   vertex 18 -18 8.40242
   vertex 15 -15 7.54028
  endloop
 endfacet
 facet normal 0.184923 0.326605 0.926894
  outer loop
   vertex 15 -18 8.59737
   vertex 15 -15 7.54028
   vertex 12 -15 8.1388
  endloop
 endfacet
 facet normal 0.186811 0.29721 0.936359
  outer loop
   vertex 12 -15 8.1388
   vertex 15 -15 7.54028
   vertex 12 -12 7.18657
  endloop
 endfacet
 facet normal 0.447153 0.270605 0.852541
  outer loop
   vertex 12 -15 8.1388
   vertex 12 -12 7.18657
   vertex 9 -12 8.76006
  endloop
 endfacet
 facet normal 0.289428 0.689069 0.664391
  outer loop
   vertex 15 -18.3882 9
   vertex 15 -18 8.59737
   vertex 14.0758 -18 9
  endloop
 endfacet
 facet normal 0.345141 0.503157 0.792282
  outer loop
   vertex 14.0758 -18 9
   vertex 15 -18 8.59737
   vertex 12 -16.5761 9
  endloop
 endfacet
 facet normal 0.56501 0.82369 0.0479342
  outer loop
   vertex 14.0758 -18 9
   vertex 12 -16.5761 9
   vertex 12 -16.7507 12
  endloop
 endfacet
 facet normal 0.78307 0.620883 0.036132
  outer loop
   vertex 12 -16.7507 12
   vertex 12 -16.5761 9
   vertex 10.7503 -15 9
  endloop
 endfacet
 facet normal 0.679642 0.720563 0.137386
  outer loop
   vertex 12 -16.7507 12
   vertex 10.7503 -15 9
   vertex 10.1439 -15 12
  endloop
 endfacet
 facet normal 0.845596 0.505716 0.170933
  outer loop
   vertex 10.1439 -15 12
   vertex 10.7503 -15 9
   vertex 9 -13.0874 12
  endloop
 endfacet
 facet normal -0.190231 0.719818 0.667589
  outer loop
   vertex -9.43682 -18 9
   vertex -12 -18 8.26961
   vertex -12 -18.6774 9
  endloop
 endfacet
 facet normal -0.069576 0.73143 0.678358
  outer loop
   vertex -12 -18.6774 9
   vertex -12 -18 8.26961
   vertex -15 -18.9628 9
  endloop
 endfacet
 facet normal -0.0909746 0.956386 0.277577
  outer loop
   vertex -12 -18.6774 9
   vertex -15 -18.9628 9
   vertex -15 -19.8335 12
  endloop
 endfacet
 facet normal -0.115631 0.953927 0.276863
  outer loop
   vertex -15 -19.8335 12
   vertex -15 -18.9628 9
   vertex -18 -19.3264 9
  endloop
 endfacet
 facet normal -0.451934 0.687706 0.568169
  outer loop
   vertex -15 -19.8335 12
   vertex -18 -19.3264 9
   vertex -16.7751 -21 12
  endloop
 endfacet
 facet normal -0.492381 0.658946 0.56864
  outer loop
   vertex -16.7751 -21 12
   vertex -18 -19.3264 9
   vertex -18 -21 10.9394
  endloop
 endfacet
 facet normal -0.552368 0.53661 0.637918
  outer loop
   vertex -16.7751 -21 12
   vertex -18 -21 10.9394
   vertex -18 -22.2609 12
  endloop
 endfacet
 facet normal -0.0872852 0.760303 0.643678
  outer loop
   vertex -15 -18.9628 9
   vertex -12 -18 8.26961
   vertex -15 -18 7.8628
  endloop
 endfacet
 facet normal -0.119226 0.461253 0.879222
  outer loop
   vertex -15 -18 7.8628
   vertex -12 -18 8.26961
   vertex -12 -15 6.69577
  endloop
 endfacet
 facet normal -0.0921204 0.75997 0.643397
  outer loop
   vertex -15 -18.9628 9
   vertex -15 -18 7.8628
   vertex -18 -19.3264 9
  endloop
 endfacet
 facet normal 0.319869 0.485545 0.813591
  outer loop
   vertex -21 -18.1683 9
   vertex -18 -18 7.72011
   vertex -21 -18 8.89958
  endloop
 endfacet
 facet normal 0.341995 0.355482 0.869869
  outer loop
   vertex -21 -18 8.89958
   vertex -18 -18 7.72011
   vertex -21 -15 7.67359
  endloop
 endfacet
 facet normal 0.69228 0.272987 0.668002
  outer loop
   vertex -21 -18 8.89958
   vertex -21 -15 7.67359
   vertex -22.2799 -15 9
  endloop
 endfacet
 facet normal 0.636183 0.395389 0.662525
  outer loop
   vertex -21 -18.1683 9
   vertex -21 -18 8.89958
   vertex -21.1046 -18 9
  endloop
 endfacet
 facet normal 0.66845 0.261879 0.696128
  outer loop
   vertex -21.1046 -18 9
   vertex -21 -18 8.89958
   vertex -22.2799 -15 9
  endloop
 endfacet
 facet normal 0.826435 0.323773 0.460626
  outer loop
   vertex -21.1046 -18 9
   vertex -22.2799 -15 9
   vertex -22.7767 -18 12
  endloop
 endfacet
 facet normal -0.642215 0.111288 0.758403
  outer loop
   vertex 21.376 -15 9
   vertex 21 -15 8.68164
   vertex 21 -17.1695 9
  endloop
 endfacet
 facet normal -0.23459 0.141134 0.961794
  outer loop
   vertex 21 -17.1695 9
   vertex 21 -15 8.68164
   vertex 20.5004 -18 9
  endloop
 endfacet
 facet normal -0.367534 0.221115 0.903342
  outer loop
   vertex 21 -17.1695 9
   vertex 20.5004 -18 9
   vertex 21 -18 9.20328
  endloop
 endfacet
 facet normal -0.20183 0.844502 0.496066
  outer loop
   vertex 21 -18 9.20328
   vertex 20.5004 -18 9
   vertex 18 -18.5976 9
  endloop
 endfacet
 facet normal -0.196573 0.78871 0.582491
  outer loop
   vertex 21 -18 9.20328
   vertex 18 -18.5976 9
   vertex 21 -20.0655 12
  endloop
 endfacet
 facet normal 0.0377735 0.911992 0.408466
  outer loop
   vertex 21 -20.0655 12
   vertex 18 -18.5976 9
   vertex 18 -19.9412 12
  endloop
 endfacet
 facet normal 0.0413566 0.9985 -0.0358679
  outer loop
   vertex 21 -20.0655 12
   vertex 18 -19.9412 12
   vertex 18 -19.8335 15
  endloop
 endfacet
 facet normal 0.260756 0.964783 -0.0346567
  outer loop
   vertex 18 -19.8335 15
   vertex 18 -19.9412 12
   vertex 15 -19.1304 12
  endloop
 endfacet
 facet normal 0.513297 0.793314 -0.327382
  outer loop
   vertex 18 -19.8335 15
   vertex 15 -19.1304 12
   vertex 15 -18 14.7392
  endloop
 endfacet
 facet normal 0.525269 0.786589 -0.324607
  outer loop
   vertex 15 -18 14.7392
   vertex 15 -19.1304 12
   vertex 13.3072 -18 12
  endloop
 endfacet
 facet normal -0.230142 0.140517 0.962959
  outer loop
   vertex 20.5004 -18 9
   vertex 21 -15 8.68164
   vertex 18 -18 8.40242
  endloop
 endfacet
 facet normal -0.321735 0.236402 0.916843
  outer loop
   vertex 18 -18 8.40242
   vertex 21 -15 8.68164
   vertex 18 -15 7.62889
  endloop
 endfacet
 facet normal -0.0285913 0.249575 0.967933
  outer loop
   vertex 18 -18 8.40242
   vertex 18 -15 7.62889
   vertex 15 -15 7.54028
  endloop
 endfacet
 facet normal -0.0291528 0.158406 0.986944
  outer loop
   vertex 15 -15 7.54028
   vertex 18 -15 7.62889
   vertex 15 -12 7.05877
  endloop
 endfacet
 facet normal 0.0420244 0.158333 0.986491
  outer loop
   vertex 15 -15 7.54028
   vertex 15 -12 7.05877
   vertex 12 -12 7.18657
  endloop
 endfacet
 facet normal 0.0408538 0.280399 0.959014
  outer loop
   vertex 12 -12 7.18657
   vertex 15 -12 7.05877
   vertex 15 -9 6.18163
  endloop
 endfacet
 facet normal -0.134948 0.433426 0.891028
  outer loop
   vertex 12 -12 7.18657
   vertex 15 -9 6.18163
   vertex 12 -9.56067 6
  endloop
 endfacet
 facet normal -0.142841 0.484775 0.862896
  outer loop
   vertex 12 -9.56067 6
   vertex 15 -9 6.18163
   vertex 13.9028 -9 6
  endloop
 endfacet
 facet normal 0.326433 0.453224 0.829476
  outer loop
   vertex 15 -18 8.59737
   vertex 12 -15 8.1388
   vertex 12 -16.5761 9
  endloop
 endfacet
 facet normal 0.517476 0.410299 0.750915
  outer loop
   vertex 12 -16.5761 9
   vertex 12 -15 8.1388
   vertex 10.7503 -15 9
  endloop
 endfacet
 facet normal -0.623276 0.263681 0.736206
  outer loop
   vertex -7.8628 -15 9
   vertex -9 -15 8.03724
   vertex -9 -17.688 9
  endloop
 endfacet
 facet normal -0.234109 0.327817 0.915275
  outer loop
   vertex -9 -17.688 9
   vertex -9 -15 8.03724
   vertex -9.43682 -18 9
  endloop
 endfacet
 facet normal -0.518117 0.725506 0.452985
  outer loop
   vertex -9 -17.688 9
   vertex -9.43682 -18 9
   vertex -9 -18 9.49962
  endloop
 endfacet
 facet normal -0.249359 0.943552 0.218013
  outer loop
   vertex -9 -18 9.49962
   vertex -9.43682 -18 9
   vertex -12 -18.6774 9
  endloop
 endfacet
 facet normal -0.250114 0.941696 0.225059
  outer loop
   vertex -9 -18 9.49962
   vertex -12 -18.6774 9
   vertex -9 -18.5976 12
  endloop
 endfacet
 facet normal -0.0873754 0.994311 0.0609206
  outer loop
   vertex -9 -18.5976 12
   vertex -12 -18.6774 9
   vertex -12 -18.8612 12
  endloop
 endfacet
 facet normal -0.0715401 0.814109 -0.576289
  outer loop
   vertex -9 -18.5976 12
   vertex -12 -18.8612 12
   vertex -12 -18 13.2166
  endloop
 endfacet
 facet normal -0.500272 0.706722 -0.500272
  outer loop
   vertex -12 -18 13.2166
   vertex -12 -18.8612 12
   vertex -13.7834 -18 15
  endloop
 endfacet
 facet normal -0.643049 0.415905 -0.643049
  outer loop
   vertex -12 -18 13.2166
   vertex -13.7834 -18 15
   vertex -12 -15.2426 15
  endloop
 endfacet
 facet normal -0.740396 0.478867 -0.471699
  outer loop
   vertex -12 -15.2426 15
   vertex -13.7834 -18 15
   vertex -13.7544 -15 18
  endloop
 endfacet
 facet normal -0.707145 0.539408 -0.45715
  outer loop
   vertex -12 -15.2426 15
   vertex -13.7544 -15 18
   vertex -12 -15 15.2863
  endloop
 endfacet
 facet normal -0.825936 0.180925 -0.533944
  outer loop
   vertex -12 -15 15.2863
   vertex -13.7544 -15 18
   vertex -13.0972 -12 18
  endloop
 endfacet
 facet normal -0.641676 0.372027 -0.670707
  outer loop
   vertex -12 -15 15.2863
   vertex -13.0972 -12 18
   vertex -12 -12 16.9503
  endloop
 endfacet
 facet normal -0.314127 -0.890796 -0.328339
  outer loop
   vertex -12 -12 16.9503
   vertex -13.0972 -12 18
   vertex -15 -11.329 18
  endloop
 endfacet
 facet normal -0.361234 -0.751558 -0.551969
  outer loop
   vertex -12 -12 16.9503
   vertex -15 -11.329 18
   vertex -12 -10.5676 15
  endloop
 endfacet
 facet normal -0.332699 -0.779628 -0.530558
  outer loop
   vertex -12 -10.5676 15
   vertex -15 -11.329 18
   vertex -15 -9.28742 15
  endloop
 endfacet
 facet normal -0.166896 -0.391096 -0.905091
  outer loop
   vertex -12 -10.5676 15
   vertex -15 -9.28742 15
   vertex -12 -9 14.3226
  endloop
 endfacet
 facet normal -0.119781 -0.604978 -0.787181
  outer loop
   vertex -12 -9 14.3226
   vertex -15 -9.28742 15
   vertex -15 -9 14.7791
  endloop
 endfacet
 facet normal -0.129077 -0.513587 -0.848273
  outer loop
   vertex -12 -9 14.3226
   vertex -15 -9 14.7791
   vertex -15 -6 12.9628
  endloop
 endfacet
 facet normal 0.086489 -0.515979 -0.852224
  outer loop
   vertex -15 -6 12.9628
   vertex -15 -9 14.7791
   vertex -18 -6 12.6583
  endloop
 endfacet
 facet normal 0.0700936 -0.719764 -0.690672
  outer loop
   vertex -15 -6 12.9628
   vertex -18 -6 12.6583
   vertex -18 -5.36831 12
  endloop
 endfacet
 facet normal -0.258777 0.329118 0.908139
  outer loop
   vertex -9.43682 -18 9
   vertex -9 -15 8.03724
   vertex -12 -18 8.26961
  endloop
 endfacet
 facet normal -0.368163 0.431936 0.823339
  outer loop
   vertex -12 -18 8.26961
   vertex -9 -15 8.03724
   vertex -12 -15 6.69577
  endloop
 endfacet
 facet normal 0.470372 0.495966 0.729909
  outer loop
   vertex -18 -15.4685 6
   vertex -18.494 -15 6
   vertex -18 -18 7.72011
  endloop
 endfacet
 facet normal 0.482857 0.494068 0.723012
  outer loop
   vertex -18 -18 7.72011
   vertex -18.494 -15 6
   vertex -21 -15 7.67359
  endloop
 endfacet
 facet normal -0.623265 -0.264217 0.736024
  outer loop
   vertex 21.376 -15 9
   vertex 21 -14.1132 9
   vertex 21 -15 8.68164
  endloop
 endfacet
 facet normal -0.520918 -0.288407 0.803409
  outer loop
   vertex 21 -15 8.68164
   vertex 21 -14.1132 9
   vertex 18 -12 7.81343
  endloop
 endfacet
 facet normal -0.330564 -0.057943 0.942003
  outer loop
   vertex 21 -15 8.68164
   vertex 18 -12 7.81343
   vertex 18 -15 7.62889
  endloop
 endfacet
 facet normal -0.243518 -0.0595462 0.968067
  outer loop
   vertex 18 -15 7.62889
   vertex 18 -12 7.81343
   vertex 15 -12 7.05877
  endloop
 endfacet
 facet normal 0.529657 0.358793 0.76859
  outer loop
   vertex 12 -15 8.1388
   vertex 9 -12.4162 9
   vertex 10.7503 -15 9
  endloop
 endfacet
 facet normal 0.821482 0.556477 0.124502
  outer loop
   vertex 10.7503 -15 9
   vertex 9 -12.4162 9
   vertex 9 -13.0874 12
  endloop
 endfacet
 facet normal 0.561681 0.413252 0.716755
  outer loop
   vertex 12 -15 8.1388
   vertex 9 -12 8.76006
   vertex 9 -12.4162 9
  endloop
 endfacet
 facet normal 0.685305 0.363754 0.630904
  outer loop
   vertex 9 -12.4162 9
   vertex 9 -12 8.76006
   vertex 8.77911 -12 9
  endloop
 endfacet
 facet normal 0.878464 0.466282 0.104322
  outer loop
   vertex 9 -12.4162 9
   vertex 8.77911 -12 9
   vertex 9 -13.0874 12
  endloop
 endfacet
 facet normal -0.630903 0.215906 0.745216
  outer loop
   vertex -7.8628 -15 9
   vertex -9 -12 7.16807
   vertex -9 -15 8.03724
  endloop
 endfacet
 facet normal -0.394637 0.255693 0.882543
  outer loop
   vertex -9 -15 8.03724
   vertex -9 -12 7.16807
   vertex -12 -15 6.69577
  endloop
 endfacet
 facet normal -0.821303 0.0363312 0.569334
  outer loop
   vertex -7.8628 -15 9
   vertex -7.73009 -12 9
   vertex -9 -12 7.16807
  endloop
 endfacet
 facet normal -0.696163 0.531477 0.482586
  outer loop
   vertex -9 -12 7.16807
   vertex -7.73009 -12 9
   vertex -9 -10.9394 6
  endloop
 endfacet
 facet normal -0.632923 -0.104984 0.767064
  outer loop
   vertex 19.9384 -12 9
   vertex 19.4408 -9 9
   vertex 18 -9 7.81117
  endloop
 endfacet
 facet normal -0.636388 -0.0127516 0.771263
  outer loop
   vertex 18 -9 7.81117
   vertex 19.4408 -9 9
   vertex 18 -6 7.86077
  endloop
 endfacet
 facet normal -0.257676 -0.0159729 0.966099
  outer loop
   vertex 18 -9 7.81117
   vertex 18 -6 7.86077
   vertex 15 -6 7.06062
  endloop
 endfacet
 facet normal -0.238811 -0.375875 0.89537
  outer loop
   vertex 15 -6 7.06062
   vertex 18 -6 7.86077
   vertex 18 -3.28625 9
  endloop
 endfacet
 facet normal 0.270946 -0.73972 0.615957
  outer loop
   vertex 15 -6 7.06062
   vertex 18 -3.28625 9
   vertex 15 -4.3851 9
  endloop
 endfacet
 facet normal 0.340155 -0.92867 -0.147875
  outer loop
   vertex 15 -4.3851 9
   vertex 18 -3.28625 9
   vertex 15 -4.8628 12
  endloop
 endfacet
 facet normal 0.0650402 -0.985467 -0.156919
  outer loop
   vertex 15 -4.3851 9
   vertex 15 -4.8628 12
   vertex 12 -5.0608 12
  endloop
 endfacet
 facet normal 0.0442372 -0.670267 -0.7408
  outer loop
   vertex 12 -5.0608 12
   vertex 15 -4.8628 12
   vertex 15 -6 13.0289
  endloop
 endfacet
 facet normal -0.0908155 -0.853046 -0.513872
  outer loop
   vertex 12 -5.0608 12
   vertex 15 -6 13.0289
   vertex 12 -6 13.5591
  endloop
 endfacet
 facet normal -0.160953 -0.38032 -0.910742
  outer loop
   vertex 12 -6 13.5591
   vertex 15 -6 13.0289
   vertex 15 -9 14.2817
  endloop
 endfacet
 facet normal -0.264102 -0.467324 -0.843717
  outer loop
   vertex 12 -6 13.5591
   vertex 15 -9 14.2817
   vertex 12 -8.60142 15
  endloop
 endfacet
 facet normal -0.260588 -0.31959 -0.911019
  outer loop
   vertex 12 -8.60142 15
   vertex 15 -9 14.2817
   vertex 12.4888 -9 15
  endloop
 endfacet
 facet normal -0.447772 -0.549154 -0.705642
  outer loop
   vertex 12 -8.60142 15
   vertex 12.4888 -9 15
   vertex 12 -9 15.3102
  endloop
 endfacet
 facet normal -0.4969 0.374036 -0.783063
  outer loop
   vertex 12 -9 15.3102
   vertex 12.4888 -9 15
   vertex 12 -9.6494 15
  endloop
 endfacet
 facet normal 0.444225 0.386151 -0.808426
  outer loop
   vertex 12 -9 15.3102
   vertex 12 -9.6494 15
   vertex 11.4355 -9 15
  endloop
 endfacet
 facet normal 0.333719 0.290091 -0.896927
  outer loop
   vertex 11.4355 -9 15
   vertex 12 -9.6494 15
   vertex 9 -9 14.0938
  endloop
 endfacet
 facet normal 0.312662 -0.442814 -0.840332
  outer loop
   vertex 11.4355 -9 15
   vertex 9 -9 14.0938
   vertex 12 -8.60142 15
  endloop
 endfacet
 facet normal 0.312184 -0.460312 -0.831056
  outer loop
   vertex 12 -8.60142 15
   vertex 9 -9 14.0938
   vertex 12 -6 13.5591
  endloop
 endfacet
 facet normal -0.234698 0.272794 0.933006
  outer loop
   vertex 15 -12 7.05877
   vertex 18 -12 7.81343
   vertex 15 -9 6.18163
  endloop
 endfacet
 facet normal -0.639108 0.599078 0.482334
  outer loop
   vertex -9 -10.9394 6
   vertex -7.73009 -12 9
   vertex -7.18209 -9 6
  endloop
 endfacet
 facet normal -0.862147 0.428243 0.270758
  outer loop
   vertex -7.18209 -9 6
   vertex -7.73009 -12 9
   vertex -6.23994 -9 9
  endloop
 endfacet
 facet normal 0.695386 -0.0301305 0.718004
  outer loop
   vertex -19.6295 -9 6
   vertex -21 -9 7.32732
   vertex -21 -12 7.20142
  endloop
 endfacet
 facet normal 0.788449 -0.0257895 0.614559
  outer loop
   vertex -21 -12 7.20142
   vertex -21 -9 7.32732
   vertex -22.3038 -9 9
  endloop
 endfacet
 facet normal 0.611766 -0.193909 0.766904
  outer loop
   vertex -21 -12 7.20142
   vertex -22.3038 -9 9
   vertex -23.2547 -12 9
  endloop
 endfacet
 facet normal -0.531337 0.0655573 0.84462
  outer loop
   vertex 19.4408 -9 9
   vertex 19.8109 -6 9
   vertex 18 -6 7.86077
  endloop
 endfacet
 facet normal -0.501748 -0.334825 0.797585
  outer loop
   vertex 18 -6 7.86077
   vertex 19.8109 -6 9
   vertex 18 -3.28625 9
  endloop
 endfacet
 facet normal 0.577238 0.591155 0.563323
  outer loop
   vertex 7.10738 -9 9
   vertex 9 -9 7.06062
   vertex 6 -7.91869 9
  endloop
 endfacet
 facet normal 0.592 0.475947 0.650392
  outer loop
   vertex 6 -7.91869 9
   vertex 9 -9 7.06062
   vertex 9 -7.55064 6
  endloop
 endfacet
 facet normal 0.166273 0.917833 0.360467
  outer loop
   vertex 3.07974 -6 6
   vertex 3 -6 6.03678
   vertex 3 -7.16376 9
  endloop
 endfacet
 facet normal 0.0603037 0.929096 0.36489
  outer loop
   vertex 3 -7.16376 9
   vertex 3 -6 6.03678
   vertex 0 -6.96905 9
  endloop
 endfacet
 facet normal 0.209053 0.909823 0.358497
  outer loop
   vertex 3.07974 -6 6
   vertex 3 -7.16376 9
   vertex 6 -6.671 6
  endloop
 endfacet
 facet normal 0.0923706 0.914997 0.392744
  outer loop
   vertex 0 -6.96905 9
   vertex 3 -6 6.03678
   vertex 0 -6 6.74236
  endloop
 endfacet
 facet normal 0.219894 -0.278407 0.934953
  outer loop
   vertex 0 -6 6.74236
   vertex 3 -6 6.03678
   vertex 0 -3 7.63569
  endloop
 endfacet
 facet normal -0.178026 -0.280833 0.943101
  outer loop
   vertex 0 -6 6.74236
   vertex 0 -3 7.63569
   vertex -3 -3 7.06939
  endloop
 endfacet
 facet normal -0.124018 -0.743628 0.656991
  outer loop
   vertex -3 -3 7.06939
   vertex 0 -3 7.63569
   vertex 0 -1.79464 9
  endloop
 endfacet
 facet normal -0.0640316 -0.798777 0.598209
  outer loop
   vertex -3 -3 7.06939
   vertex 0 -1.79464 9
   vertex -3 -1.55415 9
  endloop
 endfacet
 facet normal -0.0766506 -0.956196 -0.282514
  outer loop
   vertex -3 -1.55415 9
   vertex 0 -1.79464 9
   vertex -3 -2.44052 12
  endloop
 endfacet
 facet normal 0.0883851 -0.955264 -0.282238
  outer loop
   vertex -3 -1.55415 9
   vertex -3 -2.44052 12
   vertex -6 -2.71809 12
  endloop
 endfacet
 facet normal 0.060031 -0.648814 -0.758576
  outer loop
   vertex -6 -2.71809 12
   vertex -3 -2.44052 12
   vertex -3 -3 12.4785
  endloop
 endfacet
 facet normal 0.0604506 -0.646967 -0.760118
  outer loop
   vertex -6 -2.71809 12
   vertex -3 -3 12.4785
   vertex -6 -3 12.2399
  endloop
 endfacet
 facet normal 0.0792027 0.0434351 -0.995912
  outer loop
   vertex -6 -3 12.2399
   vertex -3 -3 12.4785
   vertex -3 -6 12.3477
  endloop
 endfacet
 facet normal -0.159955 0.854277 0.494596
  outer loop
   vertex -3 -6.13192 6
   vertex 0 -6 6.74236
   vertex -2.29545 -6 6
  endloop
 endfacet
 facet normal -0.284569 -0.380488 0.879915
  outer loop
   vertex -2.29545 -6 6
   vertex 0 -6 6.74236
   vertex -3 -3 7.06939
  endloop
 endfacet
 facet normal -0.136715 0.910297 0.390727
  outer loop
   vertex 0 -6 6.74236
   vertex -3 -6.13192 6
   vertex 0 -6.96905 9
  endloop
 endfacet
 facet normal -0.117971 0.919653 0.374594
  outer loop
   vertex 0 -6.96905 9
   vertex -3 -6.13192 6
   vertex -3 -7.35388 9
  endloop
 endfacet
 facet normal -0.121372 0.946166 -0.300064
  outer loop
   vertex 0 -6.96905 9
   vertex -3 -7.35388 9
   vertex -3 -6.40247 12
  endloop
 endfacet
 facet normal -0.579248 0.777013 -0.246419
  outer loop
   vertex -3 -6.40247 12
   vertex -3 -7.35388 9
   vertex -6 -8.63892 12
  endloop
 endfacet
 facet normal -0.315428 0.423121 -0.849396
  outer loop
   vertex -3 -6.40247 12
   vertex -6 -8.63892 12
   vertex -6 -6 13.3146
  endloop
 endfacet
 facet normal -0.393278 0.851493 0.346831
  outer loop
   vertex -3 -6.13192 6
   vertex -6 -8.73949 9
   vertex -3 -7.35388 9
  endloop
 endfacet
 facet normal -0.419111 0.907425 -0.0304201
  outer loop
   vertex -3 -7.35388 9
   vertex -6 -8.73949 9
   vertex -6 -8.63892 12
  endloop
 endfacet
 facet normal -0.357215 -0.717763 0.597673
  outer loop
   vertex 15 -6 7.06062
   vertex 15 -4.3851 9
   vertex 13.2254 -6 6
  endloop
 endfacet
 facet normal -0.517709 -0.587136 0.622293
  outer loop
   vertex 13.2254 -6 6
   vertex 15 -4.3851 9
   vertex 12 -4.91948 6
  endloop
 endfacet
 facet normal -0.0524565 -0.972776 0.225733
  outer loop
   vertex 12 -4.91948 6
   vertex 15 -4.3851 9
   vertex 12 -4.22333 9
  endloop
 endfacet
 facet normal -0.0518688 -0.961878 -0.268515
  outer loop
   vertex 12 -4.22333 9
   vertex 15 -4.3851 9
   vertex 12 -5.0608 12
  endloop
 endfacet
 facet normal -0.140149 -0.953668 -0.266223
  outer loop
   vertex 12 -4.22333 9
   vertex 12 -5.0608 12
   vertex 9 -4.61993 12
  endloop
 endfacet
 facet normal -0.134845 -0.917581 -0.373981
  outer loop
   vertex 9 -4.61993 12
   vertex 12 -5.0608 12
   vertex 9 -5.84264 15
  endloop
 endfacet
 facet normal -0.48806 -0.808256 -0.329423
  outer loop
   vertex 9 -4.61993 12
   vertex 9 -5.84264 15
   vertex 6.31731 -3 12
  endloop
 endfacet
 facet normal 0.221522 -0.601213 -0.76777
  outer loop
   vertex 6.31731 -3 12
   vertex 9 -5.84264 15
   vertex 6 -6 14.2576
  endloop
 endfacet
 facet normal -0.743853 -0.349864 -0.569454
  outer loop
   vertex 6.31731 -3 12
   vertex 6 -6 14.2576
   vertex 6 -3 12.4145
  endloop
 endfacet
 facet normal -0.189921 -0.513952 -0.836531
  outer loop
   vertex 6 -3 12.4145
   vertex 6 -6 14.2576
   vertex 3 -3 13.0956
  endloop
 endfacet
 facet normal -0.191994 -0.49799 -0.845662
  outer loop
   vertex 6 -3 12.4145
   vertex 3 -3 13.0956
   vertex 3 -1.13953 12
  endloop
 endfacet
 facet normal -0.54971 -0.80124 -0.236292
  outer loop
   vertex 9 -3 8.02538
   vertex 9.87061 -3 6
   vertex 9 -3.28742 9
  endloop
 endfacet
 facet normal -0.647133 -0.717904 -0.25658
  outer loop
   vertex 9 -3.28742 9
   vertex 9.87061 -3 6
   vertex 12 -4.91948 6
  endloop
 endfacet
 facet normal -0.290764 -0.93203 0.216278
  outer loop
   vertex 9 -3.28742 9
   vertex 12 -4.91948 6
   vertex 12 -4.22333 9
  endloop
 endfacet
 facet normal -0.618994 -0.753321 -0.22216
  outer loop
   vertex 9 -3 8.02538
   vertex 9 -3.28742 9
   vertex 8.6502 -3 9
  endloop
 endfacet
 facet normal -0.600483 -0.730793 -0.324595
  outer loop
   vertex 8.6502 -3 9
   vertex 9 -3.28742 9
   vertex 9 -4.61993 12
  endloop
 endfacet
 facet normal -0.479616 -0.794271 -0.372964
  outer loop
   vertex 8.6502 -3 9
   vertex 9 -4.61993 12
   vertex 6.31731 -3 12
  endloop
 endfacet
 facet normal 0.265573 -0.961987 0.0636593
  outer loop
   vertex -12 -4.3851 6
   vertex -9 -3.35838 9
   vertex -12 -4.18658 9
  endloop
 endfacet
 facet normal 0.255909 -0.92698 -0.274259
  outer loop
   vertex -12 -4.18658 9
   vertex -9 -3.35838 9
   vertex -12 -5.07417 12
  endloop
 endfacet
 facet normal -0.0674064 -0.95673 -0.283061
  outer loop
   vertex -12 -4.18658 9
   vertex -12 -5.07417 12
   vertex -15 -4.8628 12
  endloop
 endfacet
 facet normal -0.0511282 -0.725687 -0.686123
  outer loop
   vertex -15 -4.8628 12
   vertex -12 -5.07417 12
   vertex -12 -6 12.9792
  endloop
 endfacet
 facet normal 0.00418831 -0.646137 -0.76321
  outer loop
   vertex -15 -4.8628 12
   vertex -12 -6 12.9792
   vertex -15 -6 12.9628
  endloop
 endfacet
 facet normal 0.00500846 -0.408687 -0.912661
  outer loop
   vertex -15 -6 12.9628
   vertex -12 -6 12.9792
   vertex -12 -9 14.3226
  endloop
 endfacet
 facet normal -0.268591 -0.961152 0.0636041
  outer loop
   vertex -12 -4.3851 6
   vertex -12 -4.18658 9
   vertex -15 -3.34824 9
  endloop
 endfacet
 facet normal -0.242041 -0.866144 -0.437277
  outer loop
   vertex -15 -3.34824 9
   vertex -12 -4.18658 9
   vertex -15 -4.8628 12
  endloop
 endfacet
 facet normal 0.148747 -0.882756 -0.445664
  outer loop
   vertex -15 -3.34824 9
   vertex -15 -4.8628 12
   vertex -18 -5.36831 12
  endloop
 endfacet
 facet normal 0.108237 -0.642346 -0.758733
  outer loop
   vertex -18 -5.36831 12
   vertex -15 -4.8628 12
   vertex -15 -6 12.9628
  endloop
 endfacet
 facet normal -0.745085 -0.611014 -0.267415
  outer loop
   vertex 9 -3 8.02538
   vertex 8.6502 -3 9
   vertex 6.19003 0 9
  endloop
 endfacet
 facet normal -0.662672 -0.54343 -0.515315
  outer loop
   vertex 6.19003 0 9
   vertex 8.6502 -3 9
   vertex 6.31731 -3 12
  endloop
 endfacet
 facet normal -0.575782 -0.590218 -0.565789
  outer loop
   vertex 6.19003 0 9
   vertex 6.31731 -3 12
   vertex 6 -2.69045 12
  endloop
 endfacet
 facet normal -0.615827 -0.631267 -0.471444
  outer loop
   vertex 6 -2.69045 12
   vertex 6.31731 -3 12
   vertex 6 -3 12.4145
  endloop
 endfacet
 facet normal -0.382682 -0.740232 -0.552822
  outer loop
   vertex 6 -2.69045 12
   vertex 6 -3 12.4145
   vertex 3 -1.13953 12
  endloop
 endfacet
 facet normal 0.430118 -0.67655 0.597728
  outer loop
   vertex 2.82286 0 9
   vertex 0 -1.79464 9
   vertex 0 -3 7.63569
  endloop
 endfacet
 facet normal -0.625189 0.627817 0.463665
  outer loop
   vertex 21 -18 9.20328
   vertex 21 -20.0655 12
   vertex 23.0742 -18 12
  endloop
 endfacet
 facet normal -0.673762 0.676594 -0.297094
  outer loop
   vertex 23.0742 -18 12
   vertex 21 -20.0655 12
   vertex 21.7513 -18 15
  endloop
 endfacet
 facet normal -0.912477 -0.0741444 -0.402355
  outer loop
   vertex 23.0742 -18 12
   vertex 21.7513 -18 15
   vertex 22.8304 -15 12
  endloop
 endfacet
 facet normal 0.239486 0.886085 0.396863
  outer loop
   vertex 18 -18.5976 9
   vertex 15 -19.1304 12
   vertex 18 -19.9412 12
  endloop
 endfacet
 facet normal -0.320942 0.921157 0.22015
  outer loop
   vertex -9 -18 9.49962
   vertex -9 -18.5976 12
   vertex -7.28487 -18 12
  endloop
 endfacet
 facet normal -0.267179 0.766849 -0.583573
  outer loop
   vertex -7.28487 -18 12
   vertex -9 -18.5976 12
   vertex -9 -18 12.7852
  endloop
 endfacet
 facet normal -0.411574 0.149926 -0.89896
  outer loop
   vertex -7.28487 -18 12
   vertex -9 -18 12.7852
   vertex -6.19204 -15 12
  endloop
 endfacet
 facet normal -0.53363 0.291687 -0.793825
  outer loop
   vertex -6.19204 -15 12
   vertex -9 -18 12.7852
   vertex -9 -15 13.8876
  endloop
 endfacet
 facet normal -0.544467 -0.218042 -0.809946
  outer loop
   vertex -6.19204 -15 12
   vertex -9 -15 13.8876
   vertex -7.39345 -12 12
  endloop
 endfacet
 facet normal -0.696838 -0.0755937 -0.713234
  outer loop
   vertex -7.39345 -12 12
   vertex -9 -15 13.8876
   vertex -9 -12 13.5696
  endloop
 endfacet
 facet normal -0.676462 0.251022 -0.692378
  outer loop
   vertex -7.39345 -12 12
   vertex -9 -12 13.5696
   vertex -6.28021 -9 12
  endloop
 endfacet
 facet normal -0.539544 0.0493901 -0.840507
  outer loop
   vertex -6.28021 -9 12
   vertex -9 -12 13.5696
   vertex -9 -9 13.7459
  endloop
 endfacet
 facet normal -0.30778 0.949677 0.0581859
  outer loop
   vertex -12 -18.6774 9
   vertex -15 -19.8335 12
   vertex -12 -18.8612 12
  endloop
 endfacet
 facet normal -0.302568 0.933595 -0.19197
  outer loop
   vertex -12 -18.8612 12
   vertex -15 -19.8335 12
   vertex -15 -19.2166 15
  endloop
 endfacet
 facet normal -0.600072 0.600073 -0.528985
  outer loop
   vertex -12 -18.8612 12
   vertex -15 -19.2166 15
   vertex -13.7834 -18 15
  endloop
 endfacet
 facet normal -0.620674 0.620675 -0.479088
  outer loop
   vertex -13.7834 -18 15
   vertex -15 -19.2166 15
   vertex -15 -18 16.5761
  endloop
 endfacet
 facet normal -0.688116 0.494349 -0.531145
  outer loop
   vertex -13.7834 -18 15
   vertex -15 -18 16.5761
   vertex -15 -16.4702 18
  endloop
 endfacet
 facet normal 0.446609 0.609576 -0.654949
  outer loop
   vertex -15 -16.4702 18
   vertex -15 -18 16.5761
   vertex -18 -15 17.3226
  endloop
 endfacet
 facet normal 0.57304 0.356146 0.738096
  outer loop
   vertex -21 -18.1683 9
   vertex -21.1046 -18 9
   vertex -21 -21 10.3664
  endloop
 endfacet
 facet normal 0.444737 0.384036 0.809151
  outer loop
   vertex -21 -21 10.3664
   vertex -21.1046 -18 9
   vertex -23.9722 -21 12
  endloop
 endfacet
 facet normal 0.824935 -0.32875 0.459789
  outer loop
   vertex -21.1046 -18 9
   vertex -22.7767 -18 12
   vertex -23.9722 -21 12
  endloop
 endfacet
 facet normal 0.927583 -0.369657 -0.0542633
  outer loop
   vertex -23.9722 -21 12
   vertex -22.7767 -18 12
   vertex -23.7967 -21 15
  endloop
 endfacet
 facet normal -0.794807 0.144285 0.589461
  outer loop
   vertex 21 -18 9.20328
   vertex 23.0742 -18 12
   vertex 21 -17.1695 9
  endloop
 endfacet
 facet normal -0.796395 0.138006 0.58882
  outer loop
   vertex 21 -17.1695 9
   vertex 23.0742 -18 12
   vertex 21.376 -15 9
  endloop
 endfacet
 facet normal -0.897431 -0.0729219 0.435086
  outer loop
   vertex 21.376 -15 9
   vertex 23.0742 -18 12
   vertex 22.8304 -15 12
  endloop
 endfacet
 facet normal -0.611132 0.671404 0.419206
  outer loop
   vertex -9 -18 9.49962
   vertex -7.28487 -18 12
   vertex -9 -17.688 9
  endloop
 endfacet
 facet normal -0.801138 0.338927 0.493262
  outer loop
   vertex -9 -17.688 9
   vertex -7.28487 -18 12
   vertex -7.8628 -15 9
  endloop
 endfacet
 facet normal -0.832508 0.303262 0.46364
  outer loop
   vertex -7.28487 -18 12
   vertex -6.19204 -15 12
   vertex -7.8628 -15 9
  endloop
 endfacet
 facet normal -0.872999 0.038618 0.48619
  outer loop
   vertex -7.8628 -15 9
   vertex -6.19204 -15 12
   vertex -7.73009 -12 9
  endloop
 endfacet
 facet normal -0.92333 -0.369765 0.103612
  outer loop
   vertex -6.19204 -15 12
   vertex -7.39345 -12 12
   vertex -7.73009 -12 9
  endloop
 endfacet
 facet normal -0.891111 0.44263 0.0999961
  outer loop
   vertex -7.73009 -12 9
   vertex -7.39345 -12 12
   vertex -6.23994 -9 9
  endloop
 endfacet
 facet normal 0.906531 0.342075 0.247358
  outer loop
   vertex -23.2547 -12 9
   vertex -24 -12.1941 12
   vertex -22.9412 -15 12
  endloop
 endfacet
 facet normal 0.847843 0.319929 -0.422856
  outer loop
   vertex -22.9412 -15 12
   vertex -24 -12.1941 12
   vertex -24 -12 12.1469
  endloop
 endfacet
 facet normal 0.788179 0.304359 -0.534919
  outer loop
   vertex -22.9412 -15 12
   vertex -24 -12 12.1469
   vertex -22.0637 -12 15
  endloop
 endfacet
 facet normal 0.792851 -0.28609 -0.53809
  outer loop
   vertex -22.0637 -12 15
   vertex -24 -12 12.1469
   vertex -21 -9 14.9722
  endloop
 endfacet
 facet normal 0.794158 -0.286533 -0.535922
  outer loop
   vertex -22.0637 -12 15
   vertex -21 -9 14.9722
   vertex -21 -9.05196 15
  endloop
 endfacet
 facet normal -0.805105 -0.292916 0.515757
  outer loop
   vertex 21 -12 10.5443
   vertex 21.9325 -12 12
   vertex 21 -9.43681 12
  endloop
 endfacet
 facet normal -0.698181 -0.254014 -0.669343
  outer loop
   vertex 21 -9.43681 12
   vertex 21.9325 -12 12
   vertex 21 -12 12.9727
  endloop
 endfacet
 facet normal -0.606307 -0.282154 -0.743493
  outer loop
   vertex 21 -9.43681 12
   vertex 21 -12 12.9727
   vertex 20.7967 -9 12
  endloop
 endfacet
 facet normal -0.439557 -0.303852 -0.84526
  outer loop
   vertex 20.7967 -9 12
   vertex 21 -12 12.9727
   vertex 18 -9 13.4544
  endloop
 endfacet
 facet normal -0.461359 -0.00715623 -0.887185
  outer loop
   vertex 20.7967 -9 12
   vertex 18 -9 13.4544
   vertex 20.7502 -6 12
  endloop
 endfacet
 facet normal -0.388162 -0.0888567 -0.917298
  outer loop
   vertex 20.7502 -6 12
   vertex 18 -9 13.4544
   vertex 18 -6 13.1638
  endloop
 endfacet
 facet normal -0.359591 -0.385443 -0.849781
  outer loop
   vertex 20.7502 -6 12
   vertex 18 -6 13.1638
   vertex 18 -3.43427 12
  endloop
 endfacet
 facet normal 0.192999 -0.405307 -0.893576
  outer loop
   vertex 18 -3.43427 12
   vertex 18 -6 13.1638
   vertex 15 -4.8628 12
  endloop
 endfacet
 facet normal 0.429499 -0.90197 -0.0445003
  outer loop
   vertex 18 -3.43427 12
   vertex 15 -4.8628 12
   vertex 18 -3.28625 9
  endloop
 endfacet
 facet normal -0.784463 -0.306272 0.539273
  outer loop
   vertex 21 -12 10.5443
   vertex 21 -9.43681 12
   vertex 19.9384 -12 9
  endloop
 endfacet
 facet normal -0.749263 -0.348681 0.563051
  outer loop
   vertex 19.9384 -12 9
   vertex 21 -9.43681 12
   vertex 20.7967 -9 12
  endloop
 endfacet
 facet normal -0.901011 -0.149452 0.407239
  outer loop
   vertex 19.9384 -12 9
   vertex 20.7967 -9 12
   vertex 19.4408 -9 9
  endloop
 endfacet
 facet normal -0.90554 0.111727 0.409286
  outer loop
   vertex 19.4408 -9 9
   vertex 20.7967 -9 12
   vertex 19.8109 -6 9
  endloop
 endfacet
 facet normal 0.917927 0.394952 -0.037728
  outer loop
   vertex 8.52147 -12 12
   vertex 7.10738 -9 9
   vertex 7.23068 -9 12
  endloop
 endfacet
 facet normal 0.769843 0.637449 -0.0316415
  outer loop
   vertex 7.23068 -9 12
   vertex 7.10738 -9 9
   vertex 6 -7.51372 12
  endloop
 endfacet
 facet normal 0.64554 0.534523 -0.545493
  outer loop
   vertex 7.23068 -9 12
   vertex 6 -7.51372 12
   vertex 9 -9 14.0938
  endloop
 endfacet
 facet normal 0.635388 0.256365 -0.728395
  outer loop
   vertex 9 -9 14.0938
   vertex 6 -7.51372 12
   vertex 9 -6.42534 15
  endloop
 endfacet
 facet normal -0.431331 0.299524 -0.851022
  outer loop
   vertex 9 -9 14.0938
   vertex 9 -6.42534 15
   vertex 9.29536 -6 15
  endloop
 endfacet
 facet normal -0.528482 0.366988 -0.765524
  outer loop
   vertex 9.29536 -6 15
   vertex 9 -6.42534 15
   vertex 9 -6 15.2039
  endloop
 endfacet
 facet normal -0.388617 -0.729447 -0.562924
  outer loop
   vertex 9.29536 -6 15
   vertex 9 -6 15.2039
   vertex 9 -5.84264 15
  endloop
 endfacet
 facet normal 0.174114 -0.779581 -0.601613
  outer loop
   vertex 9 -5.84264 15
   vertex 9 -6 15.2039
   vertex 8.29545 -6 15
  endloop
 endfacet
 facet normal 0.180751 -0.809297 -0.558899
  outer loop
   vertex 9 -5.84264 15
   vertex 8.29545 -6 15
   vertex 6 -6 14.2576
  endloop
 endfacet
 facet normal 0.274154 0.454121 -0.847711
  outer loop
   vertex 6 -6 14.2576
   vertex 8.29545 -6 15
   vertex 9 -6.42534 15
  endloop
 endfacet
 facet normal 0.247607 0.804719 -0.539553
  outer loop
   vertex 6 -6 14.2576
   vertex 9 -6.42534 15
   vertex 6 -7.51372 12
  endloop
 endfacet
 facet normal -0.937458 0.347872 -0.0125824
  outer loop
   vertex -7.39345 -12 12
   vertex -6.28021 -9 12
   vertex -6.23994 -9 9
  endloop
 endfacet
 facet normal 0.947352 -0.226412 0.226409
  outer loop
   vertex -24.0891 -12 12
   vertex -24 -12 11.627
   vertex -24 -11.6271 12
  endloop
 endfacet
 facet normal -0.954216 -0.014801 0.298752
  outer loop
   vertex 20.7967 -9 12
   vertex 20.7502 -6 12
   vertex 19.8109 -6 9
  endloop
 endfacet
 facet normal -0.667115 -0.715075 0.208865
  outer loop
   vertex 19.8109 -6 9
   vertex 20.7502 -6 12
   vertex 18 -3.43427 12
  endloop
 endfacet
 facet normal -0.831489 -0.554867 -0.0273753
  outer loop
   vertex 19.8109 -6 9
   vertex 18 -3.43427 12
   vertex 18 -3.28625 9
  endloop
 endfacet
 facet normal 0.695399 0.712164 -0.0961364
  outer loop
   vertex 7.10738 -9 9
   vertex 6 -7.91869 9
   vertex 6 -7.51372 12
  endloop
 endfacet
 facet normal 0.390607 0.912283 -0.123151
  outer loop
   vertex 6 -7.51372 12
   vertex 6 -7.91869 9
   vertex 3 -6.22923 12
  endloop
 endfacet
 facet normal 0.315262 0.736312 -0.59871
  outer loop
   vertex 6 -7.51372 12
   vertex 3 -6.22923 12
   vertex 3 -6 12.2819
  endloop
 endfacet
 facet normal 0.520914 -0.853322 -0.0221438
  outer loop
   vertex -21 -7.3121 12
   vertex -21 -7.23425 9
   vertex -18.8506 -6 12
  endloop
 endfacet
 facet normal 0.771921 -0.54376 -0.329338
  outer loop
   vertex -18.8506 -6 12
   vertex -21 -7.23425 9
   vertex -20.1306 -6 9
  endloop
 endfacet
 facet normal 0.604755 -0.796143 -0.02066
  outer loop
   vertex -21 -7.23425 9
   vertex -21 -7.3121 12
   vertex -23.2221 -9 12
  endloop
 endfacet
 facet normal 0.551148 -0.725571 -0.412047
  outer loop
   vertex -23.2221 -9 12
   vertex -21 -7.3121 12
   vertex -21 -9 14.9722
  endloop
 endfacet
 facet normal 0.779328 -0.230613 -0.582637
  outer loop
   vertex -23.2221 -9 12
   vertex -21 -9 14.9722
   vertex -24 -12 12.1469
  endloop
 endfacet
 facet normal -0.274183 -0.878882 -0.390371
  outer loop
   vertex 9 -3.28742 9
   vertex 12 -4.22333 9
   vertex 9 -4.61993 12
  endloop
 endfacet
 facet normal 0.360115 0.478405 -0.800903
  outer loop
   vertex 2.08598 -6 12
   vertex 0 -6 11.0621
   vertex 0 -4.42979 12
  endloop
 endfacet
 facet normal -0.413963 0.466808 -0.781489
  outer loop
   vertex 0 -4.42979 12
   vertex 0 -6 11.0621
   vertex -1.77065 -6 12
  endloop
 endfacet
 facet normal -0.26017 0.293382 -0.919912
  outer loop
   vertex 0 -4.42979 12
   vertex -1.77065 -6 12
   vertex -3 -6 12.3477
  endloop
 endfacet
 facet normal 0.168516 -0.918791 -0.356968
  outer loop
   vertex -9 -3.35838 9
   vertex -9 -4.52393 12
   vertex -12 -5.07417 12
  endloop
 endfacet
 facet normal 0.131776 -0.718474 -0.682957
  outer loop
   vertex -12 -5.07417 12
   vertex -9 -4.52393 12
   vertex -9 -6 13.5528
  endloop
 endfacet
 facet normal 0.130242 -0.720448 -0.68117
  outer loop
   vertex -12 -5.07417 12
   vertex -9 -6 13.5528
   vertex -12 -6 12.9792
  endloop
 endfacet
 facet normal 0.187427 -0.0630883 -0.980251
  outer loop
   vertex -12 -6 12.9792
   vertex -9 -6 13.5528
   vertex -9 -9 13.7459
  endloop
 endfacet
 facet normal -0.172808 -0.402544 -0.898942
  outer loop
   vertex -12 -6 12.9792
   vertex -9 -9 13.7459
   vertex -12 -9 14.3226
  endloop
 endfacet
 facet normal -0.188465 0.0576098 -0.980389
  outer loop
   vertex -12 -9 14.3226
   vertex -9 -9 13.7459
   vertex -9 -12 13.5696
  endloop
 endfacet
 facet normal -0.531257 -0.336054 -0.777711
  outer loop
   vertex -12 -9 14.3226
   vertex -9 -12 13.5696
   vertex -12 -10.5676 15
  endloop
 endfacet
 facet normal -0.540025 -0.382254 -0.749836
  outer loop
   vertex -12 -10.5676 15
   vertex -9 -12 13.5696
   vertex -10.9861 -12 15
  endloop
 endfacet
 facet normal -0.751369 -0.531853 -0.39061
  outer loop
   vertex -12 -10.5676 15
   vertex -10.9861 -12 15
   vertex -12 -12 16.9503
  endloop
 endfacet
 facet normal -0.859578 0.247867 -0.446864
  outer loop
   vertex -12 -12 16.9503
   vertex -10.9861 -12 15
   vertex -12 -15 15.2863
  endloop
 endfacet
 facet normal -0.689415 -0.517021 -0.507342
  outer loop
   vertex 6.19003 0 9
   vertex 6 -2.69045 12
   vertex 6 0 9.25822
  endloop
 endfacet
 facet normal -0.346179 -0.669623 -0.657088
  outer loop
   vertex 6 0 9.25822
   vertex 6 -2.69045 12
   vertex 3 -1.13953 12
  endloop
 endfacet
 facet normal -0.0233615 -0.913853 -0.405373
  outer loop
   vertex 6 0 9.25822
   vertex 3 -1.13953 12
   vertex 3 0 9.43111
  endloop
 endfacet
 facet normal 0.0179374 -0.980983 -0.193262
  outer loop
   vertex 0 -1.79464 9
   vertex 0 -2.38567 12
   vertex -3 -2.44052 12
  endloop
 endfacet
 facet normal 0.0106481 -0.58234 -0.812876
  outer loop
   vertex -3 -2.44052 12
   vertex 0 -2.38567 12
   vertex 0 -3 12.4401
  endloop
 endfacet
 facet normal -0.00973185 -0.649955 -0.75991
  outer loop
   vertex -3 -2.44052 12
   vertex 0 -3 12.4401
   vertex -3 -3 12.4785
  endloop
 endfacet
 facet normal -0.0127934 0.0435684 -0.998969
  outer loop
   vertex -3 -3 12.4785
   vertex 0 -3 12.4401
   vertex -3 -6 12.3477
  endloop
 endfacet
 facet normal -0.192991 -0.834173 -0.516634
  outer loop
   vertex -3 -1.55415 9
   vertex -6 -2.71809 12
   vertex -6 -0.860085 9
  endloop
 endfacet
 facet normal 0.513881 -0.729315 -0.451692
  outer loop
   vertex -6 -0.860085 9
   vertex -6 -2.71809 12
   vertex -6.40009 -3 12
  endloop
 endfacet
 facet normal -0.733221 -0.413813 -0.539579
  outer loop
   vertex 6.19003 0 9
   vertex 6 0 9.25822
   vertex 6 0.3367 9
  endloop
 endfacet
 facet normal 0.0379054 -0.60812 -0.79294
  outer loop
   vertex 6 0.3367 9
   vertex 6 0 9.25822
   vertex 3 0.149704 9
  endloop
 endfacet
 facet normal -0.0189013 -0.944496 -0.327978
  outer loop
   vertex 3 0 9.43111
   vertex 3 0.149704 9
   vertex 6 0 9.25822
  endloop
 endfacet
 facet normal -0.58887 0.784256 0.195383
  outer loop
   vertex -20.483 -27 15
   vertex -21 -27 13.4418
   vertex -21 -27.3882 15
  endloop
 endfacet
 facet normal 0.196664 0.951391 0.237021
  outer loop
   vertex -21 -27.3882 15
   vertex -21 -27 13.4418
   vertex -22.878 -27 15
  endloop
 endfacet
 facet normal 0.189466 0.916567 -0.352147
  outer loop
   vertex -21 -27.3882 15
   vertex -22.878 -27 15
   vertex -21 -27 16.0104
  endloop
 endfacet
 facet normal 0.439982 0.371047 -0.817765
  outer loop
   vertex -21 -27 16.0104
   vertex -22.878 -27 15
   vertex -24 -24 15.7575
  endloop
 endfacet
 facet normal -0.793279 0.549028 0.263204
  outer loop
   vertex -20.483 -27 15
   vertex -21 -26.3088 12
   vertex -21 -27 13.4418
  endloop
 endfacet
 facet normal 0.40417 0.824801 0.395411
  outer loop
   vertex -21 -27 13.4418
   vertex -21 -26.3088 12
   vertex -24 -26.277 15
  endloop
 endfacet
 facet normal 0.453583 0.703863 0.546662
  outer loop
   vertex -21 -27 13.4418
   vertex -24 -26.277 15
   vertex -22.878 -27 15
  endloop
 endfacet
 facet normal 0.199347 0.309344 -0.929821
  outer loop
   vertex -22.878 -27 15
   vertex -24 -26.277 15
   vertex -24 -24 15.7575
  endloop
 endfacet
 facet normal 0.190933 0.96483 0.180686
  outer loop
   vertex -21 -26.3088 12
   vertex -24 -25.7151 12
   vertex -24 -26.277 15
  endloop
 endfacet
 facet normal 0.942537 0.328393 0.0614989
  outer loop
   vertex -24 -26.277 15
   vertex -24 -25.7151 12
   vertex -24.5976 -24 12
  endloop
 endfacet
 facet normal 0.958172 0.285055 0.0254915
  outer loop
   vertex -24 -26.277 15
   vertex -24.5976 -24 12
   vertex -24.6774 -24 15
  endloop
 endfacet
 facet normal -0.893373 0.391345 0.220758
  outer loop
   vertex -18 -22.2609 12
   vertex -18 -23.9532 15
   vertex -16.7064 -21 15
  endloop
 endfacet
 facet normal -0.675446 0.295881 -0.675446
  outer loop
   vertex -16.7064 -21 15
   vertex -18 -23.9532 15
   vertex -18 -21 16.2936
  endloop
 endfacet
 facet normal -0.585662 0.560358 -0.585662
  outer loop
   vertex -16.7064 -21 15
   vertex -18 -21 16.2936
   vertex -15 -19.2166 15
  endloop
 endfacet
 facet normal -0.591751 0.638132 -0.492563
  outer loop
   vertex -15 -19.2166 15
   vertex -18 -21 16.2936
   vertex -15 -18 16.5761
  endloop
 endfacet
 facet normal -0.717167 0.696707 0.0164361
  outer loop
   vertex -18 -22.2609 12
   vertex -16.7064 -21 15
   vertex -16.7751 -21 12
  endloop
 endfacet
 facet normal -0.549145 0.835632 0.0125853
  outer loop
   vertex -16.7751 -21 12
   vertex -16.7064 -21 15
   vertex -15 -19.8335 12
  endloop
 endfacet
 facet normal -0.867457 0.483832 -0.115869
  outer loop
   vertex 21.7513 -18 15
   vertex 21 -20.0655 12
   vertex 21 -19.347 15
  endloop
 endfacet
 facet normal -0.155759 0.960632 -0.230055
  outer loop
   vertex 21 -19.347 15
   vertex 21 -20.0655 12
   vertex 18 -19.8335 15
  endloop
 endfacet
 facet normal -0.0867448 0.792779 -0.603305
  outer loop
   vertex -9 -18.5976 12
   vertex -12 -18 13.2166
   vertex -9 -18 12.7852
  endloop
 endfacet
 facet normal -0.133748 0.3418 -0.930207
  outer loop
   vertex -9 -18 12.7852
   vertex -12 -18 13.2166
   vertex -9 -15 13.8876
  endloop
 endfacet
 facet normal -0.715352 0.684445 -0.140739
  outer loop
   vertex -15 -19.2166 15
   vertex -15 -19.8335 12
   vertex -16.7064 -21 15
  endloop
 endfacet
 facet normal 0.587357 0.234067 -0.774742
  outer loop
   vertex 15 -17.5632 15
   vertex 12 -15 13.5
   vertex 13.9785 -15 15
  endloop
 endfacet
 facet normal 0.585578 0.245972 -0.772396
  outer loop
   vertex 13.9785 -15 15
   vertex 12 -15 13.5
   vertex 12 -12 14.4554
  endloop
 endfacet
 facet normal 0.225634 -0.0279829 -0.97381
  outer loop
   vertex 13.9785 -15 15
   vertex 12 -12 14.4554
   vertex 14.3506 -12 15
  endloop
 endfacet
 facet normal 0.216211 -0.287229 -0.933141
  outer loop
   vertex 14.3506 -12 15
   vertex 12 -12 14.4554
   vertex 15 -11.5112 15
  endloop
 endfacet
 facet normal 0.235908 -0.313396 -0.919853
  outer loop
   vertex 14.3506 -12 15
   vertex 15 -11.5112 15
   vertex 15 -12 15.1665
  endloop
 endfacet
 facet normal -0.235908 -0.313396 -0.919853
  outer loop
   vertex 15 -12 15.1665
   vertex 15 -11.5112 15
   vertex 15.6494 -12 15
  endloop
 endfacet
 facet normal -0.218907 -0.472766 -0.853564
  outer loop
   vertex 15 -12 15.1665
   vertex 15.6494 -12 15
   vertex 18 -15 16.0588
  endloop
 endfacet
 facet normal -0.169763 -0.443591 -0.880004
  outer loop
   vertex 18 -15 16.0588
   vertex 15.6494 -12 15
   vertex 18 -12.8996 15
  endloop
 endfacet
 facet normal -0.276439 -0.432584 -0.858168
  outer loop
   vertex 18 -15 16.0588
   vertex 18 -12.8996 15
   vertex 21 -15 15.0924
  endloop
 endfacet
 facet normal -0.29609 -0.45973 -0.837245
  outer loop
   vertex 21 -15 15.0924
   vertex 18 -12.8996 15
   vertex 21 -14.8317 15
  endloop
 endfacet
 facet normal -0.575856 -0.393497 -0.716624
  outer loop
   vertex 21 -15 15.0924
   vertex 21 -14.8317 15
   vertex 21.115 -15 15
  endloop
 endfacet
 facet normal -0.648125 -0.44288 -0.619509
  outer loop
   vertex 21.115 -15 15
   vertex 21 -14.8317 15
   vertex 21.9325 -12 12
  endloop
 endfacet
 facet normal -0.38907 0.500291 -0.77352
  outer loop
   vertex -12 -15.2426 15
   vertex -11.6881 -15 15
   vertex -12 -18 13.2166
  endloop
 endfacet
 facet normal -0.329475 0.507543 -0.796145
  outer loop
   vertex -12 -18 13.2166
   vertex -11.6881 -15 15
   vertex -9 -15 13.8876
  endloop
 endfacet
 facet normal 0.922435 -0.102474 -0.372307
  outer loop
   vertex -22.0637 -18 15
   vertex -22.9412 -15 12
   vertex -21.7304 -15 15
  endloop
 endfacet
 facet normal 0.922435 0.102474 -0.372307
  outer loop
   vertex -21.7304 -15 15
   vertex -22.9412 -15 12
   vertex -22.0637 -12 15
  endloop
 endfacet
 facet normal 0.615822 0.0684119 -0.78491
  outer loop
   vertex -21.7304 -15 15
   vertex -22.0637 -12 15
   vertex -21 -12 15.8345
  endloop
 endfacet
 facet normal 0.602507 -0.217385 -0.767938
  outer loop
   vertex -21 -12 15.8345
   vertex -22.0637 -12 15
   vertex -21 -9.05196 15
  endloop
 endfacet
 facet normal -0.646824 -0.443943 -0.620107
  outer loop
   vertex 21.9325 -12 12
   vertex 21 -14.8317 15
   vertex 21 -12 12.9727
  endloop
 endfacet
 facet normal -0.35105 -0.545066 -0.761358
  outer loop
   vertex 21 -12 12.9727
   vertex 21 -14.8317 15
   vertex 18 -12.8996 15
  endloop
 endfacet
 facet normal -0.380351 -0.493812 -0.781974
  outer loop
   vertex 21 -12 12.9727
   vertex 18 -12.8996 15
   vertex 18 -12 14.4319
  endloop
 endfacet
 facet normal -0.200204 -0.523132 -0.828403
  outer loop
   vertex 18 -12 14.4319
   vertex 18 -12.8996 15
   vertex 15.6494 -12 15
  endloop
 endfacet
 facet normal -0.224246 -0.297903 -0.927883
  outer loop
   vertex 18 -12 14.4319
   vertex 15.6494 -12 15
   vertex 15 -11.5112 15
  endloop
 endfacet
 facet normal 0.515858 0.259948 -0.816283
  outer loop
   vertex 12 -15 13.5
   vertex 9 -12 12.5595
   vertex 12 -12 14.4554
  endloop
 endfacet
 facet normal 0.490355 0.396847 -0.775928
  outer loop
   vertex 12 -12 14.4554
   vertex 9 -12 12.5595
   vertex 9 -9 14.0938
  endloop
 endfacet
 facet normal 0.32455 0.213504 -0.921457
  outer loop
   vertex 12 -12 14.4554
   vertex 9 -9 14.0938
   vertex 12 -9.6494 15
  endloop
 endfacet
 facet normal -0.380866 0.0891147 -0.920326
  outer loop
   vertex -11.6881 -15 15
   vertex -10.9861 -12 15
   vertex -9 -15 13.8876
  endloop
 endfacet
 facet normal -0.582257 -0.0856882 -0.808476
  outer loop
   vertex -9 -15 13.8876
   vertex -10.9861 -12 15
   vertex -9 -12 13.5696
  endloop
 endfacet
 facet normal -0.419752 -0.281202 -0.86298
  outer loop
   vertex 21 -12 12.9727
   vertex 18 -12 14.4319
   vertex 18 -9 13.4544
  endloop
 endfacet
 facet normal -0.253635 -0.299686 -0.919705
  outer loop
   vertex 18 -9 13.4544
   vertex 18 -12 14.4319
   vertex 15 -9 14.2817
  endloop
 endfacet
 facet normal -0.246621 -0.373441 -0.894271
  outer loop
   vertex 18 -9 13.4544
   vertex 15 -9 14.2817
   vertex 15 -6 13.0289
  endloop
 endfacet
 facet normal -0.221248 -0.268196 -0.937614
  outer loop
   vertex 18 -12 14.4319
   vertex 15 -11.5112 15
   vertex 15 -9 14.2817
  endloop
 endfacet
 facet normal 0.214263 -0.268625 -0.939112
  outer loop
   vertex 15 -9 14.2817
   vertex 15 -11.5112 15
   vertex 12 -12 14.4554
  endloop
 endfacet
 facet normal -0.268624 0.214263 -0.939113
  outer loop
   vertex 15 -9 14.2817
   vertex 12 -12 14.4554
   vertex 12.4888 -9 15
  endloop
 endfacet
 facet normal -0.287232 0.216211 -0.93314
  outer loop
   vertex 12.4888 -9 15
   vertex 12 -12 14.4554
   vertex 12 -9.6494 15
  endloop
 endfacet
 facet normal 0.725632 0.312214 -0.613172
  outer loop
   vertex 7.23068 -9 12
   vertex 9 -9 14.0938
   vertex 8.52147 -12 12
  endloop
 endfacet
 facet normal 0.721144 0.315459 -0.616795
  outer loop
   vertex 8.52147 -12 12
   vertex 9 -9 14.0938
   vertex 9 -12 12.5595
  endloop
 endfacet
 facet normal -0.204133 -0.596534 -0.776194
  outer loop
   vertex -15 -9 14.7791
   vertex -15 -9.28742 15
   vertex -15.8399 -9 15
  endloop
 endfacet
 facet normal -0.27222 -0.795503 -0.541361
  outer loop
   vertex -15.8399 -9 15
   vertex -15 -9.28742 15
   vertex -15 -11.329 18
  endloop
 endfacet
 facet normal 0.362812 -0.684145 -0.632703
  outer loop
   vertex -15.8399 -9 15
   vertex -15 -11.329 18
   vertex -18 -12 17.0053
  endloop
 endfacet
 facet normal 0.369156 -0.606386 -0.704287
  outer loop
   vertex -18 -12 17.0053
   vertex -15 -11.329 18
   vertex -16.1022 -12 18
  endloop
 endfacet
 facet normal 0.0446926 -0.0963202 -0.994347
  outer loop
   vertex 18 -9 13.4544
   vertex 15 -6 13.0289
   vertex 18 -6 13.1638
  endloop
 endfacet
 facet normal 0.0333106 -0.670551 -0.741115
  outer loop
   vertex 18 -6 13.1638
   vertex 15 -6 13.0289
   vertex 15 -4.8628 12
  endloop
 endfacet
 facet normal -0.448736 0.298604 -0.842302
  outer loop
   vertex 9 -9 14.0938
   vertex 9.29536 -6 15
   vertex 12 -6 13.5591
  endloop
 endfacet
 facet normal -0.352528 -0.661708 -0.661715
  outer loop
   vertex 12 -6 13.5591
   vertex 9.29536 -6 15
   vertex 9 -5.84264 15
  endloop
 endfacet
 facet normal -0.280972 -0.822079 -0.495218
  outer loop
   vertex 12 -6 13.5591
   vertex 9 -5.84264 15
   vertex 12 -5.0608 12
  endloop
 endfacet
 facet normal 0.344331 0.779792 -0.52284
  outer loop
   vertex 6 -7.51372 12
   vertex 3 -6 12.2819
   vertex 6 -6 14.2576
  endloop
 endfacet
 facet normal 0.536425 0.22092 -0.81452
  outer loop
   vertex 6 -6 14.2576
   vertex 3 -6 12.2819
   vertex 3 -3 13.0956
  endloop
 endfacet
 facet normal -0.195272 -0.64075 -0.742502
  outer loop
   vertex -15.8399 -9 15
   vertex -18 -8.34171 15
   vertex -15 -9 14.7791
  endloop
 endfacet
 facet normal -0.202916 -0.692396 -0.692397
  outer loop
   vertex -15 -9 14.7791
   vertex -18 -8.34171 15
   vertex -18 -6 12.6583
  endloop
 endfacet
 facet normal 0.15787 -0.698239 -0.69824
  outer loop
   vertex -18 -6 12.6583
   vertex -18 -8.34171 15
   vertex -20.9115 -9 15
  endloop
 endfacet
 facet normal 0.14613 -0.646313 -0.74895
  outer loop
   vertex -20.9115 -9 15
   vertex -18 -8.34171 15
   vertex -18 -9 15.5681
  endloop
 endfacet
 facet normal 0.468865 -0.76806 -0.436176
  outer loop
   vertex -21 -9 14.9722
   vertex -21 -7.3121 12
   vertex -18.8506 -6 12
  endloop
 endfacet
 facet normal 0.21621 0.28723 -0.933141
  outer loop
   vertex 2.08598 -6 12
   vertex 0 -4.42979 12
   vertex 0 -3 12.4401
  endloop
 endfacet
 facet normal -0.255928 0.284391 -0.923917
  outer loop
   vertex 0 -3 12.4401
   vertex 0 -4.42979 12
   vertex -3 -6 12.3477
  endloop
 endfacet
 facet normal 0.415421 -0.589578 -0.692692
  outer loop
   vertex -6.40009 -3 12
   vertex -6 -2.71809 12
   vertex -6 -3 12.2399
  endloop
 endfacet
 facet normal -0.573964 0.764404 -0.293686
  outer loop
   vertex -21 -27.3882 15
   vertex -21 -27 16.0104
   vertex -20.483 -27 15
  endloop
 endfacet
 facet normal 0.727753 0.216505 -0.650769
  outer loop
   vertex -24 -26.277 15
   vertex -24.6774 -24 15
   vertex -24 -24 15.7575
  endloop
 endfacet
 facet normal -0.084121 0.176468 -0.980705
  outer loop
   vertex -15 -18 16.5761
   vertex -18 -21 16.2936
   vertex -18 -18 16.8335
  endloop
 endfacet
 facet normal 0.303882 0.168721 -0.937651
  outer loop
   vertex -18 -18 16.8335
   vertex -18 -21 16.2936
   vertex -21 -18 15.8612
  endloop
 endfacet
 facet normal 0.30778 -0.0581862 -0.949677
  outer loop
   vertex -18 -18 16.8335
   vertex -21 -18 15.8612
   vertex -21 -15 15.6774
  endloop
 endfacet
 facet normal 0.628548 -0.0475644 -0.776315
  outer loop
   vertex -21 -15 15.6774
   vertex -21 -18 15.8612
   vertex -22.0637 -18 15
  endloop
 endfacet
 facet normal 0.678073 -0.0753273 -0.731125
  outer loop
   vertex -21 -15 15.6774
   vertex -22.0637 -18 15
   vertex -21.7304 -15 15
  endloop
 endfacet
 facet normal -0.621062 -0.130148 -0.77288
  outer loop
   vertex 21.115 -15 15
   vertex 21 -18 15.5976
   vertex 21 -15 15.0924
  endloop
 endfacet
 facet normal -0.302747 -0.158263 -0.939839
  outer loop
   vertex 21 -15 15.0924
   vertex 21 -18 15.5976
   vertex 18 -15 16.0588
  endloop
 endfacet
 facet normal -0.185346 -0.0343693 -0.982072
  outer loop
   vertex 21 -18 15.5976
   vertex 18 -18 16.1638
   vertex 18 -15 16.0588
  endloop
 endfacet
 facet normal 0.133112 -0.034664 -0.990495
  outer loop
   vertex 18 -15 16.0588
   vertex 18 -18 16.1638
   vertex 15 -15 15.6556
  endloop
 endfacet
 facet normal 0.131486 -0.1595 -0.978402
  outer loop
   vertex 18 -15 16.0588
   vertex 15 -15 15.6556
   vertex 15 -12 15.1665
  endloop
 endfacet
 facet normal 0.535138 -0.13592 -0.833758
  outer loop
   vertex 15 -12 15.1665
   vertex 15 -15 15.6556
   vertex 13.9785 -15 15
  endloop
 endfacet
 facet normal 0.248305 -0.0307946 -0.968192
  outer loop
   vertex 15 -12 15.1665
   vertex 13.9785 -15 15
   vertex 14.3506 -12 15
  endloop
 endfacet
 facet normal 0.397579 0.227374 -0.88895
  outer loop
   vertex 15.2498 -18 15
   vertex 15 -17.5632 15
   vertex 15 -15 15.6556
  endloop
 endfacet
 facet normal 0.528056 0.210435 -0.822724
  outer loop
   vertex 15 -15 15.6556
   vertex 15 -17.5632 15
   vertex 13.9785 -15 15
  endloop
 endfacet
 facet normal 0.379478 0.227577 -0.896775
  outer loop
   vertex 15.2498 -18 15
   vertex 15 -15 15.6556
   vertex 18 -18 16.1638
  endloop
 endfacet
 facet normal -0.510241 0.6561 -0.556047
  outer loop
   vertex -12 -15.2426 15
   vertex -12 -15 15.2863
   vertex -11.6881 -15 15
  endloop
 endfacet
 facet normal -0.667803 0.156252 -0.727753
  outer loop
   vertex -11.6881 -15 15
   vertex -12 -15 15.2863
   vertex -10.9861 -12 15
  endloop
 endfacet
 facet normal -0.642895 0.544714 -0.53849
  outer loop
   vertex -13.7834 -18 15
   vertex -15 -16.4702 18
   vertex -13.7544 -15 18
  endloop
 endfacet
 facet normal -0.0843563 0.16035 -0.983449
  outer loop
   vertex -15 -18 16.5761
   vertex -18 -18 16.8335
   vertex -18 -15 17.3226
  endloop
 endfacet
 facet normal 0.476007 0.141523 -0.86798
  outer loop
   vertex -18 -15 17.3226
   vertex -18 -18 16.8335
   vertex -21 -15 15.6774
  endloop
 endfacet
 facet normal 0.48034 0.0458767 -0.875882
  outer loop
   vertex -18 -15 17.3226
   vertex -21 -15 15.6774
   vertex -21 -12 15.8345
  endloop
 endfacet
 facet normal 0.679504 0.0383755 -0.732668
  outer loop
   vertex -21 -12 15.8345
   vertex -21 -15 15.6774
   vertex -21.7304 -15 15
  endloop
 endfacet
 facet normal -0.230778 -0.420379 -0.87751
  outer loop
   vertex -18 -12 17.0053
   vertex -18 -9 15.5681
   vertex -15.8399 -9 15
  endloop
 endfacet
 facet normal -0.195272 -0.640749 -0.742502
  outer loop
   vertex -15.8399 -9 15
   vertex -18 -9 15.5681
   vertex -18 -8.34171 15
  endloop
 endfacet
 facet normal 0.397851 -0.563465 -0.724031
  outer loop
   vertex 11.4355 -9 15
   vertex 12 -8.60142 15
   vertex 12 -9 15.3102
  endloop
 endfacet
 facet normal 0.252516 0.418278 -0.872513
  outer loop
   vertex 9 -6.42534 15
   vertex 8.29545 -6 15
   vertex 9 -6 15.2039
  endloop
 endfacet
 facet normal -0.633933 0.27395 -0.723243
  outer loop
   vertex -14.4456 -12 21
   vertex -15 -15 20.3496
   vertex -15 -13.2829 21
  endloop
 endfacet
 facet normal 0.807897 0.208751 -0.551113
  outer loop
   vertex -15 -13.2829 21
   vertex -15 -15 20.3496
   vertex -16.6028 -15 18
  endloop
 endfacet
 facet normal 0.840703 0.132547 -0.525023
  outer loop
   vertex -15 -13.2829 21
   vertex -16.6028 -15 18
   vertex -15.2023 -12 21
  endloop
 endfacet
 facet normal -0.66172 0.285958 -0.693076
  outer loop
   vertex -14.4456 -12 21
   vertex -15 -13.2829 21
   vertex -15 -12 21.5293
  endloop
 endfacet
 facet normal 0.924154 0.145704 -0.353142
  outer loop
   vertex -15 -12 21.5293
   vertex -15 -13.2829 21
   vertex -15.2023 -12 21
  endloop
 endfacet
 facet normal 0.750673 -0.595153 -0.286851
  outer loop
   vertex -15 -12 21.5293
   vertex -15.2023 -12 21
   vertex -15 -11.7449 21
  endloop
 endfacet
 facet normal -0.382938 -0.83216 -0.401084
  outer loop
   vertex -14.4456 -12 21
   vertex -15 -12 21.5293
   vertex -15 -11.7449 21
  endloop
 endfacet
endsolid
