<?xml version="1.0" standalone="no"?>
<!DOCTYPE svg PUBLIC "-//W3C//DTD SVG 20010904//EN"
 "http://www.w3.org/TR/2001/REC-SVG-20010904/DTD/svg10.dtd">
<svg version="1.0" xmlns="http://www.w3.org/2000/svg"
 width="494.000000pt" height="483.000000pt" viewBox="0 0 494.000000 483.000000"
 preserveAspectRatio="xMidYMid meet">
<metadata>
Created by potrace 1.15, written by Peter Selinger 2001-2017
</metadata>
<g transform="translate(0.000000,483.000000) scale(0.100000,-0.100000)"
fill="#000000" stroke="none">
<path d="M0 2415 l0 -2415 138 0 137 0 2 297 c2 193 6 299 13 301 12 4 14 239
1 244 -4 2 -14 127 -21 278 -6 151 -15 277 -20 280 -4 3 -11 79 -15 170 -4 91
-12 168 -17 171 -14 9 -15 658 -1 667 5 4 13 65 17 137 3 71 10 132 15 135 4
3 14 56 21 118 8 61 17 112 21 112 4 0 10 18 14 40 4 22 10 40 15 40 4 0 14
32 20 70 6 39 16 70 20 70 5 0 12 16 16 35 3 19 10 35 15 35 4 0 11 16 15 35
3 19 10 35 14 35 4 0 13 20 20 45 7 25 16 45 21 45 5 0 11 11 15 25 3 14 10
25 14 25 4 0 14 15 21 33 7 17 17 37 21 42 5 6 17 21 28 34 11 13 20 30 20 37
0 7 9 18 20 24 11 6 20 15 20 21 0 6 16 27 35 46 19 19 35 39 35 43 0 5 31 40
70 79 38 38 70 72 70 75 0 9 177 186 185 186 4 0 32 25 62 55 30 30 60 55 66
55 7 0 18 9 25 20 7 11 19 20 27 20 8 0 15 5 15 10 0 6 7 10 15 10 9 0 18 7
21 15 3 8 15 17 26 21 11 3 28 13 38 22 37 34 49 41 73 47 14 4 28 13 31 20 2
7 18 16 35 20 17 4 31 10 31 15 0 5 14 11 30 15 17 4 30 11 30 15 0 5 18 15
40 21 22 7 40 15 40 19 0 4 16 11 35 14 19 4 35 10 35 15 0 4 25 14 55 21 30
7 55 16 55 20 0 4 20 11 45 14 25 4 45 11 45 16 0 5 27 14 60 21 33 6 60 15
60 19 0 4 23 10 50 14 28 4 50 10 50 14 0 10 193 32 273 32 31 0 57 5 57 10 0
6 16 10 35 10 19 0 35 -4 35 -10 0 -15 67 -12 73 3 4 10 6 10 6 0 1 -9 18 -13
51 -13 77 0 255 -21 258 -31 2 -5 26 -11 53 -15 27 -4 49 -10 49 -14 0 -4 25
-12 55 -19 30 -7 55 -16 55 -21 0 -4 19 -11 42 -15 23 -4 48 -14 56 -21 7 -8
24 -14 37 -14 13 0 30 -7 38 -15 8 -7 26 -17 41 -21 14 -3 26 -9 26 -13 0 -4
23 -13 50 -20 28 -7 50 -17 50 -22 0 -5 6 -9 14 -9 8 0 21 -6 28 -13 7 -8 30
-20 51 -26 20 -7 37 -16 37 -21 0 -5 10 -12 22 -16 12 -3 31 -15 42 -25 11
-11 26 -19 33 -19 7 0 13 -5 13 -10 0 -6 8 -14 17 -17 10 -4 27 -17 39 -30 12
-13 26 -23 31 -23 5 0 19 -11 31 -25 12 -14 26 -25 31 -25 10 0 301 -286 301
-296 0 -3 9 -16 20 -28 36 -39 85 -95 105 -121 11 -14 28 -35 38 -47 9 -12 17
-27 17 -35 0 -7 7 -16 15 -19 8 -4 15 -13 15 -20 0 -8 6 -17 14 -20 8 -3 18
-19 21 -36 4 -16 13 -32 20 -35 8 -2 17 -18 20 -34 4 -16 10 -29 15 -29 4 0
11 -11 14 -25 4 -14 10 -25 15 -25 5 0 14 -20 21 -45 7 -25 16 -45 21 -45 4 0
10 -13 14 -30 4 -16 10 -30 14 -30 4 0 13 -25 20 -55 7 -30 16 -55 21 -55 4 0
11 -18 15 -40 4 -22 10 -40 15 -40 4 0 14 -31 20 -70 6 -38 15 -70 20 -70 4 0
10 -27 14 -59 4 -33 11 -61 17 -63 5 -2 15 -64 21 -138 6 -77 15 -138 22 -142
15 -10 15 -926 0 -936 -10 -7 -35 -424 -34 -569 0 -36 -4 -63 -10 -63 -12 0
-14 -337 -1 -342 12 -4 33 -413 25 -497 l-7 -71 122 0 121 0 0 2415 0 2415
-2470 0 -2470 0 0 -2415z"/>
<path d="M2390 4531 c0 -5 -40 -12 -90 -16 -49 -4 -90 -11 -90 -16 0 -5 -9 -9
-20 -9 -35 0 -150 -24 -150 -31 0 -4 -18 -10 -40 -14 -22 -4 -40 -10 -40 -15
0 -4 -29 -13 -65 -20 -36 -7 -65 -16 -65 -21 0 -4 -16 -11 -35 -15 -19 -3 -35
-10 -35 -14 0 -4 -22 -13 -50 -20 -27 -7 -50 -16 -50 -20 0 -4 -11 -11 -25
-14 -14 -4 -25 -10 -25 -15 0 -5 -20 -14 -45 -21 -25 -7 -45 -17 -45 -21 0 -5
-7 -9 -15 -9 -9 0 -18 -6 -21 -14 -3 -8 -19 -18 -35 -21 -16 -4 -29 -10 -29
-15 0 -4 -15 -14 -32 -21 -32 -13 -43 -20 -73 -46 -7 -7 -17 -13 -22 -13 -7 0
-46 -29 -83 -63 -8 -8 -23 -17 -32 -20 -10 -4 -18 -11 -18 -16 0 -5 -9 -13
-21 -16 -11 -4 -42 -29 -68 -56 -26 -27 -51 -49 -55 -49 -9 0 -196 -187 -196
-196 0 -3 -16 -22 -35 -41 -19 -19 -35 -40 -35 -47 0 -6 -9 -17 -20 -24 -11
-7 -20 -17 -20 -23 0 -5 -5 -15 -10 -22 -40 -48 -50 -61 -50 -72 0 -7 -9 -22
-20 -35 -11 -13 -20 -27 -20 -32 0 -5 -7 -16 -15 -24 -8 -8 -17 -31 -21 -52
-4 -20 -13 -43 -21 -50 -7 -7 -13 -24 -13 -37 0 -13 -4 -25 -9 -27 -5 -1 -15
-32 -22 -68 -7 -36 -17 -68 -21 -71 -5 -3 -11 -29 -15 -57 -3 -29 -9 -52 -13
-52 -8 0 -30 -168 -30 -229 0 -22 -5 -41 -12 -43 -17 -6 -19 -765 -2 -776 6
-4 16 -84 23 -187 7 -99 16 -182 21 -185 4 -3 11 -33 15 -67 4 -35 10 -63 15
-63 4 0 13 -27 20 -60 7 -33 16 -60 20 -60 5 0 11 -19 15 -42 4 -23 14 -48 21
-56 8 -7 14 -24 14 -37 0 -13 7 -30 15 -38 7 -8 17 -26 21 -41 3 -14 9 -26 13
-26 4 0 13 -22 20 -50 7 -27 17 -50 21 -50 5 0 12 -16 16 -35 3 -19 10 -35 15
-35 5 0 9 -6 9 -14 0 -16 -23 -27 -36 -18 -14 11 -34 50 -34 68 0 8 -6 22 -12
29 -30 33 -36 43 -49 78 -7 20 -16 37 -20 37 -4 0 -10 13 -14 30 -4 16 -10 30
-14 30 -4 0 -13 18 -20 40 -6 22 -16 40 -21 40 -4 0 -11 14 -15 30 -4 16 -10
30 -14 30 -4 0 -13 23 -20 50 -14 56 -31 66 -31 20 0 -16 4 -30 8 -30 10 0 32
-89 32 -126 0 -13 4 -24 9 -24 5 0 12 -16 15 -35 4 -19 11 -35 15 -35 5 0 14
-22 21 -50 7 -27 16 -50 20 -50 5 0 12 -15 15 -33 4 -17 13 -35 19 -39 6 -4
11 -33 11 -65 0 -60 -17 -91 -58 -106 -20 -8 -22 -38 -5 -104 20 -75 68 -102
68 -37 0 31 2 34 15 20 8 -8 15 -19 15 -25 0 -5 8 -17 18 -27 14 -15 17 -38
18 -143 1 -127 10 -201 24 -201 4 0 11 -15 14 -34 4 -19 12 -36 18 -38 5 -2
13 -36 16 -76 l5 -72 254 0 254 0 -33 30 -33 30 -3 115 c-4 121 1 133 37 94
16 -18 27 -21 57 -16 21 4 40 10 43 15 3 5 14 11 24 15 9 4 20 15 24 24 25 67
88 53 100 -22 3 -19 10 -35 14 -35 5 0 9 -13 9 -30 0 -16 -4 -30 -10 -30 -6 0
-10 -30 -10 -70 0 -47 -4 -72 -13 -77 -8 -4 -16 -16 -20 -26 -6 -15 3 -17 92
-17 l99 0 6 31 c10 51 7 77 -11 95 -13 13 -14 19 -5 22 8 2 12 33 12 105 0
137 4 151 43 143 17 -4 33 -10 37 -14 3 -4 17 -13 31 -21 20 -10 28 -23 32
-54 5 -37 19 -56 41 -57 14 0 -2 104 -19 116 -10 7 -15 28 -15 59 0 39 3 46
16 41 9 -3 18 -6 20 -6 2 0 4 -6 4 -14 0 -8 7 -16 15 -20 8 -3 15 -12 15 -21
0 -8 4 -15 8 -15 11 0 32 -46 32 -70 0 -11 4 -20 9 -20 5 0 11 -13 14 -30 4
-16 20 -42 36 -57 16 -16 33 -41 36 -55 4 -15 13 -29 21 -32 8 -3 14 -19 14
-35 0 -17 6 -34 14 -38 8 -4 15 -17 18 -28 3 -20 12 -20 441 -23 393 -2 437
-1 437 14 0 8 6 22 13 29 26 30 33 41 47 75 17 42 40 70 56 70 13 0 24 22 24
47 0 8 6 21 13 28 28 32 35 43 41 63 4 12 11 22 16 22 5 0 14 16 21 35 7 19
16 35 20 35 4 0 11 9 14 20 3 11 13 20 21 20 12 0 14 -9 8 -45 l-6 -45 41 0
c22 0 41 5 41 10 0 6 16 10 35 10 31 0 35 -3 41 -36 4 -20 3 -70 -1 -112 -9
-89 -9 -95 0 -180 l8 -62 78 0 c71 0 79 2 79 19 0 11 -6 21 -12 24 -10 3 -12
36 -11 126 2 119 3 122 30 149 39 39 57 44 77 21 9 -11 16 -24 16 -29 0 -5 9
-14 21 -21 24 -12 148 7 161 26 5 6 8 6 8 -2 0 -7 7 -13 15 -13 8 0 28 -13 45
-30 29 -29 39 -50 22 -50 -5 0 -14 -34 -19 -75 -6 -43 -18 -81 -27 -90 -9 -9
-16 -22 -16 -30 0 -7 -6 -16 -12 -18 -7 -3 53 -6 135 -6 l147 -1 0 24 c0 30
20 86 30 86 12 0 20 -28 20 -71 0 -29 4 -39 16 -39 25 0 40 22 47 69 3 24 10
47 15 50 5 3 15 21 23 38 8 18 17 33 21 33 3 0 10 15 13 32 4 18 12 36 19 40
6 4 11 51 12 125 1 117 10 183 24 183 4 0 10 10 13 21 5 18 11 21 39 15 18 -3
38 -2 44 2 7 4 13 36 15 72 l4 65 -37 3 c-21 2 -38 7 -38 13 0 5 -9 9 -19 9
-45 0 -52 10 -45 58 6 42 5 45 -8 31 -9 -8 -18 -24 -20 -35 -2 -10 -10 -19
-18 -19 -21 0 -18 119 4 141 9 8 16 22 16 30 0 8 4 14 9 14 5 0 15 23 22 50 7
28 16 50 20 50 5 0 11 16 15 35 3 19 10 35 14 35 4 0 13 23 20 50 7 28 16 50
20 50 5 0 11 18 15 40 4 22 10 40 15 40 4 0 11 23 15 50 4 28 10 50 15 50 9 0
30 157 30 228 0 29 4 52 9 52 5 0 12 74 16 165 4 91 11 165 16 165 5 0 9 110
9 245 0 135 -4 245 -8 245 -5 0 -12 64 -15 142 -3 78 -10 144 -15 147 -4 3
-14 53 -21 111 -7 58 -16 107 -21 110 -4 3 -11 24 -15 48 -4 23 -10 42 -15 42
-4 0 -11 20 -14 45 -4 25 -11 45 -16 45 -4 0 -13 23 -20 50 -7 28 -16 50 -20
50 -4 0 -11 11 -14 25 -4 14 -10 25 -15 25 -5 0 -12 14 -16 31 -4 17 -13 33
-20 35 -7 3 -16 16 -19 30 -4 13 -15 33 -26 44 -11 11 -20 27 -20 35 0 8 -5
15 -10 15 -6 0 -14 8 -17 17 -4 10 -19 30 -35 45 -15 15 -28 30 -28 34 0 4
-24 31 -52 59 -29 29 -60 61 -70 71 -9 11 -50 51 -92 89 -42 39 -92 85 -112
103 -19 17 -38 32 -42 32 -6 0 -47 31 -82 63 -8 8 -23 17 -32 20 -10 4 -18 11
-18 17 0 5 -7 10 -15 10 -8 0 -22 9 -32 19 -10 11 -30 22 -45 26 -15 4 -29 13
-32 21 -3 8 -12 14 -21 14 -8 0 -15 5 -15 10 0 6 -7 10 -15 10 -7 0 -18 6 -22
14 -4 7 -26 19 -48 26 -22 7 -46 19 -53 27 -7 7 -20 13 -28 13 -8 0 -14 4 -14
9 0 4 -20 14 -45 21 -25 7 -45 16 -45 20 0 5 -18 11 -40 15 -22 4 -40 10 -40
15 0 4 -22 13 -50 20 -27 7 -50 16 -50 20 0 5 -18 11 -40 15 -22 4 -40 10 -40
14 0 4 -31 14 -70 21 -38 7 -70 17 -70 21 0 4 -49 11 -110 14 -60 4 -110 11
-110 16 0 5 -47 9 -105 9 -58 0 -105 -4 -105 -9z m608 -449 c2 -7 10 -12 18
-12 8 0 20 -11 26 -25 6 -14 15 -25 20 -25 4 0 8 -22 8 -49 0 -56 14 -76 61
-86 57 -13 89 -69 89 -157 0 -21 5 -38 10 -38 6 0 10 -25 10 -55 0 -30 -4 -55
-9 -55 -5 0 -15 -31 -21 -70 -6 -38 -16 -70 -21 -70 -5 0 -9 -13 -9 -30 0 -20
5 -30 15 -30 16 0 55 30 55 42 0 19 42 48 69 48 21 0 30 6 35 23 3 12 1 24 -4
25 -6 2 -10 10 -10 17 0 7 -6 15 -12 18 -17 5 -17 219 0 225 7 2 12 14 12 27
0 38 41 75 84 75 20 0 36 -4 36 -9 0 -5 16 -12 35 -15 19 -4 35 -11 35 -15 0
-5 20 -14 45 -21 25 -7 45 -17 45 -21 0 -5 7 -9 15 -9 8 0 19 -9 25 -20 6 -11
16 -20 23 -20 7 0 19 -10 27 -22 8 -12 23 -30 33 -40 9 -10 17 -21 17 -25 0
-5 12 -19 25 -32 14 -13 25 -27 25 -32 0 -5 7 -9 15 -9 8 0 24 -9 35 -20 11
-11 23 -20 28 -20 4 0 18 -12 31 -25 13 -14 29 -25 37 -25 7 0 16 -11 20 -24
3 -13 16 -29 28 -36 30 -16 46 -70 46 -158 0 -77 4 -82 65 -82 35 0 46 -8 80
-54 11 -16 25 -33 30 -40 15 -16 35 -64 35 -82 0 -9 7 -22 15 -30 8 -9 15 -26
15 -40 0 -13 4 -24 9 -24 5 0 15 -33 21 -72 7 -40 18 -76 24 -80 16 -10 16
-476 -1 -486 -6 -4 -15 -20 -19 -36 -4 -16 -15 -31 -25 -33 -11 -3 -19 -9 -19
-14 0 -5 -67 -9 -150 -9 -113 0 -150 3 -151 13 0 9 -2 9 -6 0 -2 -7 -13 -13
-23 -13 -11 0 -27 -9 -37 -19 -10 -11 -30 -22 -45 -26 -16 -4 -28 -11 -28 -16
0 -5 -9 -9 -20 -9 -11 0 -20 4 -20 9 0 5 -9 11 -20 14 -11 3 -20 12 -20 20 0
8 -6 17 -14 20 -7 3 -16 17 -20 31 -10 39 -154 177 -192 183 -45 7 -52 -13
-15 -46 17 -15 34 -42 37 -59 4 -18 10 -32 14 -32 4 0 10 -14 14 -31 4 -19 27
-52 61 -85 30 -30 55 -63 55 -74 0 -11 5 -20 10 -20 6 0 10 -25 10 -55 0 -30
-4 -55 -10 -55 -5 0 -10 -14 -10 -30 0 -18 -6 -33 -15 -36 -8 -4 -15 -12 -15
-19 0 -7 -11 -23 -25 -36 -13 -13 -25 -29 -25 -36 0 -6 -6 -13 -12 -15 -20 -7
-16 -91 4 -111 20 -21 78 -23 78 -4 0 8 9 24 19 36 11 13 23 36 26 52 4 16 10
29 15 29 5 0 11 13 15 30 4 16 10 30 15 30 10 0 30 56 30 86 0 13 4 24 9 24 4
0 11 20 14 44 7 50 39 91 80 101 15 4 27 11 27 15 0 5 21 12 48 16 26 4 50 12
54 18 11 16 200 15 205 -1 3 -7 10 -13 16 -13 6 0 22 -12 35 -27 23 -27 24
-33 19 -134 l-5 -106 -40 -40 c-33 -36 -46 -42 -95 -48 -31 -4 -57 -11 -57
-15 0 -5 -18 -11 -39 -15 -22 -4 -42 -13 -45 -21 -3 -8 -12 -14 -19 -14 -29 0
-100 -90 -84 -106 7 -8 67 5 67 15 0 4 23 13 50 20 28 7 50 17 50 22 0 5 11
11 25 15 14 3 25 10 25 14 0 4 20 13 45 20 25 7 45 17 45 21 0 21 62 8 88 -18
26 -27 27 -30 26 -146 0 -70 -5 -121 -11 -125 -5 -4 -16 -30 -22 -59 -7 -28
-19 -54 -27 -57 -8 -3 -14 -12 -14 -21 0 -8 -4 -15 -9 -15 -5 0 -12 -14 -16
-31 -4 -17 -13 -33 -21 -36 -8 -3 -14 -10 -14 -17 0 -6 -8 -19 -17 -27 -40
-36 -51 -59 -57 -123 -4 -36 -12 -66 -17 -66 -5 0 -9 -7 -9 -15 0 -8 -9 -20
-20 -27 -11 -7 -20 -18 -20 -23 0 -11 -23 -44 -52 -76 -10 -11 -18 -24 -18
-29 0 -6 -8 -14 -17 -17 -10 -4 -24 -13 -31 -20 -7 -7 -22 -13 -33 -13 -10 0
-19 -3 -19 -8 0 -4 -23 -13 -52 -20 -28 -6 -54 -16 -57 -21 -3 -5 -22 -12 -41
-16 -19 -4 -38 -12 -41 -18 -10 -14 -327 -15 -337 -1 -4 6 -18 15 -31 19 -20
6 -71 53 -118 109 -7 8 -13 31 -13 50 0 30 9 45 66 100 58 57 67 71 71 111 5
39 3 45 -13 45 -24 0 -47 -26 -62 -69 -13 -38 -30 -56 -60 -65 -12 -4 -22 -12
-22 -17 0 -5 -16 -9 -35 -9 -19 0 -35 5 -35 10 0 6 -6 10 -14 10 -19 0 -86 66
-86 85 0 8 -4 15 -10 15 -5 0 -10 7 -10 15 0 7 -6 18 -13 22 -7 4 -18 36 -25
71 -16 78 -38 102 -92 102 -49 0 -60 20 -60 106 0 67 7 82 71 144 27 26 49 54
49 60 0 17 -172 9 -178 -8 -5 -15 -82 -16 -82 -2 0 6 -11 10 -25 10 -14 0 -25
-4 -25 -10 0 -5 -5 -10 -10 -10 -6 0 -22 -11 -36 -25 -28 -28 -62 -33 -70 -10
-8 19 -41 19 -60 0 -23 -23 -39 -18 -77 20 -34 34 -67 46 -67 25 0 -5 -25 -10
-55 -10 -30 0 -55 4 -55 9 0 5 -13 12 -30 16 -16 4 -30 11 -30 15 0 13 -57 22
-110 18 l-45 -3 36 -35 c19 -19 45 -41 57 -49 11 -8 23 -25 27 -39 3 -13 13
-31 20 -39 15 -15 21 -106 9 -137 -4 -10 -18 -16 -35 -16 -16 0 -29 -4 -29
-10 0 -5 -6 -10 -13 -10 -22 0 -44 -35 -58 -91 -8 -30 -18 -60 -24 -67 -5 -7
-15 -18 -20 -25 -6 -7 -16 -24 -22 -40 -7 -15 -17 -27 -23 -27 -5 0 -10 -6
-10 -12 0 -7 -12 -24 -25 -37 -21 -19 -33 -23 -64 -18 -45 6 -116 67 -126 110
-5 17 -16 29 -31 33 -13 3 -24 10 -24 15 0 5 -9 9 -19 9 -22 0 -36 -40 -25
-73 4 -12 38 -53 75 -91 38 -37 69 -74 69 -81 0 -7 6 -16 13 -19 9 -5 9 -7 0
-12 -7 -3 -13 -12 -13 -20 0 -8 -9 -22 -20 -31 -11 -10 -20 -22 -20 -28 0 -6
-14 -22 -30 -35 -17 -14 -37 -31 -45 -38 -7 -6 -23 -12 -34 -12 -11 0 -26 -7
-35 -15 -16 -17 -92 -21 -98 -5 -1 5 -40 12 -85 16 -46 4 -83 10 -83 14 0 4
-25 13 -55 20 -30 7 -55 16 -55 20 0 4 -16 11 -35 14 -19 4 -35 10 -35 14 0 4
-20 13 -44 20 -25 6 -59 25 -76 42 -17 16 -35 30 -40 30 -6 0 -10 7 -10 15 0
9 -7 18 -15 21 -8 3 -17 14 -20 24 -3 10 -22 35 -41 56 -31 32 -35 42 -30 72
3 19 7 36 9 38 2 2 27 8 56 14 29 5 59 17 67 25 9 8 20 15 25 15 5 0 9 14 9
30 0 28 -3 30 -35 30 -19 0 -35 -4 -35 -10 0 -5 -6 -10 -13 -10 -7 0 -23 -9
-35 -20 -25 -24 -77 -27 -86 -5 -3 8 -12 15 -21 15 -8 0 -15 6 -15 14 0 8 -6
16 -14 19 -8 3 -17 19 -21 35 -3 17 -13 33 -21 36 -8 3 -14 12 -14 21 0 8 -4
15 -10 15 -5 0 -10 13 -10 29 0 37 -20 94 -37 104 -7 4 -13 17 -13 27 0 11 -4
20 -10 20 -6 0 -10 38 -10 93 0 90 1 94 25 107 14 7 25 17 25 22 0 4 16 8 35
8 19 0 35 -4 35 -8 0 -4 20 -13 45 -20 25 -7 45 -17 45 -22 0 -10 8 -21 37
-54 7 -8 15 -25 18 -39 5 -18 16 -28 36 -32 16 -4 29 -10 29 -14 0 -5 23 -11
52 -14 28 -4 54 -10 57 -15 9 -14 55 -22 70 -13 21 13 5 44 -30 60 -41 18 -67
44 -75 76 -3 14 -9 25 -13 25 -4 0 -13 16 -21 35 -8 19 -17 35 -22 35 -4 0 -8
8 -8 18 0 9 -11 28 -25 40 -23 22 -30 23 -85 17 -33 -4 -60 -11 -60 -16 0 -5
-9 -9 -20 -9 -11 0 -20 5 -20 10 0 6 -12 10 -26 10 -40 0 -74 43 -81 101 -3
27 -10 49 -14 49 -5 0 -9 29 -9 65 0 36 4 65 9 65 5 0 12 13 16 30 5 24 13 31
41 36 40 7 104 -3 104 -16 0 -15 68 -12 73 3 3 9 35 12 117 12 82 0 115 -3
118 -12 2 -7 9 -13 15 -13 6 0 22 -12 35 -27 23 -26 24 -33 18 -109 -5 -61 -3
-85 6 -95 7 -8 20 -27 28 -43 8 -17 27 -43 42 -58 15 -16 31 -40 34 -53 3 -14
10 -25 14 -25 4 0 19 -12 33 -26 31 -30 71 -27 82 6 3 11 11 20 16 20 14 0 11
60 -5 76 -8 8 -18 14 -22 14 -4 0 -17 11 -30 26 -24 25 -33 74 -14 74 19 0 10
39 -11 45 -49 16 -64 45 -64 124 0 51 4 76 13 79 6 2 12 9 12 15 0 18 44 55
73 62 15 4 27 11 27 15 0 4 11 11 25 14 14 4 25 11 25 16 0 6 7 10 15 10 19 0
71 51 80 79 11 36 -3 61 -36 61 -16 0 -29 -4 -29 -9 0 -5 -11 -12 -25 -15 -14
-4 -25 -10 -25 -15 0 -5 -14 -12 -31 -16 -17 -4 -33 -13 -36 -21 -3 -8 -11
-14 -18 -14 -17 0 -57 -40 -75 -75 -26 -51 -46 -65 -95 -65 -25 0 -45 4 -45 9
0 21 -92 31 -260 29 l-175 -3 -40 40 -40 40 0 218 c0 153 3 220 11 225 7 4 15
33 19 65 4 31 11 57 15 57 4 0 13 27 20 60 7 33 16 60 21 60 4 0 10 14 14 30
4 17 10 30 14 30 4 0 13 18 20 40 6 22 16 40 21 40 5 0 12 9 15 21 4 11 21 34
38 51 25 23 38 28 59 24 32 -6 63 -35 73 -67 4 -13 13 -29 20 -36 18 -18 27
-95 15 -127 -24 -64 -3 -116 46 -116 28 0 29 2 29 43 0 34 6 49 28 69 48 45
40 67 -63 176 -33 34 -35 41 -35 102 0 65 5 78 48 118 9 9 17 21 17 26 0 5 22
31 49 57 27 26 52 57 56 68 3 12 10 21 15 21 5 0 15 18 21 40 7 22 15 40 19
40 5 0 11 12 15 27 3 15 15 33 26 41 10 7 19 18 19 23 0 13 26 39 39 39 5 0
14 6 18 14 12 20 48 36 82 36 17 0 31 5 31 10 0 6 7 10 15 10 8 0 23 10 34 21
42 46 173 33 186 -18 3 -13 10 -23 15 -23 6 0 10 -27 10 -60 0 -33 -4 -60 -10
-60 -5 0 -10 -7 -10 -15 0 -8 -10 -23 -21 -34 -18 -17 -21 -28 -16 -63 3 -23
10 -44 16 -46 6 -2 13 -19 17 -38 3 -19 10 -34 14 -34 4 0 11 -21 15 -47 12
-85 15 -93 41 -93 13 0 24 5 24 10 0 6 -4 10 -9 10 -5 0 -12 18 -16 40 -4 22
-11 40 -16 40 -5 0 -9 34 -9 75 0 43 4 75 10 75 6 0 10 11 10 25 0 18 7 28 26
35 14 6 32 17 40 25 9 8 22 15 30 15 8 0 14 3 14 8 0 4 14 13 30 20 17 8 30
20 30 28 0 8 7 14 15 14 8 0 15 4 15 9 0 5 9 13 21 16 25 8 69 45 69 57 0 13
106 118 119 118 6 0 14 6 17 14 3 7 23 16 45 20 21 3 39 11 39 16 0 6 18 10
40 10 22 0 40 -4 40 -10 0 -5 7 -10 15 -10 8 0 15 -6 15 -14 0 -7 9 -20 21
-27 19 -13 21 -25 22 -140 2 -105 5 -128 20 -143 9 -10 17 -26 17 -36 0 -10 6
-20 13 -22 9 -4 12 -37 12 -123 0 -86 -3 -119 -12 -122 -7 -3 -13 -9 -13 -15
0 -15 -43 -58 -57 -58 -7 0 -13 -4 -13 -9 0 -5 -11 -12 -24 -15 -13 -3 -47
-29 -76 -58 -48 -48 -59 -77 -34 -85 14 -5 94 68 94 85 0 7 7 12 15 12 9 0 18
7 21 15 8 20 61 19 82 -2 20 -20 23 -144 4 -151 -16 -5 -15 -69 0 -74 7 -3 14
-31 16 -70 4 -58 2 -68 -18 -86 -38 -35 -20 -52 55 -52 52 0 67 3 72 16 4 10
-1 22 -12 30 -22 16 -28 125 -7 132 15 5 16 69 2 74 -6 2 -11 38 -13 81 -1 60
1 80 13 87 24 15 58 12 77 -9 10 -10 27 -21 39 -25 11 -3 27 -17 34 -30 19
-36 100 -52 100 -20 0 20 -58 79 -88 88 -12 4 -22 11 -22 15 0 4 -19 13 -41
20 -39 12 -89 53 -89 73 0 5 -7 17 -16 26 -25 24 -16 198 11 230 11 12 25 22
32 22 7 0 13 4 13 9 0 5 10 11 21 14 19 5 21 11 15 38 -3 18 -11 36 -16 39 -5
3 -11 42 -12 86 -3 80 -3 80 33 117 32 32 41 37 65 31 16 -4 32 -12 36 -18 10
-15 78 -12 88 3 4 7 11 40 14 72 4 33 11 59 16 59 6 0 10 7 10 16 0 14 10 16
67 12 39 -2 68 -9 71 -16z m-812 -3707 c8 -8 21 -18 29 -23 23 -12 30 -66 11
-85 -18 -17 -22 -57 -6 -57 6 0 10 -10 10 -22 0 -13 7 -31 14 -40 14 -20 36
-24 36 -8 0 18 35 10 50 -11 8 -12 23 -30 33 -39 12 -11 17 -29 15 -46 l-3
-29 -90 0 c-80 0 -93 3 -112 22 -13 13 -28 43 -34 68 -6 25 -15 45 -19 45 -4
0 -10 30 -13 66 -3 37 -9 69 -14 73 -22 14 -22 42 -2 59 12 9 27 22 33 29 15
17 44 16 62 -2z m669 -19 c40 -39 41 -42 20 -62 -9 -9 -15 -34 -15 -60 0 -24
-4 -44 -10 -44 -5 0 -10 -13 -10 -29 0 -31 -18 -89 -34 -109 -34 -40 -40 -44
-70 -38 -17 4 -32 11 -34 16 -2 6 -19 10 -38 10 -37 0 -62 10 -95 38 -22 19
-25 52 -5 52 8 0 16 7 20 15 3 8 12 15 21 15 8 0 15 5 15 10 0 20 30 9 35 -13
9 -34 42 -52 70 -37 38 20 43 114 8 148 -21 21 -15 57 15 90 36 40 64 40 107
-2z m-295 -16 c0 -5 7 -10 15 -10 21 0 28 -22 16 -53 -10 -26 -10 -26 -113
-24 l-103 2 0 35 0 35 68 3 c37 2 67 7 67 12 0 6 11 10 25 10 14 0 25 -4 25
-10z"/>
<path d="M3970 2800 c0 -5 -6 -10 -13 -10 -16 0 -47 -36 -47 -55 0 -19 31 -55
48 -55 7 0 15 -6 18 -14 3 -8 19 -18 35 -21 16 -4 29 -11 29 -16 0 -6 13 -15
29 -20 16 -6 32 -17 35 -25 3 -8 15 -14 27 -14 20 0 21 4 16 49 -6 54 -30 86
-72 97 -14 3 -25 9 -25 13 0 4 -11 13 -25 19 -17 8 -25 20 -25 37 0 16 -6 25
-15 25 -8 0 -15 -4 -15 -10z"/>
<path d="M2023 2765 c-15 -17 -17 -45 -3 -45 6 0 10 -5 10 -11 0 -7 16 -27 35
-45 19 -18 38 -47 41 -63 4 -17 10 -31 15 -31 5 0 9 -7 9 -16 0 -9 9 -18 19
-21 11 -3 22 -11 25 -19 3 -8 12 -14 20 -14 8 0 16 -5 18 -11 6 -17 147 -30
172 -16 28 17 64 56 71 78 9 26 -11 58 -40 65 -14 3 -25 10 -25 14 0 4 -16 11
-35 14 -19 4 -35 10 -35 14 0 4 -20 13 -45 20 -25 7 -45 16 -45 21 0 5 -13 12
-30 16 -16 4 -30 10 -30 15 0 5 -16 14 -35 21 -19 7 -35 17 -35 21 0 14 -64 8
-77 -7z"/>
<path d="M2890 2771 c0 -4 -20 -14 -45 -21 -25 -7 -45 -16 -45 -20 0 -4 -11
-11 -25 -14 -14 -4 -25 -10 -25 -15 0 -5 -20 -14 -45 -21 -25 -7 -45 -16 -45
-20 0 -5 -18 -11 -40 -15 -22 -4 -40 -11 -40 -16 0 -5 -10 -9 -23 -9 -13 0
-33 -11 -45 -25 -24 -27 -28 -45 -12 -45 6 0 10 -8 10 -18 0 -28 81 -105 88
-84 2 8 29 12 71 12 63 0 121 16 121 33 0 4 7 7 15 7 17 0 35 30 35 59 0 12 5
21 10 21 6 0 10 7 10 15 0 9 6 18 14 21 8 3 17 15 20 27 3 12 19 28 36 35 24
11 30 20 30 44 0 16 -6 36 -14 44 -16 15 -56 19 -56 5z"/>
<path d="M2432 2372 c-13 -4 -17 -42 -4 -42 5 0 14 -22 21 -50 7 -27 17 -50
22 -50 5 0 9 -40 9 -90 0 -75 2 -88 15 -84 11 5 15 24 15 80 0 75 17 164 32
164 4 0 8 9 8 20 0 13 -7 20 -20 20 -11 0 -20 4 -20 8 0 11 -61 30 -78 24z"/>
<path d="M2473 2014 c-6 -3 -17 -27 -24 -55 -7 -27 -16 -49 -21 -49 -4 0 -8
-22 -8 -50 0 -27 4 -50 9 -50 4 0 11 -21 14 -46 4 -42 32 -84 55 -84 9 0 32
66 32 94 0 9 5 16 10 16 6 0 10 28 10 65 0 36 -4 65 -8 65 -5 0 -14 23 -21 50
-12 47 -20 55 -48 44z"/>
<path d="M1649 1533 c-9 -2 -22 -15 -29 -28 -7 -14 -17 -25 -21 -25 -4 0 -17
-11 -30 -25 -13 -13 -30 -25 -36 -25 -7 0 -13 -5 -13 -10 0 -6 -12 -15 -26
-20 -25 -10 -26 -13 -22 -66 6 -65 13 -74 67 -81 22 -3 41 -10 41 -14 0 -5 7
-9 15 -9 8 0 15 4 15 9 0 5 9 13 20 16 20 6 29 45 10 45 -5 0 -10 9 -10 20 0
11 5 20 10 20 6 0 10 6 10 14 0 27 30 46 75 46 24 0 50 3 59 6 25 10 20 49 -9
62 -14 6 -25 16 -25 22 0 5 -8 19 -17 30 -16 19 -46 24 -84 13z"/>
<path d="M3319 1448 c-1 -7 -2 -41 -3 -76 0 -34 -6 -66 -11 -70 -17 -12 -39
-61 -31 -69 4 -4 10 -3 14 3 4 6 33 15 65 18 36 5 60 13 64 22 3 8 11 14 18
14 7 0 16 11 19 25 8 32 -2 75 -18 75 -7 0 -22 9 -34 20 -12 11 -26 20 -32 20
-6 0 -13 7 -16 15 -7 18 -33 20 -35 3z"/>
<path d="M1350 1123 c0 -5 -5 -35 -10 -68 -14 -79 -4 -158 24 -190 12 -14 27
-25 34 -25 7 0 12 -4 12 -10 0 -15 60 -12 61 3 2 23 -3 52 -11 57 -4 3 -11 16
-15 30 -4 14 -12 27 -16 30 -5 3 -14 42 -21 85 -6 44 -17 83 -22 87 -14 10
-36 10 -36 1z"/>
</g>
</svg>
